M48
; DRILL file {KiCad 8.0.5} date 2024-10-20T11:30:07-0400
; FORMAT={-:-/ absolute / inch / decimal}
; #@! TF.CreationDate,2024-10-20T11:30:07-04:00
; #@! TF.GenerationSoftware,Kicad,Pcbnew,8.0.5
; #@! TF.FileFunction,Plated,1,2,PTH
FMAT,2
INCH
; #@! TA.AperFunction,Plated,PTH,ViaDrill
T1C0.0130
; #@! TA.AperFunction,Plated,PTH,ViaDrill
T2C0.0200
; #@! TA.AperFunction,Plated,PTH,ComponentDrill
T3C0.0394
%
G90
G05
T1
X2.4037Y-1.2041
X2.4047Y-2.8569
X2.4047Y-4.5105
X2.5843Y-2.0953
X2.5853Y-3.7481
X2.5853Y-5.4017
X2.6417Y-1.2461
X2.6427Y-2.8989
X2.6427Y-4.5525
X2.7137Y-1.7061
X2.7147Y-3.3589
X2.7147Y-5.0125
X2.7878Y-1.4579
X2.7888Y-3.1107
X2.7888Y-4.7643
X2.8282Y-1.8569
X2.8292Y-3.5098
X2.8292Y-5.1633
X2.9846Y-1.6976
X2.9846Y-1.9252
X2.9857Y-3.3505
X2.9857Y-3.5781
X2.9857Y-5.004
X2.9857Y-5.2316
X2.9921Y-1.5028
X2.9931Y-3.1556
X2.9931Y-4.8092
X3.0134Y-2.1106
X3.0144Y-3.7635
X3.0144Y-5.417
X3.0618Y-1.7551
X3.0628Y-3.408
X3.0628Y-5.0615
X3.2752Y-1.1854
X3.2762Y-2.8383
X3.2762Y-4.4918
X3.4736Y-1.1772
X3.4746Y-2.83
X3.4746Y-4.4836
X3.6004Y-1.6374
X3.6014Y-3.2903
X3.6014Y-4.9438
X3.8224Y-1.5449
X3.8235Y-3.1977
X3.8235Y-4.8513
X4.3033Y-1.2039
X4.3043Y-2.8567
X4.3043Y-4.5103
X4.4839Y-2.0951
X4.4849Y-3.7479
X4.4849Y-5.4015
X4.5413Y-1.2459
X4.5423Y-2.8987
X4.5423Y-4.5523
X4.6133Y-1.7059
X4.6143Y-3.3587
X4.6143Y-5.0123
X4.6874Y-1.4577
X4.6884Y-3.1105
X4.6884Y-4.7641
X4.7278Y-1.8567
X4.7288Y-3.5096
X4.7288Y-5.1631
X4.8843Y-1.6974
X4.8843Y-1.925
X4.8853Y-3.3503
X4.8853Y-3.5779
X4.8853Y-5.0038
X4.8853Y-5.2314
X4.8917Y-1.5025
X4.8928Y-3.1554
X4.8928Y-4.809
X4.913Y-2.1104
X4.914Y-3.7633
X4.914Y-5.4168
X4.9614Y-1.7549
X4.9624Y-3.4078
X4.9624Y-5.0613
X5.1748Y-1.1852
X5.1758Y-2.8381
X5.1758Y-4.4916
X5.3732Y-1.177
X5.3743Y-2.8298
X5.3743Y-4.4834
X5.5Y-1.6372
X5.501Y-3.2901
X5.501Y-4.9436
X5.722Y-1.5447
X5.7231Y-3.1975
X5.7231Y-4.8511
X6.2024Y-1.2039
X6.2034Y-2.8567
X6.2034Y-4.5103
X6.3829Y-2.0951
X6.3839Y-3.7479
X6.3839Y-5.4015
X6.4404Y-1.2459
X6.4414Y-2.8987
X6.4414Y-4.5523
X6.5124Y-1.7059
X6.5134Y-3.3587
X6.5134Y-5.0123
X6.5865Y-1.4577
X6.5875Y-3.1105
X6.5875Y-4.7641
X6.6269Y-1.8567
X6.6279Y-3.5096
X6.6279Y-5.1631
X6.7833Y-1.6974
X6.7833Y-1.925
X6.7843Y-3.3503
X6.7843Y-3.5779
X6.7843Y-5.0038
X6.7843Y-5.2314
X6.7908Y-1.5025
X6.7918Y-3.1554
X6.7918Y-4.809
X6.812Y-2.1104
X6.8131Y-3.7633
X6.8131Y-5.4168
X6.8605Y-1.7549
X6.8615Y-3.4078
X6.8615Y-5.0613
X7.0739Y-1.1852
X7.0749Y-2.8381
X7.0749Y-4.4916
X7.2723Y-1.177
X7.2733Y-2.8298
X7.2733Y-4.4834
X7.3991Y-1.6372
X7.4001Y-3.2901
X7.4001Y-4.9436
X7.6211Y-1.5447
X7.6221Y-3.1975
X7.6221Y-4.8511
X8.1001Y-1.2027
X8.1012Y-2.8556
X8.1012Y-4.5092
X8.2807Y-2.0939
X8.2817Y-3.7468
X8.2817Y-5.4004
X8.3381Y-1.2447
X8.3392Y-2.8976
X8.3392Y-4.5512
X8.4101Y-1.7047
X8.4112Y-3.3576
X8.4112Y-5.0112
X8.4842Y-1.4565
X8.4853Y-3.1094
X8.4853Y-4.763
X8.5246Y-1.8556
X8.5257Y-3.5085
X8.5257Y-5.162
X8.6811Y-1.6963
X8.6811Y-1.9239
X8.6821Y-3.3492
X8.6821Y-3.5767
X8.6821Y-5.0027
X8.6821Y-5.2303
X8.6886Y-1.5014
X8.6896Y-3.1543
X8.6896Y-4.8078
X8.7098Y-2.1093
X8.7109Y-3.7622
X8.7109Y-5.4157
X8.7583Y-1.7538
X8.7593Y-3.4067
X8.7593Y-5.0602
X8.9716Y-1.1841
X8.9727Y-2.837
X8.9727Y-4.4905
X9.1701Y-1.1758
X9.1711Y-2.8287
X9.1711Y-4.4822
X9.2968Y-1.6361
X9.2979Y-3.2889
X9.2979Y-4.9425
X9.5189Y-1.5436
X9.5199Y-3.1964
X9.5199Y-4.85
T2
X3.5402Y-2.1126
X3.5412Y-3.7655
X3.5412Y-5.419
X3.6846Y-1.378
X3.6857Y-3.0308
X3.6857Y-4.6844
X3.7058Y-0.9815
X3.7068Y-2.6343
X3.7068Y-4.2879
X5.4398Y-2.1124
X5.4408Y-3.7653
X5.4408Y-5.4188
X5.5843Y-1.3777
X5.5853Y-3.0306
X5.5853Y-4.6841
X5.6054Y-0.9813
X5.6064Y-2.6341
X5.6064Y-4.2877
X7.3388Y-2.1124
X7.3398Y-3.7653
X7.3398Y-5.4188
X7.4833Y-1.3777
X7.4843Y-3.0306
X7.4843Y-4.6841
X7.5045Y-0.9813
X7.5055Y-2.6341
X7.5055Y-4.2877
X9.2366Y-2.1113
X9.2376Y-3.7641
X9.2376Y-5.4177
X9.3811Y-1.3766
X9.3821Y-3.0295
X9.3821Y-4.683
X9.4022Y-0.9801
X9.4033Y-2.633
X9.4033Y-4.2865
T3
X2.3079Y-0.8971
X2.3089Y-2.5499
X2.3089Y-4.2035
X2.3137Y-1.4751
X2.3137Y-1.5751
X2.3137Y-1.6751
X2.3137Y-1.7751
X2.3137Y-1.8751
X2.3137Y-1.9751
X2.3137Y-2.0751
X2.3137Y-2.1751
X2.3137Y-2.2751
X2.3147Y-3.1279
X2.3147Y-3.2279
X2.3147Y-3.3279
X2.3147Y-3.4279
X2.3147Y-3.5279
X2.3147Y-3.6279
X2.3147Y-3.7279
X2.3147Y-3.8279
X2.3147Y-3.9279
X2.3147Y-4.7815
X2.3147Y-4.8815
X2.3147Y-4.9815
X2.3147Y-5.0815
X2.3147Y-5.1815
X2.3147Y-5.2815
X2.3147Y-5.3815
X2.3147Y-5.4815
X2.3147Y-5.5815
X2.4079Y-0.8971
X2.4089Y-2.5499
X2.4089Y-4.2035
X3.1691Y-0.8951
X3.1701Y-2.5479
X3.1701Y-4.2015
X3.2691Y-0.8951
X3.2701Y-2.5479
X3.2701Y-4.2015
X3.4457Y-1.5221
X3.4457Y-1.6221
X3.4467Y-3.1749
X3.4467Y-3.2749
X3.4467Y-4.8285
X3.4467Y-4.9285
X3.9117Y-1.3583
X3.9117Y-1.4583
X3.9127Y-3.0111
X3.9127Y-3.1111
X3.9127Y-4.6647
X3.9127Y-4.7647
X4.2075Y-0.8969
X4.2085Y-2.5497
X4.2085Y-4.2033
X4.2133Y-1.4749
X4.2133Y-1.5749
X4.2133Y-1.6749
X4.2133Y-1.7749
X4.2133Y-1.8749
X4.2133Y-1.9749
X4.2133Y-2.0749
X4.2133Y-2.1749
X4.2133Y-2.2749
X4.2143Y-3.1277
X4.2143Y-3.2277
X4.2143Y-3.3277
X4.2143Y-3.4277
X4.2143Y-3.5277
X4.2143Y-3.6277
X4.2143Y-3.7277
X4.2143Y-3.8277
X4.2143Y-3.9277
X4.2143Y-4.7813
X4.2143Y-4.8813
X4.2143Y-4.9813
X4.2143Y-5.0813
X4.2143Y-5.1813
X4.2143Y-5.2813
X4.2143Y-5.3813
X4.2143Y-5.4813
X4.2143Y-5.5813
X4.3075Y-0.8969
X4.3085Y-2.5497
X4.3085Y-4.2033
X5.0687Y-0.8949
X5.0697Y-2.5477
X5.0697Y-4.2013
X5.1687Y-0.8949
X5.1697Y-2.5477
X5.1697Y-4.2013
X5.3453Y-1.5219
X5.3453Y-1.6219
X5.3463Y-3.1747
X5.3463Y-3.2747
X5.3463Y-4.8283
X5.3463Y-4.9283
X5.8113Y-1.3581
X5.8113Y-1.4581
X5.8123Y-3.0109
X5.8123Y-3.1109
X5.8123Y-4.6645
X5.8123Y-4.7645
X6.1066Y-0.8969
X6.1076Y-2.5497
X6.1076Y-4.2033
X6.1124Y-1.4749
X6.1124Y-1.5749
X6.1124Y-1.6749
X6.1124Y-1.7749
X6.1124Y-1.8749
X6.1124Y-1.9749
X6.1124Y-2.0749
X6.1124Y-2.1749
X6.1124Y-2.2749
X6.1134Y-3.1277
X6.1134Y-3.2277
X6.1134Y-3.3277
X6.1134Y-3.4277
X6.1134Y-3.5277
X6.1134Y-3.6277
X6.1134Y-3.7277
X6.1134Y-3.8277
X6.1134Y-3.9277
X6.1134Y-4.7813
X6.1134Y-4.8813
X6.1134Y-4.9813
X6.1134Y-5.0813
X6.1134Y-5.1813
X6.1134Y-5.2813
X6.1134Y-5.3813
X6.1134Y-5.4813
X6.1134Y-5.5813
X6.2066Y-0.8969
X6.2076Y-2.5497
X6.2076Y-4.2033
X6.9678Y-0.8949
X6.9688Y-2.5477
X6.9688Y-4.2013
X7.0678Y-0.8949
X7.0688Y-2.5477
X7.0688Y-4.2013
X7.2444Y-1.5219
X7.2444Y-1.6219
X7.2454Y-3.1747
X7.2454Y-3.2747
X7.2454Y-4.8283
X7.2454Y-4.9283
X7.7104Y-1.3581
X7.7104Y-1.4581
X7.7114Y-3.0109
X7.7114Y-3.1109
X7.7114Y-4.6645
X7.7114Y-4.7645
X8.0043Y-0.8957
X8.0054Y-2.5486
X8.0054Y-4.2022
X8.0101Y-1.4737
X8.0101Y-1.5737
X8.0101Y-1.6737
X8.0101Y-1.7737
X8.0101Y-1.8737
X8.0101Y-1.9737
X8.0101Y-2.0737
X8.0101Y-2.1737
X8.0101Y-2.2737
X8.0112Y-3.1266
X8.0112Y-3.2266
X8.0112Y-3.3266
X8.0112Y-3.4266
X8.0112Y-3.5266
X8.0112Y-3.6266
X8.0112Y-3.7266
X8.0112Y-3.8266
X8.0112Y-3.9266
X8.0112Y-4.7802
X8.0112Y-4.8802
X8.0112Y-4.9802
X8.0112Y-5.0802
X8.0112Y-5.1802
X8.0112Y-5.2802
X8.0112Y-5.3802
X8.0112Y-5.4802
X8.0112Y-5.5802
X8.1043Y-0.8957
X8.1054Y-2.5486
X8.1054Y-4.2022
X8.8655Y-0.8937
X8.8666Y-2.5466
X8.8666Y-4.2002
X8.9655Y-0.8937
X8.9666Y-2.5466
X8.9666Y-4.2002
X9.1421Y-1.5207
X9.1421Y-1.6207
X9.1432Y-3.1736
X9.1432Y-3.2736
X9.1432Y-4.8272
X9.1432Y-4.9272
X9.6081Y-1.3569
X9.6081Y-1.4569
X9.6092Y-3.0098
X9.6092Y-3.1098
X9.6092Y-4.6634
X9.6092Y-4.7634
M30
