%TF.GenerationSoftware,KiCad,Pcbnew,8.0.5*%
%TF.CreationDate,2024-11-17T22:13:22-05:00*%
%TF.ProjectId,power_glitcher,706f7765-725f-4676-9c69-74636865722e,2.0*%
%TF.SameCoordinates,Original*%
%TF.FileFunction,Soldermask,Top*%
%TF.FilePolarity,Negative*%
%FSLAX46Y46*%
G04 Gerber Fmt 4.6, Leading zero omitted, Abs format (unit mm)*
G04 Created by KiCad (PCBNEW 8.0.5) date 2024-11-17 22:13:22*
%MOMM*%
%LPD*%
G01*
G04 APERTURE LIST*
G04 Aperture macros list*
%AMRoundRect*
0 Rectangle with rounded corners*
0 $1 Rounding radius*
0 $2 $3 $4 $5 $6 $7 $8 $9 X,Y pos of 4 corners*
0 Add a 4 corners polygon primitive as box body*
4,1,4,$2,$3,$4,$5,$6,$7,$8,$9,$2,$3,0*
0 Add four circle primitives for the rounded corners*
1,1,$1+$1,$2,$3*
1,1,$1+$1,$4,$5*
1,1,$1+$1,$6,$7*
1,1,$1+$1,$8,$9*
0 Add four rect primitives between the rounded corners*
20,1,$1+$1,$2,$3,$4,$5,0*
20,1,$1+$1,$4,$5,$6,$7,0*
20,1,$1+$1,$6,$7,$8,$9,0*
20,1,$1+$1,$8,$9,$2,$3,0*%
G04 Aperture macros list end*
%ADD10RoundRect,0.250000X-0.450000X0.262500X-0.450000X-0.262500X0.450000X-0.262500X0.450000X0.262500X0*%
%ADD11RoundRect,0.250000X0.475000X-0.250000X0.475000X0.250000X-0.475000X0.250000X-0.475000X-0.250000X0*%
%ADD12RoundRect,0.150000X-0.725000X-0.150000X0.725000X-0.150000X0.725000X0.150000X-0.725000X0.150000X0*%
%ADD13RoundRect,0.150000X-0.825000X-0.150000X0.825000X-0.150000X0.825000X0.150000X-0.825000X0.150000X0*%
%ADD14RoundRect,0.250000X0.262500X0.450000X-0.262500X0.450000X-0.262500X-0.450000X0.262500X-0.450000X0*%
%ADD15RoundRect,0.250000X-0.262500X-0.450000X0.262500X-0.450000X0.262500X0.450000X-0.262500X0.450000X0*%
%ADD16R,1.500000X1.000000*%
%ADD17RoundRect,0.250000X-0.550000X1.500000X-0.550000X-1.500000X0.550000X-1.500000X0.550000X1.500000X0*%
%ADD18R,1.700000X1.700000*%
%ADD19O,1.700000X1.700000*%
%ADD20RoundRect,0.250000X0.450000X-0.262500X0.450000X0.262500X-0.450000X0.262500X-0.450000X-0.262500X0*%
%ADD21RoundRect,0.250000X0.250000X0.475000X-0.250000X0.475000X-0.250000X-0.475000X0.250000X-0.475000X0*%
%ADD22RoundRect,0.150000X-0.150000X0.512500X-0.150000X-0.512500X0.150000X-0.512500X0.150000X0.512500X0*%
%ADD23RoundRect,0.250000X-0.475000X0.250000X-0.475000X-0.250000X0.475000X-0.250000X0.475000X0.250000X0*%
%ADD24RoundRect,0.250000X-0.250000X-0.475000X0.250000X-0.475000X0.250000X0.475000X-0.250000X0.475000X0*%
%ADD25RoundRect,0.100000X-0.637500X-0.100000X0.637500X-0.100000X0.637500X0.100000X-0.637500X0.100000X0*%
%ADD26RoundRect,0.250000X0.587500X1.625000X-0.587500X1.625000X-0.587500X-1.625000X0.587500X-1.625000X0*%
%ADD27RoundRect,0.225000X0.250000X-0.225000X0.250000X0.225000X-0.250000X0.225000X-0.250000X-0.225000X0*%
%ADD28RoundRect,0.150000X0.512500X0.150000X-0.512500X0.150000X-0.512500X-0.150000X0.512500X-0.150000X0*%
%ADD29RoundRect,0.250000X-0.325000X-0.450000X0.325000X-0.450000X0.325000X0.450000X-0.325000X0.450000X0*%
%ADD30RoundRect,0.150000X-0.587500X-0.150000X0.587500X-0.150000X0.587500X0.150000X-0.587500X0.150000X0*%
%ADD31RoundRect,0.250000X0.325000X0.450000X-0.325000X0.450000X-0.325000X-0.450000X0.325000X-0.450000X0*%
%ADD32RoundRect,0.250000X-1.100000X0.325000X-1.100000X-0.325000X1.100000X-0.325000X1.100000X0.325000X0*%
%ADD33R,1.854500X2.286000*%
G04 APERTURE END LIST*
D10*
%TO.C,R21*%
X121770000Y-56410000D03*
X121770000Y-58235000D03*
%TD*%
D11*
%TO.C,C17*%
X99771200Y-75031600D03*
X99771200Y-73131600D03*
%TD*%
D12*
%TO.C,U4*%
X114036400Y-65495400D03*
X114036400Y-66765400D03*
X114036400Y-68035400D03*
X114036400Y-69305400D03*
X119186400Y-69305400D03*
X119186400Y-68035400D03*
X119186400Y-66765400D03*
X119186400Y-65495400D03*
%TD*%
D13*
%TO.C,U2*%
X106048000Y-83439000D03*
X106048000Y-84709000D03*
X106048000Y-85979000D03*
X106048000Y-87249000D03*
X110998000Y-87249000D03*
X110998000Y-85979000D03*
X110998000Y-84709000D03*
X110998000Y-83439000D03*
%TD*%
D14*
%TO.C,R2*%
X123665000Y-86842600D03*
X121840000Y-86842600D03*
%TD*%
D15*
%TO.C,R16*%
X117273700Y-76454000D03*
X119098700Y-76454000D03*
%TD*%
D16*
%TO.C,JP1*%
X103098600Y-72212200D03*
X103098600Y-73512200D03*
%TD*%
D17*
%TO.C,C6*%
X99065000Y-57302400D03*
X99065000Y-62702400D03*
%TD*%
D18*
%TO.C,J4*%
X123875800Y-72064800D03*
D19*
X123875800Y-69524800D03*
%TD*%
D20*
%TO.C,R20*%
X123878200Y-58209600D03*
X123878200Y-56384600D03*
%TD*%
D15*
%TO.C,R6*%
X109840000Y-90043000D03*
X111665000Y-90043000D03*
%TD*%
D14*
%TO.C,R15*%
X99261300Y-83515200D03*
X97436300Y-83515200D03*
%TD*%
D21*
%TO.C,C22*%
X103896200Y-90119200D03*
X101996200Y-90119200D03*
%TD*%
D22*
%TO.C,U3*%
X95565000Y-87096600D03*
X94615000Y-87096600D03*
X93665000Y-87096600D03*
X93665000Y-89371600D03*
X95565000Y-89371600D03*
%TD*%
D20*
%TO.C,R10*%
X103200200Y-77290300D03*
X103200200Y-75465300D03*
%TD*%
D23*
%TO.C,C23*%
X111328200Y-66131400D03*
X111328200Y-68031400D03*
%TD*%
D18*
%TO.C,J6*%
X112445800Y-75844400D03*
D19*
X112445800Y-73304400D03*
%TD*%
D15*
%TO.C,R18*%
X117527700Y-87122000D03*
X119352700Y-87122000D03*
%TD*%
D24*
%TO.C,C2*%
X97460000Y-81070000D03*
X99360000Y-81070000D03*
%TD*%
D20*
%TO.C,R13*%
X90779600Y-91389200D03*
X90779600Y-89564200D03*
%TD*%
D11*
%TO.C,C11*%
X109956600Y-81000600D03*
X109956600Y-79100600D03*
%TD*%
D14*
%TO.C,R12*%
X99439100Y-91059000D03*
X97614100Y-91059000D03*
%TD*%
D18*
%TO.C,J5*%
X108717000Y-71145400D03*
D19*
X106177000Y-71145400D03*
%TD*%
D15*
%TO.C,R3*%
X122023500Y-75742800D03*
X123848500Y-75742800D03*
%TD*%
D11*
%TO.C,C24*%
X121818400Y-66786800D03*
X121818400Y-64886800D03*
%TD*%
D25*
%TO.C,U1*%
X89017000Y-75804000D03*
X89017000Y-76454000D03*
X89017000Y-77104000D03*
X89017000Y-77754000D03*
X89017000Y-78404000D03*
X89017000Y-79054000D03*
X89017000Y-79704000D03*
X89017000Y-80354000D03*
X89017000Y-81004000D03*
X89017000Y-81654000D03*
X89017000Y-82304000D03*
X89017000Y-82954000D03*
X89017000Y-83604000D03*
X89017000Y-84254000D03*
X94742000Y-84254000D03*
X94742000Y-83604000D03*
X94742000Y-82954000D03*
X94742000Y-82304000D03*
X94742000Y-81654000D03*
X94742000Y-81004000D03*
X94742000Y-80354000D03*
X94742000Y-79704000D03*
X94742000Y-79054000D03*
X94742000Y-78404000D03*
X94742000Y-77754000D03*
X94742000Y-77104000D03*
X94742000Y-76454000D03*
X94742000Y-75804000D03*
%TD*%
D11*
%TO.C,C13*%
X112064800Y-80990400D03*
X112064800Y-79090400D03*
%TD*%
D26*
%TO.C,D3*%
X119284600Y-61569600D03*
X114909600Y-61569600D03*
%TD*%
D18*
%TO.C,J3*%
X107325000Y-56515000D03*
D19*
X104785000Y-56515000D03*
%TD*%
D21*
%TO.C,C21*%
X103896200Y-87934800D03*
X101996200Y-87934800D03*
%TD*%
D10*
%TO.C,R8*%
X105689400Y-75490700D03*
X105689400Y-77315700D03*
%TD*%
%TO.C,R22*%
X112369600Y-56515000D03*
X112369600Y-58340000D03*
%TD*%
D14*
%TO.C,R19*%
X119364800Y-84404200D03*
X117539800Y-84404200D03*
%TD*%
%TO.C,R4*%
X119259400Y-79502000D03*
X117434400Y-79502000D03*
%TD*%
D20*
%TO.C,R14*%
X88366600Y-91389200D03*
X88366600Y-89564200D03*
%TD*%
D15*
%TO.C,R1*%
X121818400Y-84582000D03*
X123643400Y-84582000D03*
%TD*%
D18*
%TO.C,J2*%
X85450600Y-56565800D03*
D19*
X82910600Y-56565800D03*
%TD*%
D27*
%TO.C,C20*%
X119687200Y-57959400D03*
X119687200Y-56409400D03*
%TD*%
D28*
%TO.C,U5*%
X116936100Y-58379400D03*
X116936100Y-57429400D03*
X116936100Y-56479400D03*
X114661100Y-56479400D03*
X114661100Y-58379400D03*
%TD*%
D23*
%TO.C,C10*%
X82169000Y-59715400D03*
X82169000Y-61615400D03*
%TD*%
D24*
%TO.C,C3*%
X97525800Y-78282800D03*
X99425800Y-78282800D03*
%TD*%
D14*
%TO.C,R11*%
X119085400Y-74041000D03*
X117260400Y-74041000D03*
%TD*%
D21*
%TO.C,C19*%
X123215400Y-60401200D03*
X121315400Y-60401200D03*
%TD*%
D29*
%TO.C,D1*%
X117575900Y-81915000D03*
X119625900Y-81915000D03*
%TD*%
D18*
%TO.C,J1*%
X83058000Y-71247000D03*
D19*
X83058000Y-73787000D03*
X83058000Y-76327000D03*
X83058000Y-78867000D03*
X83058000Y-81407000D03*
X83058000Y-83947000D03*
X83058000Y-86487000D03*
X83058000Y-89027000D03*
X83058000Y-91567000D03*
%TD*%
D20*
%TO.C,R9*%
X107848400Y-77315700D03*
X107848400Y-75490700D03*
%TD*%
D17*
%TO.C,C8*%
X91368800Y-57287200D03*
X91368800Y-62687200D03*
%TD*%
D11*
%TO.C,C14*%
X94107000Y-73756600D03*
X94107000Y-71856600D03*
%TD*%
%TO.C,C15*%
X91744800Y-73731200D03*
X91744800Y-71831200D03*
%TD*%
D15*
%TO.C,R5*%
X117537900Y-91567000D03*
X119362900Y-91567000D03*
%TD*%
D11*
%TO.C,C18*%
X112369600Y-62301200D03*
X112369600Y-60401200D03*
%TD*%
D30*
%TO.C,Q1*%
X122049300Y-79288600D03*
X122049300Y-81188600D03*
X123924300Y-80238600D03*
%TD*%
D31*
%TO.C,D2*%
X119471100Y-89414600D03*
X117421100Y-89414600D03*
%TD*%
D11*
%TO.C,C16*%
X97459800Y-75041800D03*
X97459800Y-73141800D03*
%TD*%
D21*
%TO.C,C1*%
X119085400Y-71755000D03*
X117185400Y-71755000D03*
%TD*%
D15*
%TO.C,R7*%
X105996100Y-80797400D03*
X107821100Y-80797400D03*
%TD*%
D23*
%TO.C,C7*%
X108742400Y-59639200D03*
X108742400Y-61539200D03*
%TD*%
D32*
%TO.C,C5*%
X105770600Y-59690000D03*
X105770600Y-62640000D03*
%TD*%
D33*
%TO.C,L1*%
X104787750Y-66649600D03*
X108572250Y-66649600D03*
%TD*%
D24*
%TO.C,C12*%
X97586800Y-88900000D03*
X99486800Y-88900000D03*
%TD*%
%TO.C,C4*%
X97348000Y-85648800D03*
X99248000Y-85648800D03*
%TD*%
D21*
%TO.C,C25*%
X95590400Y-91440000D03*
X93690400Y-91440000D03*
%TD*%
D30*
%TO.C,Q2*%
X121950000Y-89626400D03*
X121950000Y-91526400D03*
X123825000Y-90576400D03*
%TD*%
D32*
%TO.C,C9*%
X85090000Y-59791600D03*
X85090000Y-62741600D03*
%TD*%
D15*
%TO.C,R17*%
X106110000Y-90043000D03*
X107935000Y-90043000D03*
%TD*%
M02*
