%TF.GenerationSoftware,KiCad,Pcbnew,8.0.5*%
%TF.CreationDate,2024-10-20T10:55:42-04:00*%
%TF.ProjectId,power_glitcher,706f7765-725f-4676-9c69-74636865722e,rev?*%
%TF.SameCoordinates,Original*%
%TF.FileFunction,Legend,Top*%
%TF.FilePolarity,Positive*%
%FSLAX46Y46*%
G04 Gerber Fmt 4.6, Leading zero omitted, Abs format (unit mm)*
G04 Created by KiCad (PCBNEW 8.0.5) date 2024-10-20 10:55:42*
%MOMM*%
%LPD*%
G01*
G04 APERTURE LIST*
%ADD10C,0.101600*%
%ADD11C,0.200000*%
%ADD12C,0.150000*%
%ADD13C,0.120000*%
G04 APERTURE END LIST*
D10*
X83118032Y-58937004D02*
X83118032Y-58302004D01*
X83118032Y-58302004D02*
X83269222Y-58302004D01*
X83269222Y-58302004D02*
X83359937Y-58332242D01*
X83359937Y-58332242D02*
X83420413Y-58392718D01*
X83420413Y-58392718D02*
X83450651Y-58453194D01*
X83450651Y-58453194D02*
X83480889Y-58574146D01*
X83480889Y-58574146D02*
X83480889Y-58664861D01*
X83480889Y-58664861D02*
X83450651Y-58785813D01*
X83450651Y-58785813D02*
X83420413Y-58846289D01*
X83420413Y-58846289D02*
X83359937Y-58906766D01*
X83359937Y-58906766D02*
X83269222Y-58937004D01*
X83269222Y-58937004D02*
X83118032Y-58937004D01*
X83662318Y-58302004D02*
X83873984Y-58937004D01*
X83873984Y-58937004D02*
X84085651Y-58302004D01*
X84569461Y-58906766D02*
X84508985Y-58937004D01*
X84508985Y-58937004D02*
X84388032Y-58937004D01*
X84388032Y-58937004D02*
X84327556Y-58906766D01*
X84327556Y-58906766D02*
X84297318Y-58876527D01*
X84297318Y-58876527D02*
X84267080Y-58816051D01*
X84267080Y-58816051D02*
X84267080Y-58634623D01*
X84267080Y-58634623D02*
X84297318Y-58574146D01*
X84297318Y-58574146D02*
X84327556Y-58543908D01*
X84327556Y-58543908D02*
X84388032Y-58513670D01*
X84388032Y-58513670D02*
X84508985Y-58513670D01*
X84508985Y-58513670D02*
X84569461Y-58543908D01*
X85113747Y-58906766D02*
X85053271Y-58937004D01*
X85053271Y-58937004D02*
X84932318Y-58937004D01*
X84932318Y-58937004D02*
X84871842Y-58906766D01*
X84871842Y-58906766D02*
X84841604Y-58876527D01*
X84841604Y-58876527D02*
X84811366Y-58816051D01*
X84811366Y-58816051D02*
X84811366Y-58634623D01*
X84811366Y-58634623D02*
X84841604Y-58574146D01*
X84841604Y-58574146D02*
X84871842Y-58543908D01*
X84871842Y-58543908D02*
X84932318Y-58513670D01*
X84932318Y-58513670D02*
X85053271Y-58513670D01*
X85053271Y-58513670D02*
X85113747Y-58543908D01*
X106057794Y-58605575D02*
X106360175Y-58605575D01*
X105997318Y-58787004D02*
X106208984Y-58152004D01*
X106208984Y-58152004D02*
X106420651Y-58787004D01*
X106541604Y-58152004D02*
X106753270Y-58787004D01*
X106753270Y-58787004D02*
X106964937Y-58152004D01*
X107448747Y-58756766D02*
X107388271Y-58787004D01*
X107388271Y-58787004D02*
X107267318Y-58787004D01*
X107267318Y-58787004D02*
X107206842Y-58756766D01*
X107206842Y-58756766D02*
X107176604Y-58726527D01*
X107176604Y-58726527D02*
X107146366Y-58666051D01*
X107146366Y-58666051D02*
X107146366Y-58484623D01*
X107146366Y-58484623D02*
X107176604Y-58424146D01*
X107176604Y-58424146D02*
X107206842Y-58393908D01*
X107206842Y-58393908D02*
X107267318Y-58363670D01*
X107267318Y-58363670D02*
X107388271Y-58363670D01*
X107388271Y-58363670D02*
X107448747Y-58393908D01*
X107993033Y-58756766D02*
X107932557Y-58787004D01*
X107932557Y-58787004D02*
X107811604Y-58787004D01*
X107811604Y-58787004D02*
X107751128Y-58756766D01*
X107751128Y-58756766D02*
X107720890Y-58726527D01*
X107720890Y-58726527D02*
X107690652Y-58666051D01*
X107690652Y-58666051D02*
X107690652Y-58484623D01*
X107690652Y-58484623D02*
X107720890Y-58424146D01*
X107720890Y-58424146D02*
X107751128Y-58393908D01*
X107751128Y-58393908D02*
X107811604Y-58363670D01*
X107811604Y-58363670D02*
X107932557Y-58363670D01*
X107932557Y-58363670D02*
X107993033Y-58393908D01*
X120912004Y-70342681D02*
X121547004Y-70131015D01*
X121547004Y-70131015D02*
X120912004Y-69919348D01*
X121547004Y-69616967D02*
X121516766Y-69677443D01*
X121516766Y-69677443D02*
X121486527Y-69707681D01*
X121486527Y-69707681D02*
X121426051Y-69737919D01*
X121426051Y-69737919D02*
X121244623Y-69737919D01*
X121244623Y-69737919D02*
X121184146Y-69707681D01*
X121184146Y-69707681D02*
X121153908Y-69677443D01*
X121153908Y-69677443D02*
X121123670Y-69616967D01*
X121123670Y-69616967D02*
X121123670Y-69526252D01*
X121123670Y-69526252D02*
X121153908Y-69465776D01*
X121153908Y-69465776D02*
X121184146Y-69435538D01*
X121184146Y-69435538D02*
X121244623Y-69405300D01*
X121244623Y-69405300D02*
X121426051Y-69405300D01*
X121426051Y-69405300D02*
X121486527Y-69435538D01*
X121486527Y-69435538D02*
X121516766Y-69465776D01*
X121516766Y-69465776D02*
X121547004Y-69526252D01*
X121547004Y-69526252D02*
X121547004Y-69616967D01*
X121123670Y-68861014D02*
X121547004Y-68861014D01*
X121123670Y-69133157D02*
X121456289Y-69133157D01*
X121456289Y-69133157D02*
X121516766Y-69102919D01*
X121516766Y-69102919D02*
X121547004Y-69042443D01*
X121547004Y-69042443D02*
X121547004Y-68951728D01*
X121547004Y-68951728D02*
X121516766Y-68891252D01*
X121516766Y-68891252D02*
X121486527Y-68861014D01*
X121123670Y-68649347D02*
X121123670Y-68407443D01*
X120912004Y-68558633D02*
X121456289Y-68558633D01*
X121456289Y-68558633D02*
X121516766Y-68528395D01*
X121516766Y-68528395D02*
X121547004Y-68467919D01*
X121547004Y-68467919D02*
X121547004Y-68407443D01*
X125108032Y-73005099D02*
X125591842Y-73005099D01*
X125349937Y-73247004D02*
X125349937Y-72763194D01*
X87594032Y-55047099D02*
X88077842Y-55047099D01*
X87835937Y-55289004D02*
X87835937Y-54805194D01*
X109438032Y-55047099D02*
X109921842Y-55047099D01*
X109679937Y-55289004D02*
X109679937Y-54805194D01*
X85054032Y-91865004D02*
X85054032Y-91230004D01*
X85054032Y-91230004D02*
X85205222Y-91230004D01*
X85205222Y-91230004D02*
X85295937Y-91260242D01*
X85295937Y-91260242D02*
X85356413Y-91320718D01*
X85356413Y-91320718D02*
X85386651Y-91381194D01*
X85386651Y-91381194D02*
X85416889Y-91502146D01*
X85416889Y-91502146D02*
X85416889Y-91592861D01*
X85416889Y-91592861D02*
X85386651Y-91713813D01*
X85386651Y-91713813D02*
X85356413Y-91774289D01*
X85356413Y-91774289D02*
X85295937Y-91834766D01*
X85295937Y-91834766D02*
X85205222Y-91865004D01*
X85205222Y-91865004D02*
X85054032Y-91865004D01*
X85809984Y-91230004D02*
X85870461Y-91230004D01*
X85870461Y-91230004D02*
X85930937Y-91260242D01*
X85930937Y-91260242D02*
X85961175Y-91290480D01*
X85961175Y-91290480D02*
X85991413Y-91350956D01*
X85991413Y-91350956D02*
X86021651Y-91471908D01*
X86021651Y-91471908D02*
X86021651Y-91623099D01*
X86021651Y-91623099D02*
X85991413Y-91744051D01*
X85991413Y-91744051D02*
X85961175Y-91804527D01*
X85961175Y-91804527D02*
X85930937Y-91834766D01*
X85930937Y-91834766D02*
X85870461Y-91865004D01*
X85870461Y-91865004D02*
X85809984Y-91865004D01*
X85809984Y-91865004D02*
X85749508Y-91834766D01*
X85749508Y-91834766D02*
X85719270Y-91804527D01*
X85719270Y-91804527D02*
X85689032Y-91744051D01*
X85689032Y-91744051D02*
X85658794Y-91623099D01*
X85658794Y-91623099D02*
X85658794Y-91471908D01*
X85658794Y-91471908D02*
X85689032Y-91350956D01*
X85689032Y-91350956D02*
X85719270Y-91290480D01*
X85719270Y-91290480D02*
X85749508Y-91260242D01*
X85749508Y-91260242D02*
X85809984Y-91230004D01*
X85054032Y-89325004D02*
X85054032Y-88690004D01*
X85054032Y-88690004D02*
X85205222Y-88690004D01*
X85205222Y-88690004D02*
X85295937Y-88720242D01*
X85295937Y-88720242D02*
X85356413Y-88780718D01*
X85356413Y-88780718D02*
X85386651Y-88841194D01*
X85386651Y-88841194D02*
X85416889Y-88962146D01*
X85416889Y-88962146D02*
X85416889Y-89052861D01*
X85416889Y-89052861D02*
X85386651Y-89173813D01*
X85386651Y-89173813D02*
X85356413Y-89234289D01*
X85356413Y-89234289D02*
X85295937Y-89294766D01*
X85295937Y-89294766D02*
X85205222Y-89325004D01*
X85205222Y-89325004D02*
X85054032Y-89325004D01*
X86021651Y-89325004D02*
X85658794Y-89325004D01*
X85840222Y-89325004D02*
X85840222Y-88690004D01*
X85840222Y-88690004D02*
X85779746Y-88780718D01*
X85779746Y-88780718D02*
X85719270Y-88841194D01*
X85719270Y-88841194D02*
X85658794Y-88871432D01*
X85054032Y-86785004D02*
X85054032Y-86150004D01*
X85054032Y-86150004D02*
X85205222Y-86150004D01*
X85205222Y-86150004D02*
X85295937Y-86180242D01*
X85295937Y-86180242D02*
X85356413Y-86240718D01*
X85356413Y-86240718D02*
X85386651Y-86301194D01*
X85386651Y-86301194D02*
X85416889Y-86422146D01*
X85416889Y-86422146D02*
X85416889Y-86512861D01*
X85416889Y-86512861D02*
X85386651Y-86633813D01*
X85386651Y-86633813D02*
X85356413Y-86694289D01*
X85356413Y-86694289D02*
X85295937Y-86754766D01*
X85295937Y-86754766D02*
X85205222Y-86785004D01*
X85205222Y-86785004D02*
X85054032Y-86785004D01*
X85658794Y-86210480D02*
X85689032Y-86180242D01*
X85689032Y-86180242D02*
X85749508Y-86150004D01*
X85749508Y-86150004D02*
X85900699Y-86150004D01*
X85900699Y-86150004D02*
X85961175Y-86180242D01*
X85961175Y-86180242D02*
X85991413Y-86210480D01*
X85991413Y-86210480D02*
X86021651Y-86270956D01*
X86021651Y-86270956D02*
X86021651Y-86331432D01*
X86021651Y-86331432D02*
X85991413Y-86422146D01*
X85991413Y-86422146D02*
X85628556Y-86785004D01*
X85628556Y-86785004D02*
X86021651Y-86785004D01*
X85054032Y-84245004D02*
X85054032Y-83610004D01*
X85054032Y-83610004D02*
X85205222Y-83610004D01*
X85205222Y-83610004D02*
X85295937Y-83640242D01*
X85295937Y-83640242D02*
X85356413Y-83700718D01*
X85356413Y-83700718D02*
X85386651Y-83761194D01*
X85386651Y-83761194D02*
X85416889Y-83882146D01*
X85416889Y-83882146D02*
X85416889Y-83972861D01*
X85416889Y-83972861D02*
X85386651Y-84093813D01*
X85386651Y-84093813D02*
X85356413Y-84154289D01*
X85356413Y-84154289D02*
X85295937Y-84214766D01*
X85295937Y-84214766D02*
X85205222Y-84245004D01*
X85205222Y-84245004D02*
X85054032Y-84245004D01*
X85628556Y-83610004D02*
X86021651Y-83610004D01*
X86021651Y-83610004D02*
X85809984Y-83851908D01*
X85809984Y-83851908D02*
X85900699Y-83851908D01*
X85900699Y-83851908D02*
X85961175Y-83882146D01*
X85961175Y-83882146D02*
X85991413Y-83912385D01*
X85991413Y-83912385D02*
X86021651Y-83972861D01*
X86021651Y-83972861D02*
X86021651Y-84124051D01*
X86021651Y-84124051D02*
X85991413Y-84184527D01*
X85991413Y-84184527D02*
X85961175Y-84214766D01*
X85961175Y-84214766D02*
X85900699Y-84245004D01*
X85900699Y-84245004D02*
X85719270Y-84245004D01*
X85719270Y-84245004D02*
X85658794Y-84214766D01*
X85658794Y-84214766D02*
X85628556Y-84184527D01*
X85054032Y-81705004D02*
X85054032Y-81070004D01*
X85054032Y-81070004D02*
X85205222Y-81070004D01*
X85205222Y-81070004D02*
X85295937Y-81100242D01*
X85295937Y-81100242D02*
X85356413Y-81160718D01*
X85356413Y-81160718D02*
X85386651Y-81221194D01*
X85386651Y-81221194D02*
X85416889Y-81342146D01*
X85416889Y-81342146D02*
X85416889Y-81432861D01*
X85416889Y-81432861D02*
X85386651Y-81553813D01*
X85386651Y-81553813D02*
X85356413Y-81614289D01*
X85356413Y-81614289D02*
X85295937Y-81674766D01*
X85295937Y-81674766D02*
X85205222Y-81705004D01*
X85205222Y-81705004D02*
X85054032Y-81705004D01*
X85961175Y-81281670D02*
X85961175Y-81705004D01*
X85809984Y-81039766D02*
X85658794Y-81493337D01*
X85658794Y-81493337D02*
X86051889Y-81493337D01*
X85054032Y-79165004D02*
X85054032Y-78530004D01*
X85054032Y-78530004D02*
X85205222Y-78530004D01*
X85205222Y-78530004D02*
X85295937Y-78560242D01*
X85295937Y-78560242D02*
X85356413Y-78620718D01*
X85356413Y-78620718D02*
X85386651Y-78681194D01*
X85386651Y-78681194D02*
X85416889Y-78802146D01*
X85416889Y-78802146D02*
X85416889Y-78892861D01*
X85416889Y-78892861D02*
X85386651Y-79013813D01*
X85386651Y-79013813D02*
X85356413Y-79074289D01*
X85356413Y-79074289D02*
X85295937Y-79134766D01*
X85295937Y-79134766D02*
X85205222Y-79165004D01*
X85205222Y-79165004D02*
X85054032Y-79165004D01*
X85991413Y-78530004D02*
X85689032Y-78530004D01*
X85689032Y-78530004D02*
X85658794Y-78832385D01*
X85658794Y-78832385D02*
X85689032Y-78802146D01*
X85689032Y-78802146D02*
X85749508Y-78771908D01*
X85749508Y-78771908D02*
X85900699Y-78771908D01*
X85900699Y-78771908D02*
X85961175Y-78802146D01*
X85961175Y-78802146D02*
X85991413Y-78832385D01*
X85991413Y-78832385D02*
X86021651Y-78892861D01*
X86021651Y-78892861D02*
X86021651Y-79044051D01*
X86021651Y-79044051D02*
X85991413Y-79104527D01*
X85991413Y-79104527D02*
X85961175Y-79134766D01*
X85961175Y-79134766D02*
X85900699Y-79165004D01*
X85900699Y-79165004D02*
X85749508Y-79165004D01*
X85749508Y-79165004D02*
X85689032Y-79134766D01*
X85689032Y-79134766D02*
X85658794Y-79104527D01*
X85054032Y-76625004D02*
X85054032Y-75990004D01*
X85054032Y-75990004D02*
X85205222Y-75990004D01*
X85205222Y-75990004D02*
X85295937Y-76020242D01*
X85295937Y-76020242D02*
X85356413Y-76080718D01*
X85356413Y-76080718D02*
X85386651Y-76141194D01*
X85386651Y-76141194D02*
X85416889Y-76262146D01*
X85416889Y-76262146D02*
X85416889Y-76352861D01*
X85416889Y-76352861D02*
X85386651Y-76473813D01*
X85386651Y-76473813D02*
X85356413Y-76534289D01*
X85356413Y-76534289D02*
X85295937Y-76594766D01*
X85295937Y-76594766D02*
X85205222Y-76625004D01*
X85205222Y-76625004D02*
X85054032Y-76625004D01*
X85961175Y-75990004D02*
X85840222Y-75990004D01*
X85840222Y-75990004D02*
X85779746Y-76020242D01*
X85779746Y-76020242D02*
X85749508Y-76050480D01*
X85749508Y-76050480D02*
X85689032Y-76141194D01*
X85689032Y-76141194D02*
X85658794Y-76262146D01*
X85658794Y-76262146D02*
X85658794Y-76504051D01*
X85658794Y-76504051D02*
X85689032Y-76564527D01*
X85689032Y-76564527D02*
X85719270Y-76594766D01*
X85719270Y-76594766D02*
X85779746Y-76625004D01*
X85779746Y-76625004D02*
X85900699Y-76625004D01*
X85900699Y-76625004D02*
X85961175Y-76594766D01*
X85961175Y-76594766D02*
X85991413Y-76564527D01*
X85991413Y-76564527D02*
X86021651Y-76504051D01*
X86021651Y-76504051D02*
X86021651Y-76352861D01*
X86021651Y-76352861D02*
X85991413Y-76292385D01*
X85991413Y-76292385D02*
X85961175Y-76262146D01*
X85961175Y-76262146D02*
X85900699Y-76231908D01*
X85900699Y-76231908D02*
X85779746Y-76231908D01*
X85779746Y-76231908D02*
X85719270Y-76262146D01*
X85719270Y-76262146D02*
X85689032Y-76292385D01*
X85689032Y-76292385D02*
X85658794Y-76352861D01*
X85054032Y-74085004D02*
X85054032Y-73450004D01*
X85054032Y-73450004D02*
X85205222Y-73450004D01*
X85205222Y-73450004D02*
X85295937Y-73480242D01*
X85295937Y-73480242D02*
X85356413Y-73540718D01*
X85356413Y-73540718D02*
X85386651Y-73601194D01*
X85386651Y-73601194D02*
X85416889Y-73722146D01*
X85416889Y-73722146D02*
X85416889Y-73812861D01*
X85416889Y-73812861D02*
X85386651Y-73933813D01*
X85386651Y-73933813D02*
X85356413Y-73994289D01*
X85356413Y-73994289D02*
X85295937Y-74054766D01*
X85295937Y-74054766D02*
X85205222Y-74085004D01*
X85205222Y-74085004D02*
X85054032Y-74085004D01*
X85628556Y-73450004D02*
X86051889Y-73450004D01*
X86051889Y-73450004D02*
X85779746Y-74085004D01*
X85416889Y-71796527D02*
X85386651Y-71826766D01*
X85386651Y-71826766D02*
X85295937Y-71857004D01*
X85295937Y-71857004D02*
X85235461Y-71857004D01*
X85235461Y-71857004D02*
X85144746Y-71826766D01*
X85144746Y-71826766D02*
X85084270Y-71766289D01*
X85084270Y-71766289D02*
X85054032Y-71705813D01*
X85054032Y-71705813D02*
X85023794Y-71584861D01*
X85023794Y-71584861D02*
X85023794Y-71494146D01*
X85023794Y-71494146D02*
X85054032Y-71373194D01*
X85054032Y-71373194D02*
X85084270Y-71312718D01*
X85084270Y-71312718D02*
X85144746Y-71252242D01*
X85144746Y-71252242D02*
X85235461Y-71222004D01*
X85235461Y-71222004D02*
X85295937Y-71222004D01*
X85295937Y-71222004D02*
X85386651Y-71252242D01*
X85386651Y-71252242D02*
X85416889Y-71282480D01*
X85991413Y-71857004D02*
X85689032Y-71857004D01*
X85689032Y-71857004D02*
X85689032Y-71222004D01*
X86203080Y-71857004D02*
X86203080Y-71222004D01*
X86565937Y-71857004D02*
X86293794Y-71494146D01*
X86565937Y-71222004D02*
X86203080Y-71584861D01*
D11*
X88659673Y-67537219D02*
X88659673Y-66537219D01*
X88659673Y-66537219D02*
X89040625Y-66537219D01*
X89040625Y-66537219D02*
X89135863Y-66584838D01*
X89135863Y-66584838D02*
X89183482Y-66632457D01*
X89183482Y-66632457D02*
X89231101Y-66727695D01*
X89231101Y-66727695D02*
X89231101Y-66870552D01*
X89231101Y-66870552D02*
X89183482Y-66965790D01*
X89183482Y-66965790D02*
X89135863Y-67013409D01*
X89135863Y-67013409D02*
X89040625Y-67061028D01*
X89040625Y-67061028D02*
X88659673Y-67061028D01*
X89802530Y-67537219D02*
X89707292Y-67489600D01*
X89707292Y-67489600D02*
X89659673Y-67441980D01*
X89659673Y-67441980D02*
X89612054Y-67346742D01*
X89612054Y-67346742D02*
X89612054Y-67061028D01*
X89612054Y-67061028D02*
X89659673Y-66965790D01*
X89659673Y-66965790D02*
X89707292Y-66918171D01*
X89707292Y-66918171D02*
X89802530Y-66870552D01*
X89802530Y-66870552D02*
X89945387Y-66870552D01*
X89945387Y-66870552D02*
X90040625Y-66918171D01*
X90040625Y-66918171D02*
X90088244Y-66965790D01*
X90088244Y-66965790D02*
X90135863Y-67061028D01*
X90135863Y-67061028D02*
X90135863Y-67346742D01*
X90135863Y-67346742D02*
X90088244Y-67441980D01*
X90088244Y-67441980D02*
X90040625Y-67489600D01*
X90040625Y-67489600D02*
X89945387Y-67537219D01*
X89945387Y-67537219D02*
X89802530Y-67537219D01*
X90469197Y-66870552D02*
X90659673Y-67537219D01*
X90659673Y-67537219D02*
X90850149Y-67061028D01*
X90850149Y-67061028D02*
X91040625Y-67537219D01*
X91040625Y-67537219D02*
X91231101Y-66870552D01*
X91993006Y-67489600D02*
X91897768Y-67537219D01*
X91897768Y-67537219D02*
X91707292Y-67537219D01*
X91707292Y-67537219D02*
X91612054Y-67489600D01*
X91612054Y-67489600D02*
X91564435Y-67394361D01*
X91564435Y-67394361D02*
X91564435Y-67013409D01*
X91564435Y-67013409D02*
X91612054Y-66918171D01*
X91612054Y-66918171D02*
X91707292Y-66870552D01*
X91707292Y-66870552D02*
X91897768Y-66870552D01*
X91897768Y-66870552D02*
X91993006Y-66918171D01*
X91993006Y-66918171D02*
X92040625Y-67013409D01*
X92040625Y-67013409D02*
X92040625Y-67108647D01*
X92040625Y-67108647D02*
X91564435Y-67203885D01*
X92469197Y-67537219D02*
X92469197Y-66870552D01*
X92469197Y-67061028D02*
X92516816Y-66965790D01*
X92516816Y-66965790D02*
X92564435Y-66918171D01*
X92564435Y-66918171D02*
X92659673Y-66870552D01*
X92659673Y-66870552D02*
X92754911Y-66870552D01*
X94373959Y-66584838D02*
X94278721Y-66537219D01*
X94278721Y-66537219D02*
X94135864Y-66537219D01*
X94135864Y-66537219D02*
X93993007Y-66584838D01*
X93993007Y-66584838D02*
X93897769Y-66680076D01*
X93897769Y-66680076D02*
X93850150Y-66775314D01*
X93850150Y-66775314D02*
X93802531Y-66965790D01*
X93802531Y-66965790D02*
X93802531Y-67108647D01*
X93802531Y-67108647D02*
X93850150Y-67299123D01*
X93850150Y-67299123D02*
X93897769Y-67394361D01*
X93897769Y-67394361D02*
X93993007Y-67489600D01*
X93993007Y-67489600D02*
X94135864Y-67537219D01*
X94135864Y-67537219D02*
X94231102Y-67537219D01*
X94231102Y-67537219D02*
X94373959Y-67489600D01*
X94373959Y-67489600D02*
X94421578Y-67441980D01*
X94421578Y-67441980D02*
X94421578Y-67108647D01*
X94421578Y-67108647D02*
X94231102Y-67108647D01*
X94993007Y-67537219D02*
X94897769Y-67489600D01*
X94897769Y-67489600D02*
X94850150Y-67394361D01*
X94850150Y-67394361D02*
X94850150Y-66537219D01*
X95373960Y-67537219D02*
X95373960Y-66870552D01*
X95373960Y-66537219D02*
X95326341Y-66584838D01*
X95326341Y-66584838D02*
X95373960Y-66632457D01*
X95373960Y-66632457D02*
X95421579Y-66584838D01*
X95421579Y-66584838D02*
X95373960Y-66537219D01*
X95373960Y-66537219D02*
X95373960Y-66632457D01*
X95707293Y-66870552D02*
X96088245Y-66870552D01*
X95850150Y-66537219D02*
X95850150Y-67394361D01*
X95850150Y-67394361D02*
X95897769Y-67489600D01*
X95897769Y-67489600D02*
X95993007Y-67537219D01*
X95993007Y-67537219D02*
X96088245Y-67537219D01*
X96850150Y-67489600D02*
X96754912Y-67537219D01*
X96754912Y-67537219D02*
X96564436Y-67537219D01*
X96564436Y-67537219D02*
X96469198Y-67489600D01*
X96469198Y-67489600D02*
X96421579Y-67441980D01*
X96421579Y-67441980D02*
X96373960Y-67346742D01*
X96373960Y-67346742D02*
X96373960Y-67061028D01*
X96373960Y-67061028D02*
X96421579Y-66965790D01*
X96421579Y-66965790D02*
X96469198Y-66918171D01*
X96469198Y-66918171D02*
X96564436Y-66870552D01*
X96564436Y-66870552D02*
X96754912Y-66870552D01*
X96754912Y-66870552D02*
X96850150Y-66918171D01*
X97278722Y-67537219D02*
X97278722Y-66537219D01*
X97707293Y-67537219D02*
X97707293Y-67013409D01*
X97707293Y-67013409D02*
X97659674Y-66918171D01*
X97659674Y-66918171D02*
X97564436Y-66870552D01*
X97564436Y-66870552D02*
X97421579Y-66870552D01*
X97421579Y-66870552D02*
X97326341Y-66918171D01*
X97326341Y-66918171D02*
X97278722Y-66965790D01*
X98564436Y-67489600D02*
X98469198Y-67537219D01*
X98469198Y-67537219D02*
X98278722Y-67537219D01*
X98278722Y-67537219D02*
X98183484Y-67489600D01*
X98183484Y-67489600D02*
X98135865Y-67394361D01*
X98135865Y-67394361D02*
X98135865Y-67013409D01*
X98135865Y-67013409D02*
X98183484Y-66918171D01*
X98183484Y-66918171D02*
X98278722Y-66870552D01*
X98278722Y-66870552D02*
X98469198Y-66870552D01*
X98469198Y-66870552D02*
X98564436Y-66918171D01*
X98564436Y-66918171D02*
X98612055Y-67013409D01*
X98612055Y-67013409D02*
X98612055Y-67108647D01*
X98612055Y-67108647D02*
X98135865Y-67203885D01*
X99040627Y-67537219D02*
X99040627Y-66870552D01*
X99040627Y-67061028D02*
X99088246Y-66965790D01*
X99088246Y-66965790D02*
X99135865Y-66918171D01*
X99135865Y-66918171D02*
X99231103Y-66870552D01*
X99231103Y-66870552D02*
X99326341Y-66870552D01*
X100326342Y-66870552D02*
X100564437Y-67537219D01*
X100564437Y-67537219D02*
X100802532Y-66870552D01*
X101707294Y-67537219D02*
X101135866Y-67537219D01*
X101421580Y-67537219D02*
X101421580Y-66537219D01*
X101421580Y-66537219D02*
X101326342Y-66680076D01*
X101326342Y-66680076D02*
X101231104Y-66775314D01*
X101231104Y-66775314D02*
X101135866Y-66822933D01*
X102135866Y-67441980D02*
X102183485Y-67489600D01*
X102183485Y-67489600D02*
X102135866Y-67537219D01*
X102135866Y-67537219D02*
X102088247Y-67489600D01*
X102088247Y-67489600D02*
X102135866Y-67441980D01*
X102135866Y-67441980D02*
X102135866Y-67537219D01*
X102802532Y-66537219D02*
X102897770Y-66537219D01*
X102897770Y-66537219D02*
X102993008Y-66584838D01*
X102993008Y-66584838D02*
X103040627Y-66632457D01*
X103040627Y-66632457D02*
X103088246Y-66727695D01*
X103088246Y-66727695D02*
X103135865Y-66918171D01*
X103135865Y-66918171D02*
X103135865Y-67156266D01*
X103135865Y-67156266D02*
X103088246Y-67346742D01*
X103088246Y-67346742D02*
X103040627Y-67441980D01*
X103040627Y-67441980D02*
X102993008Y-67489600D01*
X102993008Y-67489600D02*
X102897770Y-67537219D01*
X102897770Y-67537219D02*
X102802532Y-67537219D01*
X102802532Y-67537219D02*
X102707294Y-67489600D01*
X102707294Y-67489600D02*
X102659675Y-67441980D01*
X102659675Y-67441980D02*
X102612056Y-67346742D01*
X102612056Y-67346742D02*
X102564437Y-67156266D01*
X102564437Y-67156266D02*
X102564437Y-66918171D01*
X102564437Y-66918171D02*
X102612056Y-66727695D01*
X102612056Y-66727695D02*
X102659675Y-66632457D01*
X102659675Y-66632457D02*
X102707294Y-66584838D01*
X102707294Y-66584838D02*
X102802532Y-66537219D01*
D12*
X102214466Y-69914419D02*
X102214466Y-70628704D01*
X102214466Y-70628704D02*
X102166847Y-70771561D01*
X102166847Y-70771561D02*
X102071609Y-70866800D01*
X102071609Y-70866800D02*
X101928752Y-70914419D01*
X101928752Y-70914419D02*
X101833514Y-70914419D01*
X102690657Y-70914419D02*
X102690657Y-69914419D01*
X102690657Y-69914419D02*
X103071609Y-69914419D01*
X103071609Y-69914419D02*
X103166847Y-69962038D01*
X103166847Y-69962038D02*
X103214466Y-70009657D01*
X103214466Y-70009657D02*
X103262085Y-70104895D01*
X103262085Y-70104895D02*
X103262085Y-70247752D01*
X103262085Y-70247752D02*
X103214466Y-70342990D01*
X103214466Y-70342990D02*
X103166847Y-70390609D01*
X103166847Y-70390609D02*
X103071609Y-70438228D01*
X103071609Y-70438228D02*
X102690657Y-70438228D01*
X104214466Y-70914419D02*
X103643038Y-70914419D01*
X103928752Y-70914419D02*
X103928752Y-69914419D01*
X103928752Y-69914419D02*
X103833514Y-70057276D01*
X103833514Y-70057276D02*
X103738276Y-70152514D01*
X103738276Y-70152514D02*
X103643038Y-70200133D01*
X108734266Y-70803419D02*
X108734266Y-71517704D01*
X108734266Y-71517704D02*
X108686647Y-71660561D01*
X108686647Y-71660561D02*
X108591409Y-71755800D01*
X108591409Y-71755800D02*
X108448552Y-71803419D01*
X108448552Y-71803419D02*
X108353314Y-71803419D01*
X109686647Y-70803419D02*
X109210457Y-70803419D01*
X109210457Y-70803419D02*
X109162838Y-71279609D01*
X109162838Y-71279609D02*
X109210457Y-71231990D01*
X109210457Y-71231990D02*
X109305695Y-71184371D01*
X109305695Y-71184371D02*
X109543790Y-71184371D01*
X109543790Y-71184371D02*
X109639028Y-71231990D01*
X109639028Y-71231990D02*
X109686647Y-71279609D01*
X109686647Y-71279609D02*
X109734266Y-71374847D01*
X109734266Y-71374847D02*
X109734266Y-71612942D01*
X109734266Y-71612942D02*
X109686647Y-71708180D01*
X109686647Y-71708180D02*
X109639028Y-71755800D01*
X109639028Y-71755800D02*
X109543790Y-71803419D01*
X109543790Y-71803419D02*
X109305695Y-71803419D01*
X109305695Y-71803419D02*
X109210457Y-71755800D01*
X109210457Y-71755800D02*
X109162838Y-71708180D01*
X118013105Y-64970819D02*
X118013105Y-63970819D01*
X118013105Y-63970819D02*
X118251200Y-63970819D01*
X118251200Y-63970819D02*
X118394057Y-64018438D01*
X118394057Y-64018438D02*
X118489295Y-64113676D01*
X118489295Y-64113676D02*
X118536914Y-64208914D01*
X118536914Y-64208914D02*
X118584533Y-64399390D01*
X118584533Y-64399390D02*
X118584533Y-64542247D01*
X118584533Y-64542247D02*
X118536914Y-64732723D01*
X118536914Y-64732723D02*
X118489295Y-64827961D01*
X118489295Y-64827961D02*
X118394057Y-64923200D01*
X118394057Y-64923200D02*
X118251200Y-64970819D01*
X118251200Y-64970819D02*
X118013105Y-64970819D01*
X118917867Y-63970819D02*
X119536914Y-63970819D01*
X119536914Y-63970819D02*
X119203581Y-64351771D01*
X119203581Y-64351771D02*
X119346438Y-64351771D01*
X119346438Y-64351771D02*
X119441676Y-64399390D01*
X119441676Y-64399390D02*
X119489295Y-64447009D01*
X119489295Y-64447009D02*
X119536914Y-64542247D01*
X119536914Y-64542247D02*
X119536914Y-64780342D01*
X119536914Y-64780342D02*
X119489295Y-64875580D01*
X119489295Y-64875580D02*
X119441676Y-64923200D01*
X119441676Y-64923200D02*
X119346438Y-64970819D01*
X119346438Y-64970819D02*
X119060724Y-64970819D01*
X119060724Y-64970819D02*
X118965486Y-64923200D01*
X118965486Y-64923200D02*
X118917867Y-64875580D01*
X112776666Y-87103819D02*
X112776666Y-87818104D01*
X112776666Y-87818104D02*
X112729047Y-87960961D01*
X112729047Y-87960961D02*
X112633809Y-88056200D01*
X112633809Y-88056200D02*
X112490952Y-88103819D01*
X112490952Y-88103819D02*
X112395714Y-88103819D01*
X113252857Y-88103819D02*
X113252857Y-87103819D01*
X113252857Y-87103819D02*
X113633809Y-87103819D01*
X113633809Y-87103819D02*
X113729047Y-87151438D01*
X113729047Y-87151438D02*
X113776666Y-87199057D01*
X113776666Y-87199057D02*
X113824285Y-87294295D01*
X113824285Y-87294295D02*
X113824285Y-87437152D01*
X113824285Y-87437152D02*
X113776666Y-87532390D01*
X113776666Y-87532390D02*
X113729047Y-87580009D01*
X113729047Y-87580009D02*
X113633809Y-87627628D01*
X113633809Y-87627628D02*
X113252857Y-87627628D01*
X114205238Y-87199057D02*
X114252857Y-87151438D01*
X114252857Y-87151438D02*
X114348095Y-87103819D01*
X114348095Y-87103819D02*
X114586190Y-87103819D01*
X114586190Y-87103819D02*
X114681428Y-87151438D01*
X114681428Y-87151438D02*
X114729047Y-87199057D01*
X114729047Y-87199057D02*
X114776666Y-87294295D01*
X114776666Y-87294295D02*
X114776666Y-87389533D01*
X114776666Y-87389533D02*
X114729047Y-87532390D01*
X114729047Y-87532390D02*
X114157619Y-88103819D01*
X114157619Y-88103819D02*
X114776666Y-88103819D01*
X109815333Y-68628419D02*
X109339143Y-68628419D01*
X109339143Y-68628419D02*
X109339143Y-67628419D01*
X110672476Y-68628419D02*
X110101048Y-68628419D01*
X110386762Y-68628419D02*
X110386762Y-67628419D01*
X110386762Y-67628419D02*
X110291524Y-67771276D01*
X110291524Y-67771276D02*
X110196286Y-67866514D01*
X110196286Y-67866514D02*
X110101048Y-67914133D01*
X121000142Y-55467819D02*
X120666809Y-54991628D01*
X120428714Y-55467819D02*
X120428714Y-54467819D01*
X120428714Y-54467819D02*
X120809666Y-54467819D01*
X120809666Y-54467819D02*
X120904904Y-54515438D01*
X120904904Y-54515438D02*
X120952523Y-54563057D01*
X120952523Y-54563057D02*
X121000142Y-54658295D01*
X121000142Y-54658295D02*
X121000142Y-54801152D01*
X121000142Y-54801152D02*
X120952523Y-54896390D01*
X120952523Y-54896390D02*
X120904904Y-54944009D01*
X120904904Y-54944009D02*
X120809666Y-54991628D01*
X120809666Y-54991628D02*
X120428714Y-54991628D01*
X121381095Y-54563057D02*
X121428714Y-54515438D01*
X121428714Y-54515438D02*
X121523952Y-54467819D01*
X121523952Y-54467819D02*
X121762047Y-54467819D01*
X121762047Y-54467819D02*
X121857285Y-54515438D01*
X121857285Y-54515438D02*
X121904904Y-54563057D01*
X121904904Y-54563057D02*
X121952523Y-54658295D01*
X121952523Y-54658295D02*
X121952523Y-54753533D01*
X121952523Y-54753533D02*
X121904904Y-54896390D01*
X121904904Y-54896390D02*
X121333476Y-55467819D01*
X121333476Y-55467819D02*
X121952523Y-55467819D01*
X122904904Y-55467819D02*
X122333476Y-55467819D01*
X122619190Y-55467819D02*
X122619190Y-54467819D01*
X122619190Y-54467819D02*
X122523952Y-54610676D01*
X122523952Y-54610676D02*
X122428714Y-54705914D01*
X122428714Y-54705914D02*
X122333476Y-54753533D01*
X99255342Y-72180580D02*
X99207723Y-72228200D01*
X99207723Y-72228200D02*
X99064866Y-72275819D01*
X99064866Y-72275819D02*
X98969628Y-72275819D01*
X98969628Y-72275819D02*
X98826771Y-72228200D01*
X98826771Y-72228200D02*
X98731533Y-72132961D01*
X98731533Y-72132961D02*
X98683914Y-72037723D01*
X98683914Y-72037723D02*
X98636295Y-71847247D01*
X98636295Y-71847247D02*
X98636295Y-71704390D01*
X98636295Y-71704390D02*
X98683914Y-71513914D01*
X98683914Y-71513914D02*
X98731533Y-71418676D01*
X98731533Y-71418676D02*
X98826771Y-71323438D01*
X98826771Y-71323438D02*
X98969628Y-71275819D01*
X98969628Y-71275819D02*
X99064866Y-71275819D01*
X99064866Y-71275819D02*
X99207723Y-71323438D01*
X99207723Y-71323438D02*
X99255342Y-71371057D01*
X100207723Y-72275819D02*
X99636295Y-72275819D01*
X99922009Y-72275819D02*
X99922009Y-71275819D01*
X99922009Y-71275819D02*
X99826771Y-71418676D01*
X99826771Y-71418676D02*
X99731533Y-71513914D01*
X99731533Y-71513914D02*
X99636295Y-71561533D01*
X100541057Y-71275819D02*
X101207723Y-71275819D01*
X101207723Y-71275819D02*
X100779152Y-72275819D01*
X112471295Y-82741419D02*
X112471295Y-83550942D01*
X112471295Y-83550942D02*
X112518914Y-83646180D01*
X112518914Y-83646180D02*
X112566533Y-83693800D01*
X112566533Y-83693800D02*
X112661771Y-83741419D01*
X112661771Y-83741419D02*
X112852247Y-83741419D01*
X112852247Y-83741419D02*
X112947485Y-83693800D01*
X112947485Y-83693800D02*
X112995104Y-83646180D01*
X112995104Y-83646180D02*
X113042723Y-83550942D01*
X113042723Y-83550942D02*
X113042723Y-82741419D01*
X113471295Y-82836657D02*
X113518914Y-82789038D01*
X113518914Y-82789038D02*
X113614152Y-82741419D01*
X113614152Y-82741419D02*
X113852247Y-82741419D01*
X113852247Y-82741419D02*
X113947485Y-82789038D01*
X113947485Y-82789038D02*
X113995104Y-82836657D01*
X113995104Y-82836657D02*
X114042723Y-82931895D01*
X114042723Y-82931895D02*
X114042723Y-83027133D01*
X114042723Y-83027133D02*
X113995104Y-83169990D01*
X113995104Y-83169990D02*
X113423676Y-83741419D01*
X113423676Y-83741419D02*
X114042723Y-83741419D01*
X125524419Y-85713866D02*
X125048228Y-86047199D01*
X125524419Y-86285294D02*
X124524419Y-86285294D01*
X124524419Y-86285294D02*
X124524419Y-85904342D01*
X124524419Y-85904342D02*
X124572038Y-85809104D01*
X124572038Y-85809104D02*
X124619657Y-85761485D01*
X124619657Y-85761485D02*
X124714895Y-85713866D01*
X124714895Y-85713866D02*
X124857752Y-85713866D01*
X124857752Y-85713866D02*
X124952990Y-85761485D01*
X124952990Y-85761485D02*
X125000609Y-85809104D01*
X125000609Y-85809104D02*
X125048228Y-85904342D01*
X125048228Y-85904342D02*
X125048228Y-86285294D01*
X124619657Y-85332913D02*
X124572038Y-85285294D01*
X124572038Y-85285294D02*
X124524419Y-85190056D01*
X124524419Y-85190056D02*
X124524419Y-84951961D01*
X124524419Y-84951961D02*
X124572038Y-84856723D01*
X124572038Y-84856723D02*
X124619657Y-84809104D01*
X124619657Y-84809104D02*
X124714895Y-84761485D01*
X124714895Y-84761485D02*
X124810133Y-84761485D01*
X124810133Y-84761485D02*
X124952990Y-84809104D01*
X124952990Y-84809104D02*
X125524419Y-85380532D01*
X125524419Y-85380532D02*
X125524419Y-84761485D01*
X115948619Y-76207857D02*
X115472428Y-76541190D01*
X115948619Y-76779285D02*
X114948619Y-76779285D01*
X114948619Y-76779285D02*
X114948619Y-76398333D01*
X114948619Y-76398333D02*
X114996238Y-76303095D01*
X114996238Y-76303095D02*
X115043857Y-76255476D01*
X115043857Y-76255476D02*
X115139095Y-76207857D01*
X115139095Y-76207857D02*
X115281952Y-76207857D01*
X115281952Y-76207857D02*
X115377190Y-76255476D01*
X115377190Y-76255476D02*
X115424809Y-76303095D01*
X115424809Y-76303095D02*
X115472428Y-76398333D01*
X115472428Y-76398333D02*
X115472428Y-76779285D01*
X115948619Y-75255476D02*
X115948619Y-75826904D01*
X115948619Y-75541190D02*
X114948619Y-75541190D01*
X114948619Y-75541190D02*
X115091476Y-75636428D01*
X115091476Y-75636428D02*
X115186714Y-75731666D01*
X115186714Y-75731666D02*
X115234333Y-75826904D01*
X114948619Y-74398333D02*
X114948619Y-74588809D01*
X114948619Y-74588809D02*
X114996238Y-74684047D01*
X114996238Y-74684047D02*
X115043857Y-74731666D01*
X115043857Y-74731666D02*
X115186714Y-74826904D01*
X115186714Y-74826904D02*
X115377190Y-74874523D01*
X115377190Y-74874523D02*
X115758142Y-74874523D01*
X115758142Y-74874523D02*
X115853380Y-74826904D01*
X115853380Y-74826904D02*
X115901000Y-74779285D01*
X115901000Y-74779285D02*
X115948619Y-74684047D01*
X115948619Y-74684047D02*
X115948619Y-74493571D01*
X115948619Y-74493571D02*
X115901000Y-74398333D01*
X115901000Y-74398333D02*
X115853380Y-74350714D01*
X115853380Y-74350714D02*
X115758142Y-74303095D01*
X115758142Y-74303095D02*
X115520047Y-74303095D01*
X115520047Y-74303095D02*
X115424809Y-74350714D01*
X115424809Y-74350714D02*
X115377190Y-74398333D01*
X115377190Y-74398333D02*
X115329571Y-74493571D01*
X115329571Y-74493571D02*
X115329571Y-74684047D01*
X115329571Y-74684047D02*
X115377190Y-74779285D01*
X115377190Y-74779285D02*
X115424809Y-74826904D01*
X115424809Y-74826904D02*
X115520047Y-74874523D01*
X96536133Y-64646980D02*
X96488514Y-64694600D01*
X96488514Y-64694600D02*
X96345657Y-64742219D01*
X96345657Y-64742219D02*
X96250419Y-64742219D01*
X96250419Y-64742219D02*
X96107562Y-64694600D01*
X96107562Y-64694600D02*
X96012324Y-64599361D01*
X96012324Y-64599361D02*
X95964705Y-64504123D01*
X95964705Y-64504123D02*
X95917086Y-64313647D01*
X95917086Y-64313647D02*
X95917086Y-64170790D01*
X95917086Y-64170790D02*
X95964705Y-63980314D01*
X95964705Y-63980314D02*
X96012324Y-63885076D01*
X96012324Y-63885076D02*
X96107562Y-63789838D01*
X96107562Y-63789838D02*
X96250419Y-63742219D01*
X96250419Y-63742219D02*
X96345657Y-63742219D01*
X96345657Y-63742219D02*
X96488514Y-63789838D01*
X96488514Y-63789838D02*
X96536133Y-63837457D01*
X97393276Y-63742219D02*
X97202800Y-63742219D01*
X97202800Y-63742219D02*
X97107562Y-63789838D01*
X97107562Y-63789838D02*
X97059943Y-63837457D01*
X97059943Y-63837457D02*
X96964705Y-63980314D01*
X96964705Y-63980314D02*
X96917086Y-64170790D01*
X96917086Y-64170790D02*
X96917086Y-64551742D01*
X96917086Y-64551742D02*
X96964705Y-64646980D01*
X96964705Y-64646980D02*
X97012324Y-64694600D01*
X97012324Y-64694600D02*
X97107562Y-64742219D01*
X97107562Y-64742219D02*
X97298038Y-64742219D01*
X97298038Y-64742219D02*
X97393276Y-64694600D01*
X97393276Y-64694600D02*
X97440895Y-64646980D01*
X97440895Y-64646980D02*
X97488514Y-64551742D01*
X97488514Y-64551742D02*
X97488514Y-64313647D01*
X97488514Y-64313647D02*
X97440895Y-64218409D01*
X97440895Y-64218409D02*
X97393276Y-64170790D01*
X97393276Y-64170790D02*
X97298038Y-64123171D01*
X97298038Y-64123171D02*
X97107562Y-64123171D01*
X97107562Y-64123171D02*
X97012324Y-64170790D01*
X97012324Y-64170790D02*
X96964705Y-64218409D01*
X96964705Y-64218409D02*
X96917086Y-64313647D01*
X121959019Y-65687533D02*
X122673304Y-65687533D01*
X122673304Y-65687533D02*
X122816161Y-65735152D01*
X122816161Y-65735152D02*
X122911400Y-65830390D01*
X122911400Y-65830390D02*
X122959019Y-65973247D01*
X122959019Y-65973247D02*
X122959019Y-66068485D01*
X122292352Y-64782771D02*
X122959019Y-64782771D01*
X121911400Y-65020866D02*
X122625685Y-65258961D01*
X122625685Y-65258961D02*
X122625685Y-64639914D01*
X123737142Y-55467819D02*
X123403809Y-54991628D01*
X123165714Y-55467819D02*
X123165714Y-54467819D01*
X123165714Y-54467819D02*
X123546666Y-54467819D01*
X123546666Y-54467819D02*
X123641904Y-54515438D01*
X123641904Y-54515438D02*
X123689523Y-54563057D01*
X123689523Y-54563057D02*
X123737142Y-54658295D01*
X123737142Y-54658295D02*
X123737142Y-54801152D01*
X123737142Y-54801152D02*
X123689523Y-54896390D01*
X123689523Y-54896390D02*
X123641904Y-54944009D01*
X123641904Y-54944009D02*
X123546666Y-54991628D01*
X123546666Y-54991628D02*
X123165714Y-54991628D01*
X124118095Y-54563057D02*
X124165714Y-54515438D01*
X124165714Y-54515438D02*
X124260952Y-54467819D01*
X124260952Y-54467819D02*
X124499047Y-54467819D01*
X124499047Y-54467819D02*
X124594285Y-54515438D01*
X124594285Y-54515438D02*
X124641904Y-54563057D01*
X124641904Y-54563057D02*
X124689523Y-54658295D01*
X124689523Y-54658295D02*
X124689523Y-54753533D01*
X124689523Y-54753533D02*
X124641904Y-54896390D01*
X124641904Y-54896390D02*
X124070476Y-55467819D01*
X124070476Y-55467819D02*
X124689523Y-55467819D01*
X125308571Y-54467819D02*
X125403809Y-54467819D01*
X125403809Y-54467819D02*
X125499047Y-54515438D01*
X125499047Y-54515438D02*
X125546666Y-54563057D01*
X125546666Y-54563057D02*
X125594285Y-54658295D01*
X125594285Y-54658295D02*
X125641904Y-54848771D01*
X125641904Y-54848771D02*
X125641904Y-55086866D01*
X125641904Y-55086866D02*
X125594285Y-55277342D01*
X125594285Y-55277342D02*
X125546666Y-55372580D01*
X125546666Y-55372580D02*
X125499047Y-55420200D01*
X125499047Y-55420200D02*
X125403809Y-55467819D01*
X125403809Y-55467819D02*
X125308571Y-55467819D01*
X125308571Y-55467819D02*
X125213333Y-55420200D01*
X125213333Y-55420200D02*
X125165714Y-55372580D01*
X125165714Y-55372580D02*
X125118095Y-55277342D01*
X125118095Y-55277342D02*
X125070476Y-55086866D01*
X125070476Y-55086866D02*
X125070476Y-54848771D01*
X125070476Y-54848771D02*
X125118095Y-54658295D01*
X125118095Y-54658295D02*
X125165714Y-54563057D01*
X125165714Y-54563057D02*
X125213333Y-54515438D01*
X125213333Y-54515438D02*
X125308571Y-54467819D01*
X110585833Y-92402819D02*
X110252500Y-91926628D01*
X110014405Y-92402819D02*
X110014405Y-91402819D01*
X110014405Y-91402819D02*
X110395357Y-91402819D01*
X110395357Y-91402819D02*
X110490595Y-91450438D01*
X110490595Y-91450438D02*
X110538214Y-91498057D01*
X110538214Y-91498057D02*
X110585833Y-91593295D01*
X110585833Y-91593295D02*
X110585833Y-91736152D01*
X110585833Y-91736152D02*
X110538214Y-91831390D01*
X110538214Y-91831390D02*
X110490595Y-91879009D01*
X110490595Y-91879009D02*
X110395357Y-91926628D01*
X110395357Y-91926628D02*
X110014405Y-91926628D01*
X111442976Y-91402819D02*
X111252500Y-91402819D01*
X111252500Y-91402819D02*
X111157262Y-91450438D01*
X111157262Y-91450438D02*
X111109643Y-91498057D01*
X111109643Y-91498057D02*
X111014405Y-91640914D01*
X111014405Y-91640914D02*
X110966786Y-91831390D01*
X110966786Y-91831390D02*
X110966786Y-92212342D01*
X110966786Y-92212342D02*
X111014405Y-92307580D01*
X111014405Y-92307580D02*
X111062024Y-92355200D01*
X111062024Y-92355200D02*
X111157262Y-92402819D01*
X111157262Y-92402819D02*
X111347738Y-92402819D01*
X111347738Y-92402819D02*
X111442976Y-92355200D01*
X111442976Y-92355200D02*
X111490595Y-92307580D01*
X111490595Y-92307580D02*
X111538214Y-92212342D01*
X111538214Y-92212342D02*
X111538214Y-91974247D01*
X111538214Y-91974247D02*
X111490595Y-91879009D01*
X111490595Y-91879009D02*
X111442976Y-91831390D01*
X111442976Y-91831390D02*
X111347738Y-91783771D01*
X111347738Y-91783771D02*
X111157262Y-91783771D01*
X111157262Y-91783771D02*
X111062024Y-91831390D01*
X111062024Y-91831390D02*
X111014405Y-91879009D01*
X111014405Y-91879009D02*
X110966786Y-91974247D01*
X101315119Y-84158057D02*
X100838928Y-84491390D01*
X101315119Y-84729485D02*
X100315119Y-84729485D01*
X100315119Y-84729485D02*
X100315119Y-84348533D01*
X100315119Y-84348533D02*
X100362738Y-84253295D01*
X100362738Y-84253295D02*
X100410357Y-84205676D01*
X100410357Y-84205676D02*
X100505595Y-84158057D01*
X100505595Y-84158057D02*
X100648452Y-84158057D01*
X100648452Y-84158057D02*
X100743690Y-84205676D01*
X100743690Y-84205676D02*
X100791309Y-84253295D01*
X100791309Y-84253295D02*
X100838928Y-84348533D01*
X100838928Y-84348533D02*
X100838928Y-84729485D01*
X101315119Y-83205676D02*
X101315119Y-83777104D01*
X101315119Y-83491390D02*
X100315119Y-83491390D01*
X100315119Y-83491390D02*
X100457976Y-83586628D01*
X100457976Y-83586628D02*
X100553214Y-83681866D01*
X100553214Y-83681866D02*
X100600833Y-83777104D01*
X100315119Y-82300914D02*
X100315119Y-82777104D01*
X100315119Y-82777104D02*
X100791309Y-82824723D01*
X100791309Y-82824723D02*
X100743690Y-82777104D01*
X100743690Y-82777104D02*
X100696071Y-82681866D01*
X100696071Y-82681866D02*
X100696071Y-82443771D01*
X100696071Y-82443771D02*
X100743690Y-82348533D01*
X100743690Y-82348533D02*
X100791309Y-82300914D01*
X100791309Y-82300914D02*
X100886547Y-82253295D01*
X100886547Y-82253295D02*
X101124642Y-82253295D01*
X101124642Y-82253295D02*
X101219880Y-82300914D01*
X101219880Y-82300914D02*
X101267500Y-82348533D01*
X101267500Y-82348533D02*
X101315119Y-82443771D01*
X101315119Y-82443771D02*
X101315119Y-82681866D01*
X101315119Y-82681866D02*
X101267500Y-82777104D01*
X101267500Y-82777104D02*
X101219880Y-82824723D01*
X93980095Y-86272019D02*
X93980095Y-87081542D01*
X93980095Y-87081542D02*
X94027714Y-87176780D01*
X94027714Y-87176780D02*
X94075333Y-87224400D01*
X94075333Y-87224400D02*
X94170571Y-87272019D01*
X94170571Y-87272019D02*
X94361047Y-87272019D01*
X94361047Y-87272019D02*
X94456285Y-87224400D01*
X94456285Y-87224400D02*
X94503904Y-87176780D01*
X94503904Y-87176780D02*
X94551523Y-87081542D01*
X94551523Y-87081542D02*
X94551523Y-86272019D01*
X94932476Y-86272019D02*
X95551523Y-86272019D01*
X95551523Y-86272019D02*
X95218190Y-86652971D01*
X95218190Y-86652971D02*
X95361047Y-86652971D01*
X95361047Y-86652971D02*
X95456285Y-86700590D01*
X95456285Y-86700590D02*
X95503904Y-86748209D01*
X95503904Y-86748209D02*
X95551523Y-86843447D01*
X95551523Y-86843447D02*
X95551523Y-87081542D01*
X95551523Y-87081542D02*
X95503904Y-87176780D01*
X95503904Y-87176780D02*
X95456285Y-87224400D01*
X95456285Y-87224400D02*
X95361047Y-87272019D01*
X95361047Y-87272019D02*
X95075333Y-87272019D01*
X95075333Y-87272019D02*
X94980095Y-87224400D01*
X94980095Y-87224400D02*
X94932476Y-87176780D01*
X102455742Y-79171319D02*
X102122409Y-78695128D01*
X101884314Y-79171319D02*
X101884314Y-78171319D01*
X101884314Y-78171319D02*
X102265266Y-78171319D01*
X102265266Y-78171319D02*
X102360504Y-78218938D01*
X102360504Y-78218938D02*
X102408123Y-78266557D01*
X102408123Y-78266557D02*
X102455742Y-78361795D01*
X102455742Y-78361795D02*
X102455742Y-78504652D01*
X102455742Y-78504652D02*
X102408123Y-78599890D01*
X102408123Y-78599890D02*
X102360504Y-78647509D01*
X102360504Y-78647509D02*
X102265266Y-78695128D01*
X102265266Y-78695128D02*
X101884314Y-78695128D01*
X103408123Y-79171319D02*
X102836695Y-79171319D01*
X103122409Y-79171319D02*
X103122409Y-78171319D01*
X103122409Y-78171319D02*
X103027171Y-78314176D01*
X103027171Y-78314176D02*
X102931933Y-78409414D01*
X102931933Y-78409414D02*
X102836695Y-78457033D01*
X104027171Y-78171319D02*
X104122409Y-78171319D01*
X104122409Y-78171319D02*
X104217647Y-78218938D01*
X104217647Y-78218938D02*
X104265266Y-78266557D01*
X104265266Y-78266557D02*
X104312885Y-78361795D01*
X104312885Y-78361795D02*
X104360504Y-78552271D01*
X104360504Y-78552271D02*
X104360504Y-78790366D01*
X104360504Y-78790366D02*
X104312885Y-78980842D01*
X104312885Y-78980842D02*
X104265266Y-79076080D01*
X104265266Y-79076080D02*
X104217647Y-79123700D01*
X104217647Y-79123700D02*
X104122409Y-79171319D01*
X104122409Y-79171319D02*
X104027171Y-79171319D01*
X104027171Y-79171319D02*
X103931933Y-79123700D01*
X103931933Y-79123700D02*
X103884314Y-79076080D01*
X103884314Y-79076080D02*
X103836695Y-78980842D01*
X103836695Y-78980842D02*
X103789076Y-78790366D01*
X103789076Y-78790366D02*
X103789076Y-78552271D01*
X103789076Y-78552271D02*
X103836695Y-78361795D01*
X103836695Y-78361795D02*
X103884314Y-78266557D01*
X103884314Y-78266557D02*
X103931933Y-78218938D01*
X103931933Y-78218938D02*
X104027171Y-78171319D01*
X116244819Y-86512857D02*
X115768628Y-86846190D01*
X116244819Y-87084285D02*
X115244819Y-87084285D01*
X115244819Y-87084285D02*
X115244819Y-86703333D01*
X115244819Y-86703333D02*
X115292438Y-86608095D01*
X115292438Y-86608095D02*
X115340057Y-86560476D01*
X115340057Y-86560476D02*
X115435295Y-86512857D01*
X115435295Y-86512857D02*
X115578152Y-86512857D01*
X115578152Y-86512857D02*
X115673390Y-86560476D01*
X115673390Y-86560476D02*
X115721009Y-86608095D01*
X115721009Y-86608095D02*
X115768628Y-86703333D01*
X115768628Y-86703333D02*
X115768628Y-87084285D01*
X116244819Y-85560476D02*
X116244819Y-86131904D01*
X116244819Y-85846190D02*
X115244819Y-85846190D01*
X115244819Y-85846190D02*
X115387676Y-85941428D01*
X115387676Y-85941428D02*
X115482914Y-86036666D01*
X115482914Y-86036666D02*
X115530533Y-86131904D01*
X115673390Y-84989047D02*
X115625771Y-85084285D01*
X115625771Y-85084285D02*
X115578152Y-85131904D01*
X115578152Y-85131904D02*
X115482914Y-85179523D01*
X115482914Y-85179523D02*
X115435295Y-85179523D01*
X115435295Y-85179523D02*
X115340057Y-85131904D01*
X115340057Y-85131904D02*
X115292438Y-85084285D01*
X115292438Y-85084285D02*
X115244819Y-84989047D01*
X115244819Y-84989047D02*
X115244819Y-84798571D01*
X115244819Y-84798571D02*
X115292438Y-84703333D01*
X115292438Y-84703333D02*
X115340057Y-84655714D01*
X115340057Y-84655714D02*
X115435295Y-84608095D01*
X115435295Y-84608095D02*
X115482914Y-84608095D01*
X115482914Y-84608095D02*
X115578152Y-84655714D01*
X115578152Y-84655714D02*
X115625771Y-84703333D01*
X115625771Y-84703333D02*
X115673390Y-84798571D01*
X115673390Y-84798571D02*
X115673390Y-84989047D01*
X115673390Y-84989047D02*
X115721009Y-85084285D01*
X115721009Y-85084285D02*
X115768628Y-85131904D01*
X115768628Y-85131904D02*
X115863866Y-85179523D01*
X115863866Y-85179523D02*
X116054342Y-85179523D01*
X116054342Y-85179523D02*
X116149580Y-85131904D01*
X116149580Y-85131904D02*
X116197200Y-85084285D01*
X116197200Y-85084285D02*
X116244819Y-84989047D01*
X116244819Y-84989047D02*
X116244819Y-84798571D01*
X116244819Y-84798571D02*
X116197200Y-84703333D01*
X116197200Y-84703333D02*
X116149580Y-84655714D01*
X116149580Y-84655714D02*
X116054342Y-84608095D01*
X116054342Y-84608095D02*
X115863866Y-84608095D01*
X115863866Y-84608095D02*
X115768628Y-84655714D01*
X115768628Y-84655714D02*
X115721009Y-84703333D01*
X115721009Y-84703333D02*
X115673390Y-84798571D01*
X101243580Y-81236666D02*
X101291200Y-81284285D01*
X101291200Y-81284285D02*
X101338819Y-81427142D01*
X101338819Y-81427142D02*
X101338819Y-81522380D01*
X101338819Y-81522380D02*
X101291200Y-81665237D01*
X101291200Y-81665237D02*
X101195961Y-81760475D01*
X101195961Y-81760475D02*
X101100723Y-81808094D01*
X101100723Y-81808094D02*
X100910247Y-81855713D01*
X100910247Y-81855713D02*
X100767390Y-81855713D01*
X100767390Y-81855713D02*
X100576914Y-81808094D01*
X100576914Y-81808094D02*
X100481676Y-81760475D01*
X100481676Y-81760475D02*
X100386438Y-81665237D01*
X100386438Y-81665237D02*
X100338819Y-81522380D01*
X100338819Y-81522380D02*
X100338819Y-81427142D01*
X100338819Y-81427142D02*
X100386438Y-81284285D01*
X100386438Y-81284285D02*
X100434057Y-81236666D01*
X100434057Y-80855713D02*
X100386438Y-80808094D01*
X100386438Y-80808094D02*
X100338819Y-80712856D01*
X100338819Y-80712856D02*
X100338819Y-80474761D01*
X100338819Y-80474761D02*
X100386438Y-80379523D01*
X100386438Y-80379523D02*
X100434057Y-80331904D01*
X100434057Y-80331904D02*
X100529295Y-80284285D01*
X100529295Y-80284285D02*
X100624533Y-80284285D01*
X100624533Y-80284285D02*
X100767390Y-80331904D01*
X100767390Y-80331904D02*
X101338819Y-80903332D01*
X101338819Y-80903332D02*
X101338819Y-80284285D01*
X90873342Y-92606019D02*
X90540009Y-92129828D01*
X90301914Y-92606019D02*
X90301914Y-91606019D01*
X90301914Y-91606019D02*
X90682866Y-91606019D01*
X90682866Y-91606019D02*
X90778104Y-91653638D01*
X90778104Y-91653638D02*
X90825723Y-91701257D01*
X90825723Y-91701257D02*
X90873342Y-91796495D01*
X90873342Y-91796495D02*
X90873342Y-91939352D01*
X90873342Y-91939352D02*
X90825723Y-92034590D01*
X90825723Y-92034590D02*
X90778104Y-92082209D01*
X90778104Y-92082209D02*
X90682866Y-92129828D01*
X90682866Y-92129828D02*
X90301914Y-92129828D01*
X91825723Y-92606019D02*
X91254295Y-92606019D01*
X91540009Y-92606019D02*
X91540009Y-91606019D01*
X91540009Y-91606019D02*
X91444771Y-91748876D01*
X91444771Y-91748876D02*
X91349533Y-91844114D01*
X91349533Y-91844114D02*
X91254295Y-91891733D01*
X92159057Y-91606019D02*
X92778104Y-91606019D01*
X92778104Y-91606019D02*
X92444771Y-91986971D01*
X92444771Y-91986971D02*
X92587628Y-91986971D01*
X92587628Y-91986971D02*
X92682866Y-92034590D01*
X92682866Y-92034590D02*
X92730485Y-92082209D01*
X92730485Y-92082209D02*
X92778104Y-92177447D01*
X92778104Y-92177447D02*
X92778104Y-92415542D01*
X92778104Y-92415542D02*
X92730485Y-92510780D01*
X92730485Y-92510780D02*
X92682866Y-92558400D01*
X92682866Y-92558400D02*
X92587628Y-92606019D01*
X92587628Y-92606019D02*
X92301914Y-92606019D01*
X92301914Y-92606019D02*
X92206676Y-92558400D01*
X92206676Y-92558400D02*
X92159057Y-92510780D01*
X101058742Y-91285219D02*
X100725409Y-90809028D01*
X100487314Y-91285219D02*
X100487314Y-90285219D01*
X100487314Y-90285219D02*
X100868266Y-90285219D01*
X100868266Y-90285219D02*
X100963504Y-90332838D01*
X100963504Y-90332838D02*
X101011123Y-90380457D01*
X101011123Y-90380457D02*
X101058742Y-90475695D01*
X101058742Y-90475695D02*
X101058742Y-90618552D01*
X101058742Y-90618552D02*
X101011123Y-90713790D01*
X101011123Y-90713790D02*
X100963504Y-90761409D01*
X100963504Y-90761409D02*
X100868266Y-90809028D01*
X100868266Y-90809028D02*
X100487314Y-90809028D01*
X102011123Y-91285219D02*
X101439695Y-91285219D01*
X101725409Y-91285219D02*
X101725409Y-90285219D01*
X101725409Y-90285219D02*
X101630171Y-90428076D01*
X101630171Y-90428076D02*
X101534933Y-90523314D01*
X101534933Y-90523314D02*
X101439695Y-90570933D01*
X102392076Y-90380457D02*
X102439695Y-90332838D01*
X102439695Y-90332838D02*
X102534933Y-90285219D01*
X102534933Y-90285219D02*
X102773028Y-90285219D01*
X102773028Y-90285219D02*
X102868266Y-90332838D01*
X102868266Y-90332838D02*
X102915885Y-90380457D01*
X102915885Y-90380457D02*
X102963504Y-90475695D01*
X102963504Y-90475695D02*
X102963504Y-90570933D01*
X102963504Y-90570933D02*
X102915885Y-90713790D01*
X102915885Y-90713790D02*
X102344457Y-91285219D01*
X102344457Y-91285219D02*
X102963504Y-91285219D01*
X125624819Y-74686666D02*
X125148628Y-75019999D01*
X125624819Y-75258094D02*
X124624819Y-75258094D01*
X124624819Y-75258094D02*
X124624819Y-74877142D01*
X124624819Y-74877142D02*
X124672438Y-74781904D01*
X124672438Y-74781904D02*
X124720057Y-74734285D01*
X124720057Y-74734285D02*
X124815295Y-74686666D01*
X124815295Y-74686666D02*
X124958152Y-74686666D01*
X124958152Y-74686666D02*
X125053390Y-74734285D01*
X125053390Y-74734285D02*
X125101009Y-74781904D01*
X125101009Y-74781904D02*
X125148628Y-74877142D01*
X125148628Y-74877142D02*
X125148628Y-75258094D01*
X124624819Y-74353332D02*
X124624819Y-73734285D01*
X124624819Y-73734285D02*
X125005771Y-74067618D01*
X125005771Y-74067618D02*
X125005771Y-73924761D01*
X125005771Y-73924761D02*
X125053390Y-73829523D01*
X125053390Y-73829523D02*
X125101009Y-73781904D01*
X125101009Y-73781904D02*
X125196247Y-73734285D01*
X125196247Y-73734285D02*
X125434342Y-73734285D01*
X125434342Y-73734285D02*
X125529580Y-73781904D01*
X125529580Y-73781904D02*
X125577200Y-73829523D01*
X125577200Y-73829523D02*
X125624819Y-73924761D01*
X125624819Y-73924761D02*
X125624819Y-74210475D01*
X125624819Y-74210475D02*
X125577200Y-74305713D01*
X125577200Y-74305713D02*
X125529580Y-74353332D01*
X89068095Y-73724819D02*
X89068095Y-74534342D01*
X89068095Y-74534342D02*
X89115714Y-74629580D01*
X89115714Y-74629580D02*
X89163333Y-74677200D01*
X89163333Y-74677200D02*
X89258571Y-74724819D01*
X89258571Y-74724819D02*
X89449047Y-74724819D01*
X89449047Y-74724819D02*
X89544285Y-74677200D01*
X89544285Y-74677200D02*
X89591904Y-74629580D01*
X89591904Y-74629580D02*
X89639523Y-74534342D01*
X89639523Y-74534342D02*
X89639523Y-73724819D01*
X90639523Y-74724819D02*
X90068095Y-74724819D01*
X90353809Y-74724819D02*
X90353809Y-73724819D01*
X90353809Y-73724819D02*
X90258571Y-73867676D01*
X90258571Y-73867676D02*
X90163333Y-73962914D01*
X90163333Y-73962914D02*
X90068095Y-74010533D01*
X109394666Y-55842819D02*
X109394666Y-56557104D01*
X109394666Y-56557104D02*
X109347047Y-56699961D01*
X109347047Y-56699961D02*
X109251809Y-56795200D01*
X109251809Y-56795200D02*
X109108952Y-56842819D01*
X109108952Y-56842819D02*
X109013714Y-56842819D01*
X109775619Y-55842819D02*
X110394666Y-55842819D01*
X110394666Y-55842819D02*
X110061333Y-56223771D01*
X110061333Y-56223771D02*
X110204190Y-56223771D01*
X110204190Y-56223771D02*
X110299428Y-56271390D01*
X110299428Y-56271390D02*
X110347047Y-56319009D01*
X110347047Y-56319009D02*
X110394666Y-56414247D01*
X110394666Y-56414247D02*
X110394666Y-56652342D01*
X110394666Y-56652342D02*
X110347047Y-56747580D01*
X110347047Y-56747580D02*
X110299428Y-56795200D01*
X110299428Y-56795200D02*
X110204190Y-56842819D01*
X110204190Y-56842819D02*
X109918476Y-56842819D01*
X109918476Y-56842819D02*
X109823238Y-56795200D01*
X109823238Y-56795200D02*
X109775619Y-56747580D01*
X105522733Y-74341519D02*
X105189400Y-73865328D01*
X104951305Y-74341519D02*
X104951305Y-73341519D01*
X104951305Y-73341519D02*
X105332257Y-73341519D01*
X105332257Y-73341519D02*
X105427495Y-73389138D01*
X105427495Y-73389138D02*
X105475114Y-73436757D01*
X105475114Y-73436757D02*
X105522733Y-73531995D01*
X105522733Y-73531995D02*
X105522733Y-73674852D01*
X105522733Y-73674852D02*
X105475114Y-73770090D01*
X105475114Y-73770090D02*
X105427495Y-73817709D01*
X105427495Y-73817709D02*
X105332257Y-73865328D01*
X105332257Y-73865328D02*
X104951305Y-73865328D01*
X106094162Y-73770090D02*
X105998924Y-73722471D01*
X105998924Y-73722471D02*
X105951305Y-73674852D01*
X105951305Y-73674852D02*
X105903686Y-73579614D01*
X105903686Y-73579614D02*
X105903686Y-73531995D01*
X105903686Y-73531995D02*
X105951305Y-73436757D01*
X105951305Y-73436757D02*
X105998924Y-73389138D01*
X105998924Y-73389138D02*
X106094162Y-73341519D01*
X106094162Y-73341519D02*
X106284638Y-73341519D01*
X106284638Y-73341519D02*
X106379876Y-73389138D01*
X106379876Y-73389138D02*
X106427495Y-73436757D01*
X106427495Y-73436757D02*
X106475114Y-73531995D01*
X106475114Y-73531995D02*
X106475114Y-73579614D01*
X106475114Y-73579614D02*
X106427495Y-73674852D01*
X106427495Y-73674852D02*
X106379876Y-73722471D01*
X106379876Y-73722471D02*
X106284638Y-73770090D01*
X106284638Y-73770090D02*
X106094162Y-73770090D01*
X106094162Y-73770090D02*
X105998924Y-73817709D01*
X105998924Y-73817709D02*
X105951305Y-73865328D01*
X105951305Y-73865328D02*
X105903686Y-73960566D01*
X105903686Y-73960566D02*
X105903686Y-74151042D01*
X105903686Y-74151042D02*
X105951305Y-74246280D01*
X105951305Y-74246280D02*
X105998924Y-74293900D01*
X105998924Y-74293900D02*
X106094162Y-74341519D01*
X106094162Y-74341519D02*
X106284638Y-74341519D01*
X106284638Y-74341519D02*
X106379876Y-74293900D01*
X106379876Y-74293900D02*
X106427495Y-74246280D01*
X106427495Y-74246280D02*
X106475114Y-74151042D01*
X106475114Y-74151042D02*
X106475114Y-73960566D01*
X106475114Y-73960566D02*
X106427495Y-73865328D01*
X106427495Y-73865328D02*
X106379876Y-73817709D01*
X106379876Y-73817709D02*
X106284638Y-73770090D01*
X111717142Y-55474819D02*
X111383809Y-54998628D01*
X111145714Y-55474819D02*
X111145714Y-54474819D01*
X111145714Y-54474819D02*
X111526666Y-54474819D01*
X111526666Y-54474819D02*
X111621904Y-54522438D01*
X111621904Y-54522438D02*
X111669523Y-54570057D01*
X111669523Y-54570057D02*
X111717142Y-54665295D01*
X111717142Y-54665295D02*
X111717142Y-54808152D01*
X111717142Y-54808152D02*
X111669523Y-54903390D01*
X111669523Y-54903390D02*
X111621904Y-54951009D01*
X111621904Y-54951009D02*
X111526666Y-54998628D01*
X111526666Y-54998628D02*
X111145714Y-54998628D01*
X112098095Y-54570057D02*
X112145714Y-54522438D01*
X112145714Y-54522438D02*
X112240952Y-54474819D01*
X112240952Y-54474819D02*
X112479047Y-54474819D01*
X112479047Y-54474819D02*
X112574285Y-54522438D01*
X112574285Y-54522438D02*
X112621904Y-54570057D01*
X112621904Y-54570057D02*
X112669523Y-54665295D01*
X112669523Y-54665295D02*
X112669523Y-54760533D01*
X112669523Y-54760533D02*
X112621904Y-54903390D01*
X112621904Y-54903390D02*
X112050476Y-55474819D01*
X112050476Y-55474819D02*
X112669523Y-55474819D01*
X113050476Y-54570057D02*
X113098095Y-54522438D01*
X113098095Y-54522438D02*
X113193333Y-54474819D01*
X113193333Y-54474819D02*
X113431428Y-54474819D01*
X113431428Y-54474819D02*
X113526666Y-54522438D01*
X113526666Y-54522438D02*
X113574285Y-54570057D01*
X113574285Y-54570057D02*
X113621904Y-54665295D01*
X113621904Y-54665295D02*
X113621904Y-54760533D01*
X113621904Y-54760533D02*
X113574285Y-54903390D01*
X113574285Y-54903390D02*
X113002857Y-55474819D01*
X113002857Y-55474819D02*
X113621904Y-55474819D01*
X116111219Y-83802457D02*
X115635028Y-84135790D01*
X116111219Y-84373885D02*
X115111219Y-84373885D01*
X115111219Y-84373885D02*
X115111219Y-83992933D01*
X115111219Y-83992933D02*
X115158838Y-83897695D01*
X115158838Y-83897695D02*
X115206457Y-83850076D01*
X115206457Y-83850076D02*
X115301695Y-83802457D01*
X115301695Y-83802457D02*
X115444552Y-83802457D01*
X115444552Y-83802457D02*
X115539790Y-83850076D01*
X115539790Y-83850076D02*
X115587409Y-83897695D01*
X115587409Y-83897695D02*
X115635028Y-83992933D01*
X115635028Y-83992933D02*
X115635028Y-84373885D01*
X116111219Y-82850076D02*
X116111219Y-83421504D01*
X116111219Y-83135790D02*
X115111219Y-83135790D01*
X115111219Y-83135790D02*
X115254076Y-83231028D01*
X115254076Y-83231028D02*
X115349314Y-83326266D01*
X115349314Y-83326266D02*
X115396933Y-83421504D01*
X116111219Y-82373885D02*
X116111219Y-82183409D01*
X116111219Y-82183409D02*
X116063600Y-82088171D01*
X116063600Y-82088171D02*
X116015980Y-82040552D01*
X116015980Y-82040552D02*
X115873123Y-81945314D01*
X115873123Y-81945314D02*
X115682647Y-81897695D01*
X115682647Y-81897695D02*
X115301695Y-81897695D01*
X115301695Y-81897695D02*
X115206457Y-81945314D01*
X115206457Y-81945314D02*
X115158838Y-81992933D01*
X115158838Y-81992933D02*
X115111219Y-82088171D01*
X115111219Y-82088171D02*
X115111219Y-82278647D01*
X115111219Y-82278647D02*
X115158838Y-82373885D01*
X115158838Y-82373885D02*
X115206457Y-82421504D01*
X115206457Y-82421504D02*
X115301695Y-82469123D01*
X115301695Y-82469123D02*
X115539790Y-82469123D01*
X115539790Y-82469123D02*
X115635028Y-82421504D01*
X115635028Y-82421504D02*
X115682647Y-82373885D01*
X115682647Y-82373885D02*
X115730266Y-82278647D01*
X115730266Y-82278647D02*
X115730266Y-82088171D01*
X115730266Y-82088171D02*
X115682647Y-81992933D01*
X115682647Y-81992933D02*
X115635028Y-81945314D01*
X115635028Y-81945314D02*
X115539790Y-81897695D01*
X116009619Y-78424066D02*
X115533428Y-78757399D01*
X116009619Y-78995494D02*
X115009619Y-78995494D01*
X115009619Y-78995494D02*
X115009619Y-78614542D01*
X115009619Y-78614542D02*
X115057238Y-78519304D01*
X115057238Y-78519304D02*
X115104857Y-78471685D01*
X115104857Y-78471685D02*
X115200095Y-78424066D01*
X115200095Y-78424066D02*
X115342952Y-78424066D01*
X115342952Y-78424066D02*
X115438190Y-78471685D01*
X115438190Y-78471685D02*
X115485809Y-78519304D01*
X115485809Y-78519304D02*
X115533428Y-78614542D01*
X115533428Y-78614542D02*
X115533428Y-78995494D01*
X115342952Y-77566923D02*
X116009619Y-77566923D01*
X114962000Y-77805018D02*
X115676285Y-78043113D01*
X115676285Y-78043113D02*
X115676285Y-77424066D01*
X88079342Y-92606019D02*
X87746009Y-92129828D01*
X87507914Y-92606019D02*
X87507914Y-91606019D01*
X87507914Y-91606019D02*
X87888866Y-91606019D01*
X87888866Y-91606019D02*
X87984104Y-91653638D01*
X87984104Y-91653638D02*
X88031723Y-91701257D01*
X88031723Y-91701257D02*
X88079342Y-91796495D01*
X88079342Y-91796495D02*
X88079342Y-91939352D01*
X88079342Y-91939352D02*
X88031723Y-92034590D01*
X88031723Y-92034590D02*
X87984104Y-92082209D01*
X87984104Y-92082209D02*
X87888866Y-92129828D01*
X87888866Y-92129828D02*
X87507914Y-92129828D01*
X89031723Y-92606019D02*
X88460295Y-92606019D01*
X88746009Y-92606019D02*
X88746009Y-91606019D01*
X88746009Y-91606019D02*
X88650771Y-91748876D01*
X88650771Y-91748876D02*
X88555533Y-91844114D01*
X88555533Y-91844114D02*
X88460295Y-91891733D01*
X89888866Y-91939352D02*
X89888866Y-92606019D01*
X89650771Y-91558400D02*
X89412676Y-92272685D01*
X89412676Y-92272685D02*
X90031723Y-92272685D01*
X125524419Y-83478666D02*
X125048228Y-83811999D01*
X125524419Y-84050094D02*
X124524419Y-84050094D01*
X124524419Y-84050094D02*
X124524419Y-83669142D01*
X124524419Y-83669142D02*
X124572038Y-83573904D01*
X124572038Y-83573904D02*
X124619657Y-83526285D01*
X124619657Y-83526285D02*
X124714895Y-83478666D01*
X124714895Y-83478666D02*
X124857752Y-83478666D01*
X124857752Y-83478666D02*
X124952990Y-83526285D01*
X124952990Y-83526285D02*
X125000609Y-83573904D01*
X125000609Y-83573904D02*
X125048228Y-83669142D01*
X125048228Y-83669142D02*
X125048228Y-84050094D01*
X125524419Y-82526285D02*
X125524419Y-83097713D01*
X125524419Y-82811999D02*
X124524419Y-82811999D01*
X124524419Y-82811999D02*
X124667276Y-82907237D01*
X124667276Y-82907237D02*
X124762514Y-83002475D01*
X124762514Y-83002475D02*
X124810133Y-83097713D01*
X87516666Y-55724819D02*
X87516666Y-56439104D01*
X87516666Y-56439104D02*
X87469047Y-56581961D01*
X87469047Y-56581961D02*
X87373809Y-56677200D01*
X87373809Y-56677200D02*
X87230952Y-56724819D01*
X87230952Y-56724819D02*
X87135714Y-56724819D01*
X87945238Y-55820057D02*
X87992857Y-55772438D01*
X87992857Y-55772438D02*
X88088095Y-55724819D01*
X88088095Y-55724819D02*
X88326190Y-55724819D01*
X88326190Y-55724819D02*
X88421428Y-55772438D01*
X88421428Y-55772438D02*
X88469047Y-55820057D01*
X88469047Y-55820057D02*
X88516666Y-55915295D01*
X88516666Y-55915295D02*
X88516666Y-56010533D01*
X88516666Y-56010533D02*
X88469047Y-56153390D01*
X88469047Y-56153390D02*
X87897619Y-56724819D01*
X87897619Y-56724819D02*
X88516666Y-56724819D01*
X118155342Y-55423380D02*
X118107723Y-55471000D01*
X118107723Y-55471000D02*
X117964866Y-55518619D01*
X117964866Y-55518619D02*
X117869628Y-55518619D01*
X117869628Y-55518619D02*
X117726771Y-55471000D01*
X117726771Y-55471000D02*
X117631533Y-55375761D01*
X117631533Y-55375761D02*
X117583914Y-55280523D01*
X117583914Y-55280523D02*
X117536295Y-55090047D01*
X117536295Y-55090047D02*
X117536295Y-54947190D01*
X117536295Y-54947190D02*
X117583914Y-54756714D01*
X117583914Y-54756714D02*
X117631533Y-54661476D01*
X117631533Y-54661476D02*
X117726771Y-54566238D01*
X117726771Y-54566238D02*
X117869628Y-54518619D01*
X117869628Y-54518619D02*
X117964866Y-54518619D01*
X117964866Y-54518619D02*
X118107723Y-54566238D01*
X118107723Y-54566238D02*
X118155342Y-54613857D01*
X118536295Y-54613857D02*
X118583914Y-54566238D01*
X118583914Y-54566238D02*
X118679152Y-54518619D01*
X118679152Y-54518619D02*
X118917247Y-54518619D01*
X118917247Y-54518619D02*
X119012485Y-54566238D01*
X119012485Y-54566238D02*
X119060104Y-54613857D01*
X119060104Y-54613857D02*
X119107723Y-54709095D01*
X119107723Y-54709095D02*
X119107723Y-54804333D01*
X119107723Y-54804333D02*
X119060104Y-54947190D01*
X119060104Y-54947190D02*
X118488676Y-55518619D01*
X118488676Y-55518619D02*
X119107723Y-55518619D01*
X119726771Y-54518619D02*
X119822009Y-54518619D01*
X119822009Y-54518619D02*
X119917247Y-54566238D01*
X119917247Y-54566238D02*
X119964866Y-54613857D01*
X119964866Y-54613857D02*
X120012485Y-54709095D01*
X120012485Y-54709095D02*
X120060104Y-54899571D01*
X120060104Y-54899571D02*
X120060104Y-55137666D01*
X120060104Y-55137666D02*
X120012485Y-55328142D01*
X120012485Y-55328142D02*
X119964866Y-55423380D01*
X119964866Y-55423380D02*
X119917247Y-55471000D01*
X119917247Y-55471000D02*
X119822009Y-55518619D01*
X119822009Y-55518619D02*
X119726771Y-55518619D01*
X119726771Y-55518619D02*
X119631533Y-55471000D01*
X119631533Y-55471000D02*
X119583914Y-55423380D01*
X119583914Y-55423380D02*
X119536295Y-55328142D01*
X119536295Y-55328142D02*
X119488676Y-55137666D01*
X119488676Y-55137666D02*
X119488676Y-54899571D01*
X119488676Y-54899571D02*
X119536295Y-54709095D01*
X119536295Y-54709095D02*
X119583914Y-54613857D01*
X119583914Y-54613857D02*
X119631533Y-54566238D01*
X119631533Y-54566238D02*
X119726771Y-54518619D01*
X115018095Y-54524819D02*
X115018095Y-55334342D01*
X115018095Y-55334342D02*
X115065714Y-55429580D01*
X115065714Y-55429580D02*
X115113333Y-55477200D01*
X115113333Y-55477200D02*
X115208571Y-55524819D01*
X115208571Y-55524819D02*
X115399047Y-55524819D01*
X115399047Y-55524819D02*
X115494285Y-55477200D01*
X115494285Y-55477200D02*
X115541904Y-55429580D01*
X115541904Y-55429580D02*
X115589523Y-55334342D01*
X115589523Y-55334342D02*
X115589523Y-54524819D01*
X116541904Y-54524819D02*
X116065714Y-54524819D01*
X116065714Y-54524819D02*
X116018095Y-55001009D01*
X116018095Y-55001009D02*
X116065714Y-54953390D01*
X116065714Y-54953390D02*
X116160952Y-54905771D01*
X116160952Y-54905771D02*
X116399047Y-54905771D01*
X116399047Y-54905771D02*
X116494285Y-54953390D01*
X116494285Y-54953390D02*
X116541904Y-55001009D01*
X116541904Y-55001009D02*
X116589523Y-55096247D01*
X116589523Y-55096247D02*
X116589523Y-55334342D01*
X116589523Y-55334342D02*
X116541904Y-55429580D01*
X116541904Y-55429580D02*
X116494285Y-55477200D01*
X116494285Y-55477200D02*
X116399047Y-55524819D01*
X116399047Y-55524819D02*
X116160952Y-55524819D01*
X116160952Y-55524819D02*
X116065714Y-55477200D01*
X116065714Y-55477200D02*
X116018095Y-55429580D01*
X81475342Y-63554780D02*
X81427723Y-63602400D01*
X81427723Y-63602400D02*
X81284866Y-63650019D01*
X81284866Y-63650019D02*
X81189628Y-63650019D01*
X81189628Y-63650019D02*
X81046771Y-63602400D01*
X81046771Y-63602400D02*
X80951533Y-63507161D01*
X80951533Y-63507161D02*
X80903914Y-63411923D01*
X80903914Y-63411923D02*
X80856295Y-63221447D01*
X80856295Y-63221447D02*
X80856295Y-63078590D01*
X80856295Y-63078590D02*
X80903914Y-62888114D01*
X80903914Y-62888114D02*
X80951533Y-62792876D01*
X80951533Y-62792876D02*
X81046771Y-62697638D01*
X81046771Y-62697638D02*
X81189628Y-62650019D01*
X81189628Y-62650019D02*
X81284866Y-62650019D01*
X81284866Y-62650019D02*
X81427723Y-62697638D01*
X81427723Y-62697638D02*
X81475342Y-62745257D01*
X82427723Y-63650019D02*
X81856295Y-63650019D01*
X82142009Y-63650019D02*
X82142009Y-62650019D01*
X82142009Y-62650019D02*
X82046771Y-62792876D01*
X82046771Y-62792876D02*
X81951533Y-62888114D01*
X81951533Y-62888114D02*
X81856295Y-62935733D01*
X83046771Y-62650019D02*
X83142009Y-62650019D01*
X83142009Y-62650019D02*
X83237247Y-62697638D01*
X83237247Y-62697638D02*
X83284866Y-62745257D01*
X83284866Y-62745257D02*
X83332485Y-62840495D01*
X83332485Y-62840495D02*
X83380104Y-63030971D01*
X83380104Y-63030971D02*
X83380104Y-63269066D01*
X83380104Y-63269066D02*
X83332485Y-63459542D01*
X83332485Y-63459542D02*
X83284866Y-63554780D01*
X83284866Y-63554780D02*
X83237247Y-63602400D01*
X83237247Y-63602400D02*
X83142009Y-63650019D01*
X83142009Y-63650019D02*
X83046771Y-63650019D01*
X83046771Y-63650019D02*
X82951533Y-63602400D01*
X82951533Y-63602400D02*
X82903914Y-63554780D01*
X82903914Y-63554780D02*
X82856295Y-63459542D01*
X82856295Y-63459542D02*
X82808676Y-63269066D01*
X82808676Y-63269066D02*
X82808676Y-63030971D01*
X82808676Y-63030971D02*
X82856295Y-62840495D01*
X82856295Y-62840495D02*
X82903914Y-62745257D01*
X82903914Y-62745257D02*
X82951533Y-62697638D01*
X82951533Y-62697638D02*
X83046771Y-62650019D01*
X101309380Y-78449466D02*
X101357000Y-78497085D01*
X101357000Y-78497085D02*
X101404619Y-78639942D01*
X101404619Y-78639942D02*
X101404619Y-78735180D01*
X101404619Y-78735180D02*
X101357000Y-78878037D01*
X101357000Y-78878037D02*
X101261761Y-78973275D01*
X101261761Y-78973275D02*
X101166523Y-79020894D01*
X101166523Y-79020894D02*
X100976047Y-79068513D01*
X100976047Y-79068513D02*
X100833190Y-79068513D01*
X100833190Y-79068513D02*
X100642714Y-79020894D01*
X100642714Y-79020894D02*
X100547476Y-78973275D01*
X100547476Y-78973275D02*
X100452238Y-78878037D01*
X100452238Y-78878037D02*
X100404619Y-78735180D01*
X100404619Y-78735180D02*
X100404619Y-78639942D01*
X100404619Y-78639942D02*
X100452238Y-78497085D01*
X100452238Y-78497085D02*
X100499857Y-78449466D01*
X100404619Y-78116132D02*
X100404619Y-77497085D01*
X100404619Y-77497085D02*
X100785571Y-77830418D01*
X100785571Y-77830418D02*
X100785571Y-77687561D01*
X100785571Y-77687561D02*
X100833190Y-77592323D01*
X100833190Y-77592323D02*
X100880809Y-77544704D01*
X100880809Y-77544704D02*
X100976047Y-77497085D01*
X100976047Y-77497085D02*
X101214142Y-77497085D01*
X101214142Y-77497085D02*
X101309380Y-77544704D01*
X101309380Y-77544704D02*
X101357000Y-77592323D01*
X101357000Y-77592323D02*
X101404619Y-77687561D01*
X101404619Y-77687561D02*
X101404619Y-77973275D01*
X101404619Y-77973275D02*
X101357000Y-78068513D01*
X101357000Y-78068513D02*
X101309380Y-78116132D01*
X115923219Y-73236057D02*
X115447028Y-73569390D01*
X115923219Y-73807485D02*
X114923219Y-73807485D01*
X114923219Y-73807485D02*
X114923219Y-73426533D01*
X114923219Y-73426533D02*
X114970838Y-73331295D01*
X114970838Y-73331295D02*
X115018457Y-73283676D01*
X115018457Y-73283676D02*
X115113695Y-73236057D01*
X115113695Y-73236057D02*
X115256552Y-73236057D01*
X115256552Y-73236057D02*
X115351790Y-73283676D01*
X115351790Y-73283676D02*
X115399409Y-73331295D01*
X115399409Y-73331295D02*
X115447028Y-73426533D01*
X115447028Y-73426533D02*
X115447028Y-73807485D01*
X115923219Y-72283676D02*
X115923219Y-72855104D01*
X115923219Y-72569390D02*
X114923219Y-72569390D01*
X114923219Y-72569390D02*
X115066076Y-72664628D01*
X115066076Y-72664628D02*
X115161314Y-72759866D01*
X115161314Y-72759866D02*
X115208933Y-72855104D01*
X115923219Y-71331295D02*
X115923219Y-71902723D01*
X115923219Y-71617009D02*
X114923219Y-71617009D01*
X114923219Y-71617009D02*
X115066076Y-71712247D01*
X115066076Y-71712247D02*
X115161314Y-71807485D01*
X115161314Y-71807485D02*
X115208933Y-71902723D01*
X121622542Y-62440780D02*
X121574923Y-62488400D01*
X121574923Y-62488400D02*
X121432066Y-62536019D01*
X121432066Y-62536019D02*
X121336828Y-62536019D01*
X121336828Y-62536019D02*
X121193971Y-62488400D01*
X121193971Y-62488400D02*
X121098733Y-62393161D01*
X121098733Y-62393161D02*
X121051114Y-62297923D01*
X121051114Y-62297923D02*
X121003495Y-62107447D01*
X121003495Y-62107447D02*
X121003495Y-61964590D01*
X121003495Y-61964590D02*
X121051114Y-61774114D01*
X121051114Y-61774114D02*
X121098733Y-61678876D01*
X121098733Y-61678876D02*
X121193971Y-61583638D01*
X121193971Y-61583638D02*
X121336828Y-61536019D01*
X121336828Y-61536019D02*
X121432066Y-61536019D01*
X121432066Y-61536019D02*
X121574923Y-61583638D01*
X121574923Y-61583638D02*
X121622542Y-61631257D01*
X122574923Y-62536019D02*
X122003495Y-62536019D01*
X122289209Y-62536019D02*
X122289209Y-61536019D01*
X122289209Y-61536019D02*
X122193971Y-61678876D01*
X122193971Y-61678876D02*
X122098733Y-61774114D01*
X122098733Y-61774114D02*
X122003495Y-61821733D01*
X123051114Y-62536019D02*
X123241590Y-62536019D01*
X123241590Y-62536019D02*
X123336828Y-62488400D01*
X123336828Y-62488400D02*
X123384447Y-62440780D01*
X123384447Y-62440780D02*
X123479685Y-62297923D01*
X123479685Y-62297923D02*
X123527304Y-62107447D01*
X123527304Y-62107447D02*
X123527304Y-61726495D01*
X123527304Y-61726495D02*
X123479685Y-61631257D01*
X123479685Y-61631257D02*
X123432066Y-61583638D01*
X123432066Y-61583638D02*
X123336828Y-61536019D01*
X123336828Y-61536019D02*
X123146352Y-61536019D01*
X123146352Y-61536019D02*
X123051114Y-61583638D01*
X123051114Y-61583638D02*
X123003495Y-61631257D01*
X123003495Y-61631257D02*
X122955876Y-61726495D01*
X122955876Y-61726495D02*
X122955876Y-61964590D01*
X122955876Y-61964590D02*
X123003495Y-62059828D01*
X123003495Y-62059828D02*
X123051114Y-62107447D01*
X123051114Y-62107447D02*
X123146352Y-62155066D01*
X123146352Y-62155066D02*
X123336828Y-62155066D01*
X123336828Y-62155066D02*
X123432066Y-62107447D01*
X123432066Y-62107447D02*
X123479685Y-62059828D01*
X123479685Y-62059828D02*
X123527304Y-61964590D01*
X116085819Y-81408494D02*
X115085819Y-81408494D01*
X115085819Y-81408494D02*
X115085819Y-81170399D01*
X115085819Y-81170399D02*
X115133438Y-81027542D01*
X115133438Y-81027542D02*
X115228676Y-80932304D01*
X115228676Y-80932304D02*
X115323914Y-80884685D01*
X115323914Y-80884685D02*
X115514390Y-80837066D01*
X115514390Y-80837066D02*
X115657247Y-80837066D01*
X115657247Y-80837066D02*
X115847723Y-80884685D01*
X115847723Y-80884685D02*
X115942961Y-80932304D01*
X115942961Y-80932304D02*
X116038200Y-81027542D01*
X116038200Y-81027542D02*
X116085819Y-81170399D01*
X116085819Y-81170399D02*
X116085819Y-81408494D01*
X116085819Y-79884685D02*
X116085819Y-80456113D01*
X116085819Y-80170399D02*
X115085819Y-80170399D01*
X115085819Y-80170399D02*
X115228676Y-80265637D01*
X115228676Y-80265637D02*
X115323914Y-80360875D01*
X115323914Y-80360875D02*
X115371533Y-80456113D01*
X82724666Y-68371819D02*
X82724666Y-69086104D01*
X82724666Y-69086104D02*
X82677047Y-69228961D01*
X82677047Y-69228961D02*
X82581809Y-69324200D01*
X82581809Y-69324200D02*
X82438952Y-69371819D01*
X82438952Y-69371819D02*
X82343714Y-69371819D01*
X83724666Y-69371819D02*
X83153238Y-69371819D01*
X83438952Y-69371819D02*
X83438952Y-68371819D01*
X83438952Y-68371819D02*
X83343714Y-68514676D01*
X83343714Y-68514676D02*
X83248476Y-68609914D01*
X83248476Y-68609914D02*
X83153238Y-68657533D01*
X107681733Y-74294519D02*
X107348400Y-73818328D01*
X107110305Y-74294519D02*
X107110305Y-73294519D01*
X107110305Y-73294519D02*
X107491257Y-73294519D01*
X107491257Y-73294519D02*
X107586495Y-73342138D01*
X107586495Y-73342138D02*
X107634114Y-73389757D01*
X107634114Y-73389757D02*
X107681733Y-73484995D01*
X107681733Y-73484995D02*
X107681733Y-73627852D01*
X107681733Y-73627852D02*
X107634114Y-73723090D01*
X107634114Y-73723090D02*
X107586495Y-73770709D01*
X107586495Y-73770709D02*
X107491257Y-73818328D01*
X107491257Y-73818328D02*
X107110305Y-73818328D01*
X108157924Y-74294519D02*
X108348400Y-74294519D01*
X108348400Y-74294519D02*
X108443638Y-74246900D01*
X108443638Y-74246900D02*
X108491257Y-74199280D01*
X108491257Y-74199280D02*
X108586495Y-74056423D01*
X108586495Y-74056423D02*
X108634114Y-73865947D01*
X108634114Y-73865947D02*
X108634114Y-73484995D01*
X108634114Y-73484995D02*
X108586495Y-73389757D01*
X108586495Y-73389757D02*
X108538876Y-73342138D01*
X108538876Y-73342138D02*
X108443638Y-73294519D01*
X108443638Y-73294519D02*
X108253162Y-73294519D01*
X108253162Y-73294519D02*
X108157924Y-73342138D01*
X108157924Y-73342138D02*
X108110305Y-73389757D01*
X108110305Y-73389757D02*
X108062686Y-73484995D01*
X108062686Y-73484995D02*
X108062686Y-73723090D01*
X108062686Y-73723090D02*
X108110305Y-73818328D01*
X108110305Y-73818328D02*
X108157924Y-73865947D01*
X108157924Y-73865947D02*
X108253162Y-73913566D01*
X108253162Y-73913566D02*
X108443638Y-73913566D01*
X108443638Y-73913566D02*
X108538876Y-73865947D01*
X108538876Y-73865947D02*
X108586495Y-73818328D01*
X108586495Y-73818328D02*
X108634114Y-73723090D01*
X93361133Y-64596180D02*
X93313514Y-64643800D01*
X93313514Y-64643800D02*
X93170657Y-64691419D01*
X93170657Y-64691419D02*
X93075419Y-64691419D01*
X93075419Y-64691419D02*
X92932562Y-64643800D01*
X92932562Y-64643800D02*
X92837324Y-64548561D01*
X92837324Y-64548561D02*
X92789705Y-64453323D01*
X92789705Y-64453323D02*
X92742086Y-64262847D01*
X92742086Y-64262847D02*
X92742086Y-64119990D01*
X92742086Y-64119990D02*
X92789705Y-63929514D01*
X92789705Y-63929514D02*
X92837324Y-63834276D01*
X92837324Y-63834276D02*
X92932562Y-63739038D01*
X92932562Y-63739038D02*
X93075419Y-63691419D01*
X93075419Y-63691419D02*
X93170657Y-63691419D01*
X93170657Y-63691419D02*
X93313514Y-63739038D01*
X93313514Y-63739038D02*
X93361133Y-63786657D01*
X93932562Y-64119990D02*
X93837324Y-64072371D01*
X93837324Y-64072371D02*
X93789705Y-64024752D01*
X93789705Y-64024752D02*
X93742086Y-63929514D01*
X93742086Y-63929514D02*
X93742086Y-63881895D01*
X93742086Y-63881895D02*
X93789705Y-63786657D01*
X93789705Y-63786657D02*
X93837324Y-63739038D01*
X93837324Y-63739038D02*
X93932562Y-63691419D01*
X93932562Y-63691419D02*
X94123038Y-63691419D01*
X94123038Y-63691419D02*
X94218276Y-63739038D01*
X94218276Y-63739038D02*
X94265895Y-63786657D01*
X94265895Y-63786657D02*
X94313514Y-63881895D01*
X94313514Y-63881895D02*
X94313514Y-63929514D01*
X94313514Y-63929514D02*
X94265895Y-64024752D01*
X94265895Y-64024752D02*
X94218276Y-64072371D01*
X94218276Y-64072371D02*
X94123038Y-64119990D01*
X94123038Y-64119990D02*
X93932562Y-64119990D01*
X93932562Y-64119990D02*
X93837324Y-64167609D01*
X93837324Y-64167609D02*
X93789705Y-64215228D01*
X93789705Y-64215228D02*
X93742086Y-64310466D01*
X93742086Y-64310466D02*
X93742086Y-64500942D01*
X93742086Y-64500942D02*
X93789705Y-64596180D01*
X93789705Y-64596180D02*
X93837324Y-64643800D01*
X93837324Y-64643800D02*
X93932562Y-64691419D01*
X93932562Y-64691419D02*
X94123038Y-64691419D01*
X94123038Y-64691419D02*
X94218276Y-64643800D01*
X94218276Y-64643800D02*
X94265895Y-64596180D01*
X94265895Y-64596180D02*
X94313514Y-64500942D01*
X94313514Y-64500942D02*
X94313514Y-64310466D01*
X94313514Y-64310466D02*
X94265895Y-64215228D01*
X94265895Y-64215228D02*
X94218276Y-64167609D01*
X94218276Y-64167609D02*
X94123038Y-64119990D01*
X93514942Y-70869980D02*
X93467323Y-70917600D01*
X93467323Y-70917600D02*
X93324466Y-70965219D01*
X93324466Y-70965219D02*
X93229228Y-70965219D01*
X93229228Y-70965219D02*
X93086371Y-70917600D01*
X93086371Y-70917600D02*
X92991133Y-70822361D01*
X92991133Y-70822361D02*
X92943514Y-70727123D01*
X92943514Y-70727123D02*
X92895895Y-70536647D01*
X92895895Y-70536647D02*
X92895895Y-70393790D01*
X92895895Y-70393790D02*
X92943514Y-70203314D01*
X92943514Y-70203314D02*
X92991133Y-70108076D01*
X92991133Y-70108076D02*
X93086371Y-70012838D01*
X93086371Y-70012838D02*
X93229228Y-69965219D01*
X93229228Y-69965219D02*
X93324466Y-69965219D01*
X93324466Y-69965219D02*
X93467323Y-70012838D01*
X93467323Y-70012838D02*
X93514942Y-70060457D01*
X94467323Y-70965219D02*
X93895895Y-70965219D01*
X94181609Y-70965219D02*
X94181609Y-69965219D01*
X94181609Y-69965219D02*
X94086371Y-70108076D01*
X94086371Y-70108076D02*
X93991133Y-70203314D01*
X93991133Y-70203314D02*
X93895895Y-70250933D01*
X95324466Y-70298552D02*
X95324466Y-70965219D01*
X95086371Y-69917600D02*
X94848276Y-70631885D01*
X94848276Y-70631885D02*
X95467323Y-70631885D01*
X90517742Y-70895380D02*
X90470123Y-70943000D01*
X90470123Y-70943000D02*
X90327266Y-70990619D01*
X90327266Y-70990619D02*
X90232028Y-70990619D01*
X90232028Y-70990619D02*
X90089171Y-70943000D01*
X90089171Y-70943000D02*
X89993933Y-70847761D01*
X89993933Y-70847761D02*
X89946314Y-70752523D01*
X89946314Y-70752523D02*
X89898695Y-70562047D01*
X89898695Y-70562047D02*
X89898695Y-70419190D01*
X89898695Y-70419190D02*
X89946314Y-70228714D01*
X89946314Y-70228714D02*
X89993933Y-70133476D01*
X89993933Y-70133476D02*
X90089171Y-70038238D01*
X90089171Y-70038238D02*
X90232028Y-69990619D01*
X90232028Y-69990619D02*
X90327266Y-69990619D01*
X90327266Y-69990619D02*
X90470123Y-70038238D01*
X90470123Y-70038238D02*
X90517742Y-70085857D01*
X91470123Y-70990619D02*
X90898695Y-70990619D01*
X91184409Y-70990619D02*
X91184409Y-69990619D01*
X91184409Y-69990619D02*
X91089171Y-70133476D01*
X91089171Y-70133476D02*
X90993933Y-70228714D01*
X90993933Y-70228714D02*
X90898695Y-70276333D01*
X92374885Y-69990619D02*
X91898695Y-69990619D01*
X91898695Y-69990619D02*
X91851076Y-70466809D01*
X91851076Y-70466809D02*
X91898695Y-70419190D01*
X91898695Y-70419190D02*
X91993933Y-70371571D01*
X91993933Y-70371571D02*
X92232028Y-70371571D01*
X92232028Y-70371571D02*
X92327266Y-70419190D01*
X92327266Y-70419190D02*
X92374885Y-70466809D01*
X92374885Y-70466809D02*
X92422504Y-70562047D01*
X92422504Y-70562047D02*
X92422504Y-70800142D01*
X92422504Y-70800142D02*
X92374885Y-70895380D01*
X92374885Y-70895380D02*
X92327266Y-70943000D01*
X92327266Y-70943000D02*
X92232028Y-70990619D01*
X92232028Y-70990619D02*
X91993933Y-70990619D01*
X91993933Y-70990619D02*
X91898695Y-70943000D01*
X91898695Y-70943000D02*
X91851076Y-70895380D01*
X116825733Y-92352019D02*
X116492400Y-91875828D01*
X116254305Y-92352019D02*
X116254305Y-91352019D01*
X116254305Y-91352019D02*
X116635257Y-91352019D01*
X116635257Y-91352019D02*
X116730495Y-91399638D01*
X116730495Y-91399638D02*
X116778114Y-91447257D01*
X116778114Y-91447257D02*
X116825733Y-91542495D01*
X116825733Y-91542495D02*
X116825733Y-91685352D01*
X116825733Y-91685352D02*
X116778114Y-91780590D01*
X116778114Y-91780590D02*
X116730495Y-91828209D01*
X116730495Y-91828209D02*
X116635257Y-91875828D01*
X116635257Y-91875828D02*
X116254305Y-91875828D01*
X117730495Y-91352019D02*
X117254305Y-91352019D01*
X117254305Y-91352019D02*
X117206686Y-91828209D01*
X117206686Y-91828209D02*
X117254305Y-91780590D01*
X117254305Y-91780590D02*
X117349543Y-91732971D01*
X117349543Y-91732971D02*
X117587638Y-91732971D01*
X117587638Y-91732971D02*
X117682876Y-91780590D01*
X117682876Y-91780590D02*
X117730495Y-91828209D01*
X117730495Y-91828209D02*
X117778114Y-91923447D01*
X117778114Y-91923447D02*
X117778114Y-92161542D01*
X117778114Y-92161542D02*
X117730495Y-92256780D01*
X117730495Y-92256780D02*
X117682876Y-92304400D01*
X117682876Y-92304400D02*
X117587638Y-92352019D01*
X117587638Y-92352019D02*
X117349543Y-92352019D01*
X117349543Y-92352019D02*
X117254305Y-92304400D01*
X117254305Y-92304400D02*
X117206686Y-92256780D01*
X112198142Y-78337580D02*
X112150523Y-78385200D01*
X112150523Y-78385200D02*
X112007666Y-78432819D01*
X112007666Y-78432819D02*
X111912428Y-78432819D01*
X111912428Y-78432819D02*
X111769571Y-78385200D01*
X111769571Y-78385200D02*
X111674333Y-78289961D01*
X111674333Y-78289961D02*
X111626714Y-78194723D01*
X111626714Y-78194723D02*
X111579095Y-78004247D01*
X111579095Y-78004247D02*
X111579095Y-77861390D01*
X111579095Y-77861390D02*
X111626714Y-77670914D01*
X111626714Y-77670914D02*
X111674333Y-77575676D01*
X111674333Y-77575676D02*
X111769571Y-77480438D01*
X111769571Y-77480438D02*
X111912428Y-77432819D01*
X111912428Y-77432819D02*
X112007666Y-77432819D01*
X112007666Y-77432819D02*
X112150523Y-77480438D01*
X112150523Y-77480438D02*
X112198142Y-77528057D01*
X113150523Y-78432819D02*
X112579095Y-78432819D01*
X112864809Y-78432819D02*
X112864809Y-77432819D01*
X112864809Y-77432819D02*
X112769571Y-77575676D01*
X112769571Y-77575676D02*
X112674333Y-77670914D01*
X112674333Y-77670914D02*
X112579095Y-77718533D01*
X113483857Y-77432819D02*
X114102904Y-77432819D01*
X114102904Y-77432819D02*
X113769571Y-77813771D01*
X113769571Y-77813771D02*
X113912428Y-77813771D01*
X113912428Y-77813771D02*
X114007666Y-77861390D01*
X114007666Y-77861390D02*
X114055285Y-77909009D01*
X114055285Y-77909009D02*
X114102904Y-78004247D01*
X114102904Y-78004247D02*
X114102904Y-78242342D01*
X114102904Y-78242342D02*
X114055285Y-78337580D01*
X114055285Y-78337580D02*
X114007666Y-78385200D01*
X114007666Y-78385200D02*
X113912428Y-78432819D01*
X113912428Y-78432819D02*
X113626714Y-78432819D01*
X113626714Y-78432819D02*
X113531476Y-78385200D01*
X113531476Y-78385200D02*
X113483857Y-78337580D01*
X111049180Y-61994057D02*
X111096800Y-62041676D01*
X111096800Y-62041676D02*
X111144419Y-62184533D01*
X111144419Y-62184533D02*
X111144419Y-62279771D01*
X111144419Y-62279771D02*
X111096800Y-62422628D01*
X111096800Y-62422628D02*
X111001561Y-62517866D01*
X111001561Y-62517866D02*
X110906323Y-62565485D01*
X110906323Y-62565485D02*
X110715847Y-62613104D01*
X110715847Y-62613104D02*
X110572990Y-62613104D01*
X110572990Y-62613104D02*
X110382514Y-62565485D01*
X110382514Y-62565485D02*
X110287276Y-62517866D01*
X110287276Y-62517866D02*
X110192038Y-62422628D01*
X110192038Y-62422628D02*
X110144419Y-62279771D01*
X110144419Y-62279771D02*
X110144419Y-62184533D01*
X110144419Y-62184533D02*
X110192038Y-62041676D01*
X110192038Y-62041676D02*
X110239657Y-61994057D01*
X111144419Y-61041676D02*
X111144419Y-61613104D01*
X111144419Y-61327390D02*
X110144419Y-61327390D01*
X110144419Y-61327390D02*
X110287276Y-61422628D01*
X110287276Y-61422628D02*
X110382514Y-61517866D01*
X110382514Y-61517866D02*
X110430133Y-61613104D01*
X110572990Y-60470247D02*
X110525371Y-60565485D01*
X110525371Y-60565485D02*
X110477752Y-60613104D01*
X110477752Y-60613104D02*
X110382514Y-60660723D01*
X110382514Y-60660723D02*
X110334895Y-60660723D01*
X110334895Y-60660723D02*
X110239657Y-60613104D01*
X110239657Y-60613104D02*
X110192038Y-60565485D01*
X110192038Y-60565485D02*
X110144419Y-60470247D01*
X110144419Y-60470247D02*
X110144419Y-60279771D01*
X110144419Y-60279771D02*
X110192038Y-60184533D01*
X110192038Y-60184533D02*
X110239657Y-60136914D01*
X110239657Y-60136914D02*
X110334895Y-60089295D01*
X110334895Y-60089295D02*
X110382514Y-60089295D01*
X110382514Y-60089295D02*
X110477752Y-60136914D01*
X110477752Y-60136914D02*
X110525371Y-60184533D01*
X110525371Y-60184533D02*
X110572990Y-60279771D01*
X110572990Y-60279771D02*
X110572990Y-60470247D01*
X110572990Y-60470247D02*
X110620609Y-60565485D01*
X110620609Y-60565485D02*
X110668228Y-60613104D01*
X110668228Y-60613104D02*
X110763466Y-60660723D01*
X110763466Y-60660723D02*
X110953942Y-60660723D01*
X110953942Y-60660723D02*
X111049180Y-60613104D01*
X111049180Y-60613104D02*
X111096800Y-60565485D01*
X111096800Y-60565485D02*
X111144419Y-60470247D01*
X111144419Y-60470247D02*
X111144419Y-60279771D01*
X111144419Y-60279771D02*
X111096800Y-60184533D01*
X111096800Y-60184533D02*
X111049180Y-60136914D01*
X111049180Y-60136914D02*
X110953942Y-60089295D01*
X110953942Y-60089295D02*
X110763466Y-60089295D01*
X110763466Y-60089295D02*
X110668228Y-60136914D01*
X110668228Y-60136914D02*
X110620609Y-60184533D01*
X110620609Y-60184533D02*
X110572990Y-60279771D01*
X121545361Y-82033257D02*
X121450123Y-81985638D01*
X121450123Y-81985638D02*
X121354885Y-81890400D01*
X121354885Y-81890400D02*
X121212028Y-81747542D01*
X121212028Y-81747542D02*
X121116790Y-81699923D01*
X121116790Y-81699923D02*
X121021552Y-81699923D01*
X121069171Y-81938019D02*
X120973933Y-81890400D01*
X120973933Y-81890400D02*
X120878695Y-81795161D01*
X120878695Y-81795161D02*
X120831076Y-81604685D01*
X120831076Y-81604685D02*
X120831076Y-81271352D01*
X120831076Y-81271352D02*
X120878695Y-81080876D01*
X120878695Y-81080876D02*
X120973933Y-80985638D01*
X120973933Y-80985638D02*
X121069171Y-80938019D01*
X121069171Y-80938019D02*
X121259647Y-80938019D01*
X121259647Y-80938019D02*
X121354885Y-80985638D01*
X121354885Y-80985638D02*
X121450123Y-81080876D01*
X121450123Y-81080876D02*
X121497742Y-81271352D01*
X121497742Y-81271352D02*
X121497742Y-81604685D01*
X121497742Y-81604685D02*
X121450123Y-81795161D01*
X121450123Y-81795161D02*
X121354885Y-81890400D01*
X121354885Y-81890400D02*
X121259647Y-81938019D01*
X121259647Y-81938019D02*
X121069171Y-81938019D01*
X122450123Y-81938019D02*
X121878695Y-81938019D01*
X122164409Y-81938019D02*
X122164409Y-80938019D01*
X122164409Y-80938019D02*
X122069171Y-81080876D01*
X122069171Y-81080876D02*
X121973933Y-81176114D01*
X121973933Y-81176114D02*
X121878695Y-81223733D01*
X116320519Y-88984694D02*
X115320519Y-88984694D01*
X115320519Y-88984694D02*
X115320519Y-88746599D01*
X115320519Y-88746599D02*
X115368138Y-88603742D01*
X115368138Y-88603742D02*
X115463376Y-88508504D01*
X115463376Y-88508504D02*
X115558614Y-88460885D01*
X115558614Y-88460885D02*
X115749090Y-88413266D01*
X115749090Y-88413266D02*
X115891947Y-88413266D01*
X115891947Y-88413266D02*
X116082423Y-88460885D01*
X116082423Y-88460885D02*
X116177661Y-88508504D01*
X116177661Y-88508504D02*
X116272900Y-88603742D01*
X116272900Y-88603742D02*
X116320519Y-88746599D01*
X116320519Y-88746599D02*
X116320519Y-88984694D01*
X115415757Y-88032313D02*
X115368138Y-87984694D01*
X115368138Y-87984694D02*
X115320519Y-87889456D01*
X115320519Y-87889456D02*
X115320519Y-87651361D01*
X115320519Y-87651361D02*
X115368138Y-87556123D01*
X115368138Y-87556123D02*
X115415757Y-87508504D01*
X115415757Y-87508504D02*
X115510995Y-87460885D01*
X115510995Y-87460885D02*
X115606233Y-87460885D01*
X115606233Y-87460885D02*
X115749090Y-87508504D01*
X115749090Y-87508504D02*
X116320519Y-88079932D01*
X116320519Y-88079932D02*
X116320519Y-87460885D01*
X96385142Y-72155180D02*
X96337523Y-72202800D01*
X96337523Y-72202800D02*
X96194666Y-72250419D01*
X96194666Y-72250419D02*
X96099428Y-72250419D01*
X96099428Y-72250419D02*
X95956571Y-72202800D01*
X95956571Y-72202800D02*
X95861333Y-72107561D01*
X95861333Y-72107561D02*
X95813714Y-72012323D01*
X95813714Y-72012323D02*
X95766095Y-71821847D01*
X95766095Y-71821847D02*
X95766095Y-71678990D01*
X95766095Y-71678990D02*
X95813714Y-71488514D01*
X95813714Y-71488514D02*
X95861333Y-71393276D01*
X95861333Y-71393276D02*
X95956571Y-71298038D01*
X95956571Y-71298038D02*
X96099428Y-71250419D01*
X96099428Y-71250419D02*
X96194666Y-71250419D01*
X96194666Y-71250419D02*
X96337523Y-71298038D01*
X96337523Y-71298038D02*
X96385142Y-71345657D01*
X97337523Y-72250419D02*
X96766095Y-72250419D01*
X97051809Y-72250419D02*
X97051809Y-71250419D01*
X97051809Y-71250419D02*
X96956571Y-71393276D01*
X96956571Y-71393276D02*
X96861333Y-71488514D01*
X96861333Y-71488514D02*
X96766095Y-71536133D01*
X98194666Y-71250419D02*
X98004190Y-71250419D01*
X98004190Y-71250419D02*
X97908952Y-71298038D01*
X97908952Y-71298038D02*
X97861333Y-71345657D01*
X97861333Y-71345657D02*
X97766095Y-71488514D01*
X97766095Y-71488514D02*
X97718476Y-71678990D01*
X97718476Y-71678990D02*
X97718476Y-72059942D01*
X97718476Y-72059942D02*
X97766095Y-72155180D01*
X97766095Y-72155180D02*
X97813714Y-72202800D01*
X97813714Y-72202800D02*
X97908952Y-72250419D01*
X97908952Y-72250419D02*
X98099428Y-72250419D01*
X98099428Y-72250419D02*
X98194666Y-72202800D01*
X98194666Y-72202800D02*
X98242285Y-72155180D01*
X98242285Y-72155180D02*
X98289904Y-72059942D01*
X98289904Y-72059942D02*
X98289904Y-71821847D01*
X98289904Y-71821847D02*
X98242285Y-71726609D01*
X98242285Y-71726609D02*
X98194666Y-71678990D01*
X98194666Y-71678990D02*
X98099428Y-71631371D01*
X98099428Y-71631371D02*
X97908952Y-71631371D01*
X97908952Y-71631371D02*
X97813714Y-71678990D01*
X97813714Y-71678990D02*
X97766095Y-71726609D01*
X97766095Y-71726609D02*
X97718476Y-71821847D01*
X115751780Y-70245266D02*
X115799400Y-70292885D01*
X115799400Y-70292885D02*
X115847019Y-70435742D01*
X115847019Y-70435742D02*
X115847019Y-70530980D01*
X115847019Y-70530980D02*
X115799400Y-70673837D01*
X115799400Y-70673837D02*
X115704161Y-70769075D01*
X115704161Y-70769075D02*
X115608923Y-70816694D01*
X115608923Y-70816694D02*
X115418447Y-70864313D01*
X115418447Y-70864313D02*
X115275590Y-70864313D01*
X115275590Y-70864313D02*
X115085114Y-70816694D01*
X115085114Y-70816694D02*
X114989876Y-70769075D01*
X114989876Y-70769075D02*
X114894638Y-70673837D01*
X114894638Y-70673837D02*
X114847019Y-70530980D01*
X114847019Y-70530980D02*
X114847019Y-70435742D01*
X114847019Y-70435742D02*
X114894638Y-70292885D01*
X114894638Y-70292885D02*
X114942257Y-70245266D01*
X115847019Y-69292885D02*
X115847019Y-69864313D01*
X115847019Y-69578599D02*
X114847019Y-69578599D01*
X114847019Y-69578599D02*
X114989876Y-69673837D01*
X114989876Y-69673837D02*
X115085114Y-69769075D01*
X115085114Y-69769075D02*
X115132733Y-69864313D01*
X106741933Y-79602219D02*
X106408600Y-79126028D01*
X106170505Y-79602219D02*
X106170505Y-78602219D01*
X106170505Y-78602219D02*
X106551457Y-78602219D01*
X106551457Y-78602219D02*
X106646695Y-78649838D01*
X106646695Y-78649838D02*
X106694314Y-78697457D01*
X106694314Y-78697457D02*
X106741933Y-78792695D01*
X106741933Y-78792695D02*
X106741933Y-78935552D01*
X106741933Y-78935552D02*
X106694314Y-79030790D01*
X106694314Y-79030790D02*
X106646695Y-79078409D01*
X106646695Y-79078409D02*
X106551457Y-79126028D01*
X106551457Y-79126028D02*
X106170505Y-79126028D01*
X107075267Y-78602219D02*
X107741933Y-78602219D01*
X107741933Y-78602219D02*
X107313362Y-79602219D01*
X108448733Y-63615780D02*
X108401114Y-63663400D01*
X108401114Y-63663400D02*
X108258257Y-63711019D01*
X108258257Y-63711019D02*
X108163019Y-63711019D01*
X108163019Y-63711019D02*
X108020162Y-63663400D01*
X108020162Y-63663400D02*
X107924924Y-63568161D01*
X107924924Y-63568161D02*
X107877305Y-63472923D01*
X107877305Y-63472923D02*
X107829686Y-63282447D01*
X107829686Y-63282447D02*
X107829686Y-63139590D01*
X107829686Y-63139590D02*
X107877305Y-62949114D01*
X107877305Y-62949114D02*
X107924924Y-62853876D01*
X107924924Y-62853876D02*
X108020162Y-62758638D01*
X108020162Y-62758638D02*
X108163019Y-62711019D01*
X108163019Y-62711019D02*
X108258257Y-62711019D01*
X108258257Y-62711019D02*
X108401114Y-62758638D01*
X108401114Y-62758638D02*
X108448733Y-62806257D01*
X108782067Y-62711019D02*
X109448733Y-62711019D01*
X109448733Y-62711019D02*
X109020162Y-63711019D01*
X105603933Y-64826580D02*
X105556314Y-64874200D01*
X105556314Y-64874200D02*
X105413457Y-64921819D01*
X105413457Y-64921819D02*
X105318219Y-64921819D01*
X105318219Y-64921819D02*
X105175362Y-64874200D01*
X105175362Y-64874200D02*
X105080124Y-64778961D01*
X105080124Y-64778961D02*
X105032505Y-64683723D01*
X105032505Y-64683723D02*
X104984886Y-64493247D01*
X104984886Y-64493247D02*
X104984886Y-64350390D01*
X104984886Y-64350390D02*
X105032505Y-64159914D01*
X105032505Y-64159914D02*
X105080124Y-64064676D01*
X105080124Y-64064676D02*
X105175362Y-63969438D01*
X105175362Y-63969438D02*
X105318219Y-63921819D01*
X105318219Y-63921819D02*
X105413457Y-63921819D01*
X105413457Y-63921819D02*
X105556314Y-63969438D01*
X105556314Y-63969438D02*
X105603933Y-64017057D01*
X106508695Y-63921819D02*
X106032505Y-63921819D01*
X106032505Y-63921819D02*
X105984886Y-64398009D01*
X105984886Y-64398009D02*
X106032505Y-64350390D01*
X106032505Y-64350390D02*
X106127743Y-64302771D01*
X106127743Y-64302771D02*
X106365838Y-64302771D01*
X106365838Y-64302771D02*
X106461076Y-64350390D01*
X106461076Y-64350390D02*
X106508695Y-64398009D01*
X106508695Y-64398009D02*
X106556314Y-64493247D01*
X106556314Y-64493247D02*
X106556314Y-64731342D01*
X106556314Y-64731342D02*
X106508695Y-64826580D01*
X106508695Y-64826580D02*
X106461076Y-64874200D01*
X106461076Y-64874200D02*
X106365838Y-64921819D01*
X106365838Y-64921819D02*
X106127743Y-64921819D01*
X106127743Y-64921819D02*
X106032505Y-64874200D01*
X106032505Y-64874200D02*
X105984886Y-64826580D01*
X109531142Y-78337580D02*
X109483523Y-78385200D01*
X109483523Y-78385200D02*
X109340666Y-78432819D01*
X109340666Y-78432819D02*
X109245428Y-78432819D01*
X109245428Y-78432819D02*
X109102571Y-78385200D01*
X109102571Y-78385200D02*
X109007333Y-78289961D01*
X109007333Y-78289961D02*
X108959714Y-78194723D01*
X108959714Y-78194723D02*
X108912095Y-78004247D01*
X108912095Y-78004247D02*
X108912095Y-77861390D01*
X108912095Y-77861390D02*
X108959714Y-77670914D01*
X108959714Y-77670914D02*
X109007333Y-77575676D01*
X109007333Y-77575676D02*
X109102571Y-77480438D01*
X109102571Y-77480438D02*
X109245428Y-77432819D01*
X109245428Y-77432819D02*
X109340666Y-77432819D01*
X109340666Y-77432819D02*
X109483523Y-77480438D01*
X109483523Y-77480438D02*
X109531142Y-77528057D01*
X110483523Y-78432819D02*
X109912095Y-78432819D01*
X110197809Y-78432819D02*
X110197809Y-77432819D01*
X110197809Y-77432819D02*
X110102571Y-77575676D01*
X110102571Y-77575676D02*
X110007333Y-77670914D01*
X110007333Y-77670914D02*
X109912095Y-77718533D01*
X111435904Y-78432819D02*
X110864476Y-78432819D01*
X111150190Y-78432819D02*
X111150190Y-77432819D01*
X111150190Y-77432819D02*
X111054952Y-77575676D01*
X111054952Y-77575676D02*
X110959714Y-77670914D01*
X110959714Y-77670914D02*
X110864476Y-77718533D01*
X101109542Y-89005580D02*
X101061923Y-89053200D01*
X101061923Y-89053200D02*
X100919066Y-89100819D01*
X100919066Y-89100819D02*
X100823828Y-89100819D01*
X100823828Y-89100819D02*
X100680971Y-89053200D01*
X100680971Y-89053200D02*
X100585733Y-88957961D01*
X100585733Y-88957961D02*
X100538114Y-88862723D01*
X100538114Y-88862723D02*
X100490495Y-88672247D01*
X100490495Y-88672247D02*
X100490495Y-88529390D01*
X100490495Y-88529390D02*
X100538114Y-88338914D01*
X100538114Y-88338914D02*
X100585733Y-88243676D01*
X100585733Y-88243676D02*
X100680971Y-88148438D01*
X100680971Y-88148438D02*
X100823828Y-88100819D01*
X100823828Y-88100819D02*
X100919066Y-88100819D01*
X100919066Y-88100819D02*
X101061923Y-88148438D01*
X101061923Y-88148438D02*
X101109542Y-88196057D01*
X102061923Y-89100819D02*
X101490495Y-89100819D01*
X101776209Y-89100819D02*
X101776209Y-88100819D01*
X101776209Y-88100819D02*
X101680971Y-88243676D01*
X101680971Y-88243676D02*
X101585733Y-88338914D01*
X101585733Y-88338914D02*
X101490495Y-88386533D01*
X102442876Y-88196057D02*
X102490495Y-88148438D01*
X102490495Y-88148438D02*
X102585733Y-88100819D01*
X102585733Y-88100819D02*
X102823828Y-88100819D01*
X102823828Y-88100819D02*
X102919066Y-88148438D01*
X102919066Y-88148438D02*
X102966685Y-88196057D01*
X102966685Y-88196057D02*
X103014304Y-88291295D01*
X103014304Y-88291295D02*
X103014304Y-88386533D01*
X103014304Y-88386533D02*
X102966685Y-88529390D01*
X102966685Y-88529390D02*
X102395257Y-89100819D01*
X102395257Y-89100819D02*
X103014304Y-89100819D01*
X101324580Y-86094866D02*
X101372200Y-86142485D01*
X101372200Y-86142485D02*
X101419819Y-86285342D01*
X101419819Y-86285342D02*
X101419819Y-86380580D01*
X101419819Y-86380580D02*
X101372200Y-86523437D01*
X101372200Y-86523437D02*
X101276961Y-86618675D01*
X101276961Y-86618675D02*
X101181723Y-86666294D01*
X101181723Y-86666294D02*
X100991247Y-86713913D01*
X100991247Y-86713913D02*
X100848390Y-86713913D01*
X100848390Y-86713913D02*
X100657914Y-86666294D01*
X100657914Y-86666294D02*
X100562676Y-86618675D01*
X100562676Y-86618675D02*
X100467438Y-86523437D01*
X100467438Y-86523437D02*
X100419819Y-86380580D01*
X100419819Y-86380580D02*
X100419819Y-86285342D01*
X100419819Y-86285342D02*
X100467438Y-86142485D01*
X100467438Y-86142485D02*
X100515057Y-86094866D01*
X100753152Y-85237723D02*
X101419819Y-85237723D01*
X100372200Y-85475818D02*
X101086485Y-85713913D01*
X101086485Y-85713913D02*
X101086485Y-85094866D01*
X121545361Y-92193257D02*
X121450123Y-92145638D01*
X121450123Y-92145638D02*
X121354885Y-92050400D01*
X121354885Y-92050400D02*
X121212028Y-91907542D01*
X121212028Y-91907542D02*
X121116790Y-91859923D01*
X121116790Y-91859923D02*
X121021552Y-91859923D01*
X121069171Y-92098019D02*
X120973933Y-92050400D01*
X120973933Y-92050400D02*
X120878695Y-91955161D01*
X120878695Y-91955161D02*
X120831076Y-91764685D01*
X120831076Y-91764685D02*
X120831076Y-91431352D01*
X120831076Y-91431352D02*
X120878695Y-91240876D01*
X120878695Y-91240876D02*
X120973933Y-91145638D01*
X120973933Y-91145638D02*
X121069171Y-91098019D01*
X121069171Y-91098019D02*
X121259647Y-91098019D01*
X121259647Y-91098019D02*
X121354885Y-91145638D01*
X121354885Y-91145638D02*
X121450123Y-91240876D01*
X121450123Y-91240876D02*
X121497742Y-91431352D01*
X121497742Y-91431352D02*
X121497742Y-91764685D01*
X121497742Y-91764685D02*
X121450123Y-91955161D01*
X121450123Y-91955161D02*
X121354885Y-92050400D01*
X121354885Y-92050400D02*
X121259647Y-92098019D01*
X121259647Y-92098019D02*
X121069171Y-92098019D01*
X121878695Y-91193257D02*
X121926314Y-91145638D01*
X121926314Y-91145638D02*
X122021552Y-91098019D01*
X122021552Y-91098019D02*
X122259647Y-91098019D01*
X122259647Y-91098019D02*
X122354885Y-91145638D01*
X122354885Y-91145638D02*
X122402504Y-91193257D01*
X122402504Y-91193257D02*
X122450123Y-91288495D01*
X122450123Y-91288495D02*
X122450123Y-91383733D01*
X122450123Y-91383733D02*
X122402504Y-91526590D01*
X122402504Y-91526590D02*
X121831076Y-92098019D01*
X121831076Y-92098019D02*
X122450123Y-92098019D01*
X84974133Y-64672380D02*
X84926514Y-64720000D01*
X84926514Y-64720000D02*
X84783657Y-64767619D01*
X84783657Y-64767619D02*
X84688419Y-64767619D01*
X84688419Y-64767619D02*
X84545562Y-64720000D01*
X84545562Y-64720000D02*
X84450324Y-64624761D01*
X84450324Y-64624761D02*
X84402705Y-64529523D01*
X84402705Y-64529523D02*
X84355086Y-64339047D01*
X84355086Y-64339047D02*
X84355086Y-64196190D01*
X84355086Y-64196190D02*
X84402705Y-64005714D01*
X84402705Y-64005714D02*
X84450324Y-63910476D01*
X84450324Y-63910476D02*
X84545562Y-63815238D01*
X84545562Y-63815238D02*
X84688419Y-63767619D01*
X84688419Y-63767619D02*
X84783657Y-63767619D01*
X84783657Y-63767619D02*
X84926514Y-63815238D01*
X84926514Y-63815238D02*
X84974133Y-63862857D01*
X85450324Y-64767619D02*
X85640800Y-64767619D01*
X85640800Y-64767619D02*
X85736038Y-64720000D01*
X85736038Y-64720000D02*
X85783657Y-64672380D01*
X85783657Y-64672380D02*
X85878895Y-64529523D01*
X85878895Y-64529523D02*
X85926514Y-64339047D01*
X85926514Y-64339047D02*
X85926514Y-63958095D01*
X85926514Y-63958095D02*
X85878895Y-63862857D01*
X85878895Y-63862857D02*
X85831276Y-63815238D01*
X85831276Y-63815238D02*
X85736038Y-63767619D01*
X85736038Y-63767619D02*
X85545562Y-63767619D01*
X85545562Y-63767619D02*
X85450324Y-63815238D01*
X85450324Y-63815238D02*
X85402705Y-63862857D01*
X85402705Y-63862857D02*
X85355086Y-63958095D01*
X85355086Y-63958095D02*
X85355086Y-64196190D01*
X85355086Y-64196190D02*
X85402705Y-64291428D01*
X85402705Y-64291428D02*
X85450324Y-64339047D01*
X85450324Y-64339047D02*
X85545562Y-64386666D01*
X85545562Y-64386666D02*
X85736038Y-64386666D01*
X85736038Y-64386666D02*
X85831276Y-64339047D01*
X85831276Y-64339047D02*
X85878895Y-64291428D01*
X85878895Y-64291428D02*
X85926514Y-64196190D01*
X106530142Y-92402819D02*
X106196809Y-91926628D01*
X105958714Y-92402819D02*
X105958714Y-91402819D01*
X105958714Y-91402819D02*
X106339666Y-91402819D01*
X106339666Y-91402819D02*
X106434904Y-91450438D01*
X106434904Y-91450438D02*
X106482523Y-91498057D01*
X106482523Y-91498057D02*
X106530142Y-91593295D01*
X106530142Y-91593295D02*
X106530142Y-91736152D01*
X106530142Y-91736152D02*
X106482523Y-91831390D01*
X106482523Y-91831390D02*
X106434904Y-91879009D01*
X106434904Y-91879009D02*
X106339666Y-91926628D01*
X106339666Y-91926628D02*
X105958714Y-91926628D01*
X107482523Y-92402819D02*
X106911095Y-92402819D01*
X107196809Y-92402819D02*
X107196809Y-91402819D01*
X107196809Y-91402819D02*
X107101571Y-91545676D01*
X107101571Y-91545676D02*
X107006333Y-91640914D01*
X107006333Y-91640914D02*
X106911095Y-91688533D01*
X107815857Y-91402819D02*
X108482523Y-91402819D01*
X108482523Y-91402819D02*
X108053952Y-92402819D01*
D13*
%TO.C,JP1*%
X104098600Y-71462200D02*
X104098600Y-74262200D01*
X102098600Y-71462200D02*
X104098600Y-71462200D01*
X104098600Y-74262200D02*
X102098600Y-74262200D01*
X102098600Y-74262200D02*
X102098600Y-71462200D01*
%TO.C,J5*%
X110480800Y-71110800D02*
X111810800Y-71110800D01*
X110480800Y-72440800D02*
X110480800Y-71110800D01*
X110480800Y-73710800D02*
X110480800Y-76310800D01*
X110480800Y-73710800D02*
X113140800Y-73710800D01*
X110480800Y-76310800D02*
X113140800Y-76310800D01*
X113140800Y-73710800D02*
X113140800Y-76310800D01*
%TO.C,D3*%
X120382100Y-63704600D02*
X120382100Y-59434600D01*
X120382100Y-59434600D02*
X114497100Y-59434600D01*
X114497100Y-63704600D02*
X120382100Y-63704600D01*
%TO.C,JP2*%
X113080000Y-91320000D02*
X113080000Y-88520000D01*
X115080000Y-91320000D02*
X113080000Y-91320000D01*
X113080000Y-88520000D02*
X115080000Y-88520000D01*
X115080000Y-88520000D02*
X115080000Y-91320000D01*
%TO.C,L1*%
X111926750Y-64289000D02*
X116190750Y-64289000D01*
X111926750Y-64978000D02*
X111926750Y-64289000D01*
X111926750Y-67864000D02*
X111926750Y-68553000D01*
X111926750Y-68553000D02*
X116190750Y-68553000D01*
X116190750Y-64289000D02*
X116190750Y-64978000D01*
X116190750Y-68553000D02*
X116190750Y-67864000D01*
%TO.C,R21*%
X122505000Y-57095436D02*
X122505000Y-57549564D01*
X121035000Y-57095436D02*
X121035000Y-57549564D01*
%TO.C,C17*%
X100506200Y-74342852D02*
X100506200Y-73820348D01*
X99036200Y-74342852D02*
X99036200Y-73820348D01*
%TO.C,U2*%
X108523000Y-82784000D02*
X106573000Y-82784000D01*
X108523000Y-82784000D02*
X110473000Y-82784000D01*
X108523000Y-87904000D02*
X106573000Y-87904000D01*
X108523000Y-87904000D02*
X110473000Y-87904000D01*
X105823000Y-82879000D02*
X105583000Y-82549000D01*
X106063000Y-82549000D01*
X105823000Y-82879000D01*
G36*
X105823000Y-82879000D02*
G01*
X105583000Y-82549000D01*
X106063000Y-82549000D01*
X105823000Y-82879000D01*
G37*
%TO.C,R2*%
X122750964Y-84863000D02*
X122296836Y-84863000D01*
X122750964Y-86333000D02*
X122296836Y-86333000D01*
%TO.C,R16*%
X118311664Y-74601400D02*
X117857536Y-74601400D01*
X118311664Y-76071400D02*
X117857536Y-76071400D01*
%TO.C,C6*%
X95655000Y-57656837D02*
X95655000Y-63412400D01*
X95655000Y-63412400D02*
X98005000Y-63412400D01*
X96719437Y-56592400D02*
X95655000Y-57656837D01*
X96719437Y-56592400D02*
X98005000Y-56592400D01*
X100912500Y-55564900D02*
X100912500Y-56352400D01*
X101306250Y-55958650D02*
X100518750Y-55958650D01*
X101410563Y-56592400D02*
X100125000Y-56592400D01*
X101410563Y-56592400D02*
X102475000Y-57656837D01*
X102475000Y-57656837D02*
X102475000Y-63412400D01*
X102475000Y-63412400D02*
X100125000Y-63412400D01*
%TO.C,J4*%
X122317200Y-69550200D02*
X122317200Y-66950200D01*
X124977200Y-66950200D02*
X122317200Y-66950200D01*
X124977200Y-69550200D02*
X122317200Y-69550200D01*
X124977200Y-69550200D02*
X124977200Y-66950200D01*
X124977200Y-70820200D02*
X124977200Y-72150200D01*
X124977200Y-72150200D02*
X123647200Y-72150200D01*
%TO.C,R20*%
X123143200Y-57524164D02*
X123143200Y-57070036D01*
X124613200Y-57524164D02*
X124613200Y-57070036D01*
%TO.C,R6*%
X110525436Y-89308000D02*
X110979564Y-89308000D01*
X110525436Y-90778000D02*
X110979564Y-90778000D01*
%TO.C,R15*%
X98575864Y-82780200D02*
X98121736Y-82780200D01*
X98575864Y-84250200D02*
X98121736Y-84250200D01*
%TO.C,U3*%
X93182000Y-89609500D02*
X93182000Y-88809500D01*
X93182000Y-89609500D02*
X93182000Y-90409500D01*
X96302000Y-89609500D02*
X96302000Y-88809500D01*
X96302000Y-89609500D02*
X96302000Y-90409500D01*
X96582000Y-88549500D02*
X96252000Y-88309500D01*
X96582000Y-88069500D01*
X96582000Y-88549500D01*
G36*
X96582000Y-88549500D02*
G01*
X96252000Y-88309500D01*
X96582000Y-88069500D01*
X96582000Y-88549500D01*
G37*
%TO.C,R10*%
X103935200Y-76604864D02*
X103935200Y-76150736D01*
X102465200Y-76604864D02*
X102465200Y-76150736D01*
%TO.C,R18*%
X117984536Y-85142400D02*
X118438664Y-85142400D01*
X117984536Y-86612400D02*
X118438664Y-86612400D01*
%TO.C,C2*%
X98148748Y-80335000D02*
X98671252Y-80335000D01*
X98148748Y-81805000D02*
X98671252Y-81805000D01*
%TO.C,R13*%
X90654200Y-89734764D02*
X90654200Y-89280636D01*
X92124200Y-89734764D02*
X92124200Y-89280636D01*
%TO.C,R12*%
X98877564Y-90023000D02*
X98423436Y-90023000D01*
X98877564Y-91493000D02*
X98423436Y-91493000D01*
%TO.C,R3*%
X122480336Y-73763200D02*
X122934464Y-73763200D01*
X122480336Y-75233200D02*
X122934464Y-75233200D01*
%TO.C,U1*%
X89569500Y-75069000D02*
X89569500Y-75344000D01*
X89569500Y-84989000D02*
X89569500Y-84714000D01*
X91879500Y-75069000D02*
X89569500Y-75069000D01*
X91879500Y-75069000D02*
X94189500Y-75069000D01*
X91879500Y-84989000D02*
X89569500Y-84989000D01*
X91879500Y-84989000D02*
X94189500Y-84989000D01*
X94189500Y-75069000D02*
X94189500Y-75344000D01*
X94189500Y-84989000D02*
X94189500Y-84714000D01*
X88979500Y-75344000D02*
X88739500Y-75014000D01*
X89219500Y-75014000D01*
X88979500Y-75344000D01*
G36*
X88979500Y-75344000D02*
G01*
X88739500Y-75014000D01*
X89219500Y-75014000D01*
X88979500Y-75344000D01*
G37*
%TO.C,J3*%
X103455000Y-55185000D02*
X103455000Y-57845000D01*
X106055000Y-55185000D02*
X103455000Y-55185000D01*
X106055000Y-55185000D02*
X106055000Y-57845000D01*
X106055000Y-57845000D02*
X103455000Y-57845000D01*
X107325000Y-55185000D02*
X108655000Y-55185000D01*
X108655000Y-55185000D02*
X108655000Y-56515000D01*
%TO.C,R8*%
X104954400Y-76176136D02*
X104954400Y-76630264D01*
X106424400Y-76176136D02*
X106424400Y-76630264D01*
%TO.C,R22*%
X111634600Y-57200436D02*
X111634600Y-57654564D01*
X113104600Y-57200436D02*
X113104600Y-57654564D01*
%TO.C,R19*%
X118450764Y-82424600D02*
X117996636Y-82424600D01*
X118450764Y-83894600D02*
X117996636Y-83894600D01*
%TO.C,R4*%
X118345364Y-77522400D02*
X117891236Y-77522400D01*
X118345364Y-78992400D02*
X117891236Y-78992400D01*
%TO.C,R14*%
X88241200Y-89734764D02*
X88241200Y-89280636D01*
X89711200Y-89734764D02*
X89711200Y-89280636D01*
%TO.C,R1*%
X122275236Y-82602400D02*
X122729364Y-82602400D01*
X122275236Y-84072400D02*
X122729364Y-84072400D01*
%TO.C,J2*%
X81580600Y-55235800D02*
X81580600Y-57895800D01*
X84180600Y-55235800D02*
X81580600Y-55235800D01*
X84180600Y-55235800D02*
X84180600Y-57895800D01*
X84180600Y-57895800D02*
X81580600Y-57895800D01*
X85450600Y-55235800D02*
X86780600Y-55235800D01*
X86780600Y-55235800D02*
X86780600Y-56565800D01*
%TO.C,C20*%
X119177200Y-57324980D02*
X119177200Y-57043820D01*
X120197200Y-57324980D02*
X120197200Y-57043820D01*
%TO.C,U5*%
X115798600Y-58989400D02*
X116598600Y-58989400D01*
X115798600Y-58989400D02*
X114998600Y-58989400D01*
X115798600Y-55869400D02*
X116598600Y-55869400D01*
X115798600Y-55869400D02*
X114998600Y-55869400D01*
X117338600Y-59269400D02*
X116858600Y-59269400D01*
X117098600Y-58939400D01*
X117338600Y-59269400D01*
G36*
X117338600Y-59269400D02*
G01*
X116858600Y-59269400D01*
X117098600Y-58939400D01*
X117338600Y-59269400D01*
G37*
%TO.C,C10*%
X81434000Y-60404148D02*
X81434000Y-60926652D01*
X82904000Y-60404148D02*
X82904000Y-60926652D01*
%TO.C,C3*%
X98214548Y-77547800D02*
X98737052Y-77547800D01*
X98214548Y-79017800D02*
X98737052Y-79017800D01*
%TO.C,R11*%
X118171364Y-72061400D02*
X117717236Y-72061400D01*
X118171364Y-73531400D02*
X117717236Y-73531400D01*
%TO.C,C19*%
X122526652Y-59666200D02*
X122004148Y-59666200D01*
X122526652Y-61136200D02*
X122004148Y-61136200D01*
%TO.C,D1*%
X116512300Y-79710400D02*
X116512300Y-81630400D01*
X116512300Y-81630400D02*
X119372300Y-81630400D01*
X119372300Y-79710400D02*
X116512300Y-79710400D01*
%TO.C,J1*%
X81728000Y-69917000D02*
X83058000Y-69917000D01*
X81728000Y-71247000D02*
X81728000Y-69917000D01*
X81728000Y-72517000D02*
X81728000Y-92897000D01*
X81728000Y-72517000D02*
X84388000Y-72517000D01*
X81728000Y-92897000D02*
X84388000Y-92897000D01*
X84388000Y-72517000D02*
X84388000Y-92897000D01*
%TO.C,R9*%
X107113400Y-76630264D02*
X107113400Y-76176136D01*
X108583400Y-76630264D02*
X108583400Y-76176136D01*
%TO.C,C8*%
X87958800Y-57641637D02*
X87958800Y-63397200D01*
X87958800Y-63397200D02*
X90308800Y-63397200D01*
X89023237Y-56577200D02*
X87958800Y-57641637D01*
X89023237Y-56577200D02*
X90308800Y-56577200D01*
X93216300Y-55549700D02*
X93216300Y-56337200D01*
X93610050Y-55943450D02*
X92822550Y-55943450D01*
X93714363Y-56577200D02*
X92428800Y-56577200D01*
X93714363Y-56577200D02*
X94778800Y-57641637D01*
X94778800Y-57641637D02*
X94778800Y-63397200D01*
X94778800Y-63397200D02*
X92428800Y-63397200D01*
%TO.C,C14*%
X93372000Y-73067852D02*
X93372000Y-72545348D01*
X94842000Y-73067852D02*
X94842000Y-72545348D01*
%TO.C,C15*%
X91009800Y-73042452D02*
X91009800Y-72519948D01*
X92479800Y-73042452D02*
X92479800Y-72519948D01*
%TO.C,R5*%
X117994736Y-89587400D02*
X118448864Y-89587400D01*
X117994736Y-91057400D02*
X118448864Y-91057400D01*
%TO.C,C13*%
X112233000Y-80713252D02*
X112233000Y-80190748D01*
X113703000Y-80713252D02*
X113703000Y-80190748D01*
%TO.C,C18*%
X111634600Y-61612452D02*
X111634600Y-61089948D01*
X113104600Y-61612452D02*
X113104600Y-61089948D01*
%TO.C,Q1*%
X122758200Y-77434000D02*
X122108200Y-77434000D01*
X122758200Y-77434000D02*
X123408200Y-77434000D01*
X122758200Y-80554000D02*
X122108200Y-80554000D01*
X122758200Y-80554000D02*
X123408200Y-80554000D01*
X121595700Y-77484000D02*
X121355700Y-77154000D01*
X121835700Y-77154000D01*
X121595700Y-77484000D01*
G36*
X121595700Y-77484000D02*
G01*
X121355700Y-77154000D01*
X121835700Y-77154000D01*
X121595700Y-77484000D01*
G37*
%TO.C,D2*%
X117217500Y-89130000D02*
X120077500Y-89130000D01*
X120077500Y-87210000D02*
X117217500Y-87210000D01*
X120077500Y-89130000D02*
X120077500Y-87210000D01*
%TO.C,C16*%
X98194800Y-74353052D02*
X98194800Y-73830548D01*
X96724800Y-74353052D02*
X96724800Y-73830548D01*
%TO.C,C1*%
X118168052Y-69775400D02*
X117645548Y-69775400D01*
X118168052Y-71245400D02*
X117645548Y-71245400D01*
%TO.C,R7*%
X106681536Y-80062400D02*
X107135664Y-80062400D01*
X106681536Y-81532400D02*
X107135664Y-81532400D01*
%TO.C,C7*%
X108007400Y-60327948D02*
X108007400Y-60850452D01*
X109477400Y-60327948D02*
X109477400Y-60850452D01*
%TO.C,C5*%
X104410600Y-60453748D02*
X104410600Y-61876252D01*
X107130600Y-60453748D02*
X107130600Y-61876252D01*
%TO.C,C11*%
X109566000Y-80713252D02*
X109566000Y-80190748D01*
X111036000Y-80713252D02*
X111036000Y-80190748D01*
%TO.C,C12*%
X98351748Y-87864000D02*
X98874252Y-87864000D01*
X98351748Y-89334000D02*
X98874252Y-89334000D01*
%TO.C,C4*%
X98036748Y-85042700D02*
X98559252Y-85042700D01*
X98036748Y-86512700D02*
X98559252Y-86512700D01*
%TO.C,Q2*%
X122658900Y-87771800D02*
X122008900Y-87771800D01*
X122658900Y-87771800D02*
X123308900Y-87771800D01*
X122658900Y-90891800D02*
X122008900Y-90891800D01*
X122658900Y-90891800D02*
X123308900Y-90891800D01*
X121496400Y-87821800D02*
X121256400Y-87491800D01*
X121736400Y-87491800D01*
X121496400Y-87821800D01*
G36*
X121496400Y-87821800D02*
G01*
X121256400Y-87491800D01*
X121736400Y-87491800D01*
X121496400Y-87821800D01*
G37*
%TO.C,C9*%
X83730000Y-60555348D02*
X83730000Y-61977852D01*
X86450000Y-60555348D02*
X86450000Y-61977852D01*
%TO.C,R17*%
X106795436Y-89308000D02*
X107249564Y-89308000D01*
X106795436Y-90778000D02*
X107249564Y-90778000D01*
%TD*%
M02*
