%TF.GenerationSoftware,KiCad,Pcbnew,8.0.5*%
%TF.CreationDate,2024-10-20T11:29:55-04:00*%
%TF.ProjectId,power_glitcher_panel,706f7765-725f-4676-9c69-74636865725f,rev?*%
%TF.SameCoordinates,Original*%
%TF.FileFunction,Paste,Top*%
%TF.FilePolarity,Positive*%
%FSLAX46Y46*%
G04 Gerber Fmt 4.6, Leading zero omitted, Abs format (unit mm)*
G04 Created by KiCad (PCBNEW 8.0.5) date 2024-10-20 11:29:55*
%MOMM*%
%LPD*%
G01*
G04 APERTURE LIST*
G04 Aperture macros list*
%AMRoundRect*
0 Rectangle with rounded corners*
0 $1 Rounding radius*
0 $2 $3 $4 $5 $6 $7 $8 $9 X,Y pos of 4 corners*
0 Add a 4 corners polygon primitive as box body*
4,1,4,$2,$3,$4,$5,$6,$7,$8,$9,$2,$3,0*
0 Add four circle primitives for the rounded corners*
1,1,$1+$1,$2,$3*
1,1,$1+$1,$4,$5*
1,1,$1+$1,$6,$7*
1,1,$1+$1,$8,$9*
0 Add four rect primitives between the rounded corners*
20,1,$1+$1,$2,$3,$4,$5,0*
20,1,$1+$1,$4,$5,$6,$7,0*
20,1,$1+$1,$6,$7,$8,$9,0*
20,1,$1+$1,$8,$9,$2,$3,0*%
G04 Aperture macros list end*
%ADD10RoundRect,0.250000X0.475000X-0.250000X0.475000X0.250000X-0.475000X0.250000X-0.475000X-0.250000X0*%
%ADD11RoundRect,0.250000X-0.450000X0.262500X-0.450000X-0.262500X0.450000X-0.262500X0.450000X0.262500X0*%
%ADD12RoundRect,0.150000X-0.825000X-0.150000X0.825000X-0.150000X0.825000X0.150000X-0.825000X0.150000X0*%
%ADD13RoundRect,0.250000X-0.262500X-0.450000X0.262500X-0.450000X0.262500X0.450000X-0.262500X0.450000X0*%
%ADD14RoundRect,0.250000X-1.100000X0.325000X-1.100000X-0.325000X1.100000X-0.325000X1.100000X0.325000X0*%
%ADD15RoundRect,0.150000X-0.587500X-0.150000X0.587500X-0.150000X0.587500X0.150000X-0.587500X0.150000X0*%
%ADD16RoundRect,0.250000X-0.250000X-0.475000X0.250000X-0.475000X0.250000X0.475000X-0.250000X0.475000X0*%
%ADD17R,1.854500X2.286000*%
%ADD18RoundRect,0.250000X-0.475000X0.250000X-0.475000X-0.250000X0.475000X-0.250000X0.475000X0.250000X0*%
%ADD19RoundRect,0.250000X0.250000X0.475000X-0.250000X0.475000X-0.250000X-0.475000X0.250000X-0.475000X0*%
%ADD20RoundRect,0.250000X0.325000X0.450000X-0.325000X0.450000X-0.325000X-0.450000X0.325000X-0.450000X0*%
%ADD21RoundRect,0.250000X-0.550000X1.500000X-0.550000X-1.500000X0.550000X-1.500000X0.550000X1.500000X0*%
%ADD22RoundRect,0.250000X0.450000X-0.262500X0.450000X0.262500X-0.450000X0.262500X-0.450000X-0.262500X0*%
%ADD23RoundRect,0.250000X-0.325000X-0.450000X0.325000X-0.450000X0.325000X0.450000X-0.325000X0.450000X0*%
%ADD24RoundRect,0.250000X0.262500X0.450000X-0.262500X0.450000X-0.262500X-0.450000X0.262500X-0.450000X0*%
%ADD25RoundRect,0.150000X0.512500X0.150000X-0.512500X0.150000X-0.512500X-0.150000X0.512500X-0.150000X0*%
%ADD26RoundRect,0.225000X0.250000X-0.225000X0.250000X0.225000X-0.250000X0.225000X-0.250000X-0.225000X0*%
%ADD27RoundRect,0.250000X0.587500X1.625000X-0.587500X1.625000X-0.587500X-1.625000X0.587500X-1.625000X0*%
%ADD28RoundRect,0.100000X-0.637500X-0.100000X0.637500X-0.100000X0.637500X0.100000X-0.637500X0.100000X0*%
%ADD29RoundRect,0.150000X-0.150000X0.512500X-0.150000X-0.512500X0.150000X-0.512500X0.150000X0.512500X0*%
G04 APERTURE END LIST*
D10*
%TO.C,C17*%
X220197000Y-83200600D03*
X220197000Y-81300600D03*
%TD*%
D11*
%TO.C,R21*%
X242195800Y-64579000D03*
X242195800Y-66404000D03*
%TD*%
D12*
%TO.C,U2*%
X226473800Y-91608000D03*
X226473800Y-92878000D03*
X226473800Y-94148000D03*
X226473800Y-95418000D03*
X231423800Y-95418000D03*
X231423800Y-94148000D03*
X231423800Y-92878000D03*
X231423800Y-91608000D03*
%TD*%
D13*
%TO.C,R17*%
X226535800Y-98212000D03*
X228360800Y-98212000D03*
%TD*%
D14*
%TO.C,C9*%
X205515800Y-67960600D03*
X205515800Y-70910600D03*
%TD*%
D15*
%TO.C,Q2*%
X242147200Y-96550800D03*
X242147200Y-98450800D03*
X244022200Y-97500800D03*
%TD*%
D16*
%TO.C,C4*%
X217773800Y-93946700D03*
X219673800Y-93946700D03*
%TD*%
%TO.C,C12*%
X218088800Y-96768000D03*
X219988800Y-96768000D03*
%TD*%
D10*
%TO.C,C11*%
X230726800Y-89571000D03*
X230726800Y-87671000D03*
%TD*%
D17*
%TO.C,L1*%
X232592300Y-74590000D03*
X236376800Y-74590000D03*
%TD*%
D14*
%TO.C,C5*%
X226196400Y-67859000D03*
X226196400Y-70809000D03*
%TD*%
D18*
%TO.C,C7*%
X229168200Y-67808200D03*
X229168200Y-69708200D03*
%TD*%
D13*
%TO.C,R7*%
X226421900Y-88966400D03*
X228246900Y-88966400D03*
%TD*%
D19*
%TO.C,C1*%
X239282600Y-78679400D03*
X237382600Y-78679400D03*
%TD*%
D10*
%TO.C,C16*%
X217885600Y-83210800D03*
X217885600Y-81310800D03*
%TD*%
D20*
%TO.C,D2*%
X239668300Y-96339000D03*
X237618300Y-96339000D03*
%TD*%
D15*
%TO.C,Q1*%
X242246500Y-86213000D03*
X242246500Y-88113000D03*
X244121500Y-87163000D03*
%TD*%
D10*
%TO.C,C18*%
X232795400Y-70470200D03*
X232795400Y-68570200D03*
%TD*%
%TO.C,C13*%
X233393800Y-89571000D03*
X233393800Y-87671000D03*
%TD*%
D13*
%TO.C,R5*%
X237735100Y-98491400D03*
X239560100Y-98491400D03*
%TD*%
D10*
%TO.C,C15*%
X212170600Y-81900200D03*
X212170600Y-80000200D03*
%TD*%
%TO.C,C14*%
X214532800Y-81925600D03*
X214532800Y-80025600D03*
%TD*%
D21*
%TO.C,C8*%
X211794600Y-65456200D03*
X211794600Y-70856200D03*
%TD*%
D22*
%TO.C,R9*%
X228274200Y-85484700D03*
X228274200Y-83659700D03*
%TD*%
D23*
%TO.C,D1*%
X237773100Y-88839400D03*
X239823100Y-88839400D03*
%TD*%
D19*
%TO.C,C19*%
X243641200Y-68570200D03*
X241741200Y-68570200D03*
%TD*%
D24*
%TO.C,R11*%
X239282600Y-80965400D03*
X237457600Y-80965400D03*
%TD*%
D16*
%TO.C,C3*%
X217951600Y-86451800D03*
X219851600Y-86451800D03*
%TD*%
D18*
%TO.C,C10*%
X202594800Y-67884400D03*
X202594800Y-69784400D03*
%TD*%
D25*
%TO.C,U5*%
X237361900Y-66548400D03*
X237361900Y-65598400D03*
X237361900Y-64648400D03*
X235086900Y-64648400D03*
X235086900Y-66548400D03*
%TD*%
D26*
%TO.C,C20*%
X240113000Y-66128400D03*
X240113000Y-64578400D03*
%TD*%
D13*
%TO.C,R1*%
X242015600Y-91506400D03*
X243840600Y-91506400D03*
%TD*%
D22*
%TO.C,R14*%
X209402000Y-98589200D03*
X209402000Y-96764200D03*
%TD*%
D24*
%TO.C,R4*%
X239456600Y-86426400D03*
X237631600Y-86426400D03*
%TD*%
D11*
%TO.C,R8*%
X226115200Y-83659700D03*
X226115200Y-85484700D03*
%TD*%
D27*
%TO.C,D3*%
X239710400Y-69738600D03*
X235335400Y-69738600D03*
%TD*%
D28*
%TO.C,U1*%
X209442800Y-83973000D03*
X209442800Y-84623000D03*
X209442800Y-85273000D03*
X209442800Y-85923000D03*
X209442800Y-86573000D03*
X209442800Y-87223000D03*
X209442800Y-87873000D03*
X209442800Y-88523000D03*
X209442800Y-89173000D03*
X209442800Y-89823000D03*
X209442800Y-90473000D03*
X209442800Y-91123000D03*
X209442800Y-91773000D03*
X209442800Y-92423000D03*
X215167800Y-92423000D03*
X215167800Y-91773000D03*
X215167800Y-91123000D03*
X215167800Y-90473000D03*
X215167800Y-89823000D03*
X215167800Y-89173000D03*
X215167800Y-88523000D03*
X215167800Y-87873000D03*
X215167800Y-87223000D03*
X215167800Y-86573000D03*
X215167800Y-85923000D03*
X215167800Y-85273000D03*
X215167800Y-84623000D03*
X215167800Y-83973000D03*
%TD*%
D13*
%TO.C,R3*%
X242220700Y-82667200D03*
X244045700Y-82667200D03*
%TD*%
D24*
%TO.C,R12*%
X219988800Y-98927000D03*
X218163800Y-98927000D03*
%TD*%
D16*
%TO.C,C2*%
X217885800Y-89239000D03*
X219785800Y-89239000D03*
%TD*%
D22*
%TO.C,R13*%
X211815000Y-98589200D03*
X211815000Y-96764200D03*
%TD*%
%TO.C,R20*%
X244304000Y-66378600D03*
X244304000Y-64553600D03*
%TD*%
D13*
%TO.C,R6*%
X230265800Y-98212000D03*
X232090800Y-98212000D03*
%TD*%
D21*
%TO.C,C6*%
X219490800Y-65471400D03*
X219490800Y-70871400D03*
%TD*%
D24*
%TO.C,R16*%
X239422900Y-83505400D03*
X237597900Y-83505400D03*
%TD*%
D11*
%TO.C,R22*%
X232795400Y-64684000D03*
X232795400Y-66509000D03*
%TD*%
D29*
%TO.C,U3*%
X216117800Y-96641000D03*
X215167800Y-96641000D03*
X214217800Y-96641000D03*
X214217800Y-98916000D03*
X216117800Y-98916000D03*
%TD*%
D13*
%TO.C,R18*%
X237724900Y-94046400D03*
X239549900Y-94046400D03*
%TD*%
D24*
%TO.C,R19*%
X239562000Y-91328600D03*
X237737000Y-91328600D03*
%TD*%
%TO.C,R2*%
X243862200Y-93767000D03*
X242037200Y-93767000D03*
%TD*%
D22*
%TO.C,R10*%
X223626000Y-85459300D03*
X223626000Y-83634300D03*
%TD*%
D24*
%TO.C,R15*%
X219687100Y-91684200D03*
X217862100Y-91684200D03*
%TD*%
%TO.C,R2*%
X243862200Y-135767000D03*
X242037200Y-135767000D03*
%TD*%
D22*
%TO.C,R10*%
X223626000Y-127459300D03*
X223626000Y-125634300D03*
%TD*%
D24*
%TO.C,R15*%
X219687100Y-133684200D03*
X217862100Y-133684200D03*
%TD*%
D13*
%TO.C,R18*%
X237724900Y-136046400D03*
X239549900Y-136046400D03*
%TD*%
D24*
%TO.C,R19*%
X239562000Y-133328600D03*
X237737000Y-133328600D03*
%TD*%
D22*
%TO.C,R20*%
X244304000Y-108378600D03*
X244304000Y-106553600D03*
%TD*%
D13*
%TO.C,R6*%
X230265800Y-140212000D03*
X232090800Y-140212000D03*
%TD*%
D21*
%TO.C,C6*%
X219490800Y-107471400D03*
X219490800Y-112871400D03*
%TD*%
D24*
%TO.C,R16*%
X239422900Y-125505400D03*
X237597900Y-125505400D03*
%TD*%
D11*
%TO.C,R22*%
X232795400Y-106684000D03*
X232795400Y-108509000D03*
%TD*%
D29*
%TO.C,U3*%
X216117800Y-138641000D03*
X215167800Y-138641000D03*
X214217800Y-138641000D03*
X214217800Y-140916000D03*
X216117800Y-140916000D03*
%TD*%
D10*
%TO.C,C14*%
X214532800Y-123925600D03*
X214532800Y-122025600D03*
%TD*%
D21*
%TO.C,C8*%
X211794600Y-107456200D03*
X211794600Y-112856200D03*
%TD*%
D22*
%TO.C,R9*%
X228274200Y-127484700D03*
X228274200Y-125659700D03*
%TD*%
D23*
%TO.C,D1*%
X237773100Y-130839400D03*
X239823100Y-130839400D03*
%TD*%
D19*
%TO.C,C19*%
X243641200Y-110570200D03*
X241741200Y-110570200D03*
%TD*%
D24*
%TO.C,R11*%
X239282600Y-122965400D03*
X237457600Y-122965400D03*
%TD*%
D16*
%TO.C,C3*%
X217951600Y-128451800D03*
X219851600Y-128451800D03*
%TD*%
D18*
%TO.C,C10*%
X202594800Y-109884400D03*
X202594800Y-111784400D03*
%TD*%
D25*
%TO.C,U5*%
X237361900Y-108548400D03*
X237361900Y-107598400D03*
X237361900Y-106648400D03*
X235086900Y-106648400D03*
X235086900Y-108548400D03*
%TD*%
D26*
%TO.C,C20*%
X240113000Y-108128400D03*
X240113000Y-106578400D03*
%TD*%
D13*
%TO.C,R1*%
X242015600Y-133506400D03*
X243840600Y-133506400D03*
%TD*%
D22*
%TO.C,R14*%
X209402000Y-140589200D03*
X209402000Y-138764200D03*
%TD*%
D24*
%TO.C,R4*%
X239456600Y-128426400D03*
X237631600Y-128426400D03*
%TD*%
D11*
%TO.C,R8*%
X226115200Y-125659700D03*
X226115200Y-127484700D03*
%TD*%
D27*
%TO.C,D3*%
X239710400Y-111738600D03*
X235335400Y-111738600D03*
%TD*%
D28*
%TO.C,U1*%
X209442800Y-125973000D03*
X209442800Y-126623000D03*
X209442800Y-127273000D03*
X209442800Y-127923000D03*
X209442800Y-128573000D03*
X209442800Y-129223000D03*
X209442800Y-129873000D03*
X209442800Y-130523000D03*
X209442800Y-131173000D03*
X209442800Y-131823000D03*
X209442800Y-132473000D03*
X209442800Y-133123000D03*
X209442800Y-133773000D03*
X209442800Y-134423000D03*
X215167800Y-134423000D03*
X215167800Y-133773000D03*
X215167800Y-133123000D03*
X215167800Y-132473000D03*
X215167800Y-131823000D03*
X215167800Y-131173000D03*
X215167800Y-130523000D03*
X215167800Y-129873000D03*
X215167800Y-129223000D03*
X215167800Y-128573000D03*
X215167800Y-127923000D03*
X215167800Y-127273000D03*
X215167800Y-126623000D03*
X215167800Y-125973000D03*
%TD*%
D13*
%TO.C,R3*%
X242220700Y-124667200D03*
X244045700Y-124667200D03*
%TD*%
D24*
%TO.C,R12*%
X219988800Y-140927000D03*
X218163800Y-140927000D03*
%TD*%
D16*
%TO.C,C2*%
X217885800Y-131239000D03*
X219785800Y-131239000D03*
%TD*%
D22*
%TO.C,R13*%
X211815000Y-140589200D03*
X211815000Y-138764200D03*
%TD*%
D13*
%TO.C,R17*%
X226535800Y-140212000D03*
X228360800Y-140212000D03*
%TD*%
D14*
%TO.C,C9*%
X205515800Y-109960600D03*
X205515800Y-112910600D03*
%TD*%
D15*
%TO.C,Q2*%
X242147200Y-138550800D03*
X242147200Y-140450800D03*
X244022200Y-139500800D03*
%TD*%
D16*
%TO.C,C4*%
X217773800Y-135946700D03*
X219673800Y-135946700D03*
%TD*%
%TO.C,C12*%
X218088800Y-138768000D03*
X219988800Y-138768000D03*
%TD*%
D10*
%TO.C,C11*%
X230726800Y-131571000D03*
X230726800Y-129671000D03*
%TD*%
D17*
%TO.C,L1*%
X232592300Y-116590000D03*
X236376800Y-116590000D03*
%TD*%
D14*
%TO.C,C5*%
X226196400Y-109859000D03*
X226196400Y-112809000D03*
%TD*%
D18*
%TO.C,C7*%
X229168200Y-109808200D03*
X229168200Y-111708200D03*
%TD*%
D13*
%TO.C,R7*%
X226421900Y-130966400D03*
X228246900Y-130966400D03*
%TD*%
D19*
%TO.C,C1*%
X239282600Y-120679400D03*
X237382600Y-120679400D03*
%TD*%
D10*
%TO.C,C16*%
X217885600Y-125210800D03*
X217885600Y-123310800D03*
%TD*%
D20*
%TO.C,D2*%
X239668300Y-138339000D03*
X237618300Y-138339000D03*
%TD*%
D15*
%TO.C,Q1*%
X242246500Y-128213000D03*
X242246500Y-130113000D03*
X244121500Y-129163000D03*
%TD*%
D10*
%TO.C,C18*%
X232795400Y-112470200D03*
X232795400Y-110570200D03*
%TD*%
%TO.C,C13*%
X233393800Y-131571000D03*
X233393800Y-129671000D03*
%TD*%
D13*
%TO.C,R5*%
X237735100Y-140491400D03*
X239560100Y-140491400D03*
%TD*%
D10*
%TO.C,C15*%
X212170600Y-123900200D03*
X212170600Y-122000200D03*
%TD*%
%TO.C,C17*%
X220197000Y-125200600D03*
X220197000Y-123300600D03*
%TD*%
D11*
%TO.C,R21*%
X242195800Y-106579000D03*
X242195800Y-108404000D03*
%TD*%
D12*
%TO.C,U2*%
X226473800Y-133608000D03*
X226473800Y-134878000D03*
X226473800Y-136148000D03*
X226473800Y-137418000D03*
X231423800Y-137418000D03*
X231423800Y-136148000D03*
X231423800Y-134878000D03*
X231423800Y-133608000D03*
%TD*%
D10*
%TO.C,C17*%
X220171000Y-41217800D03*
X220171000Y-39317800D03*
%TD*%
D11*
%TO.C,R21*%
X242169800Y-22596200D03*
X242169800Y-24421200D03*
%TD*%
D12*
%TO.C,U2*%
X226447800Y-49625200D03*
X226447800Y-50895200D03*
X226447800Y-52165200D03*
X226447800Y-53435200D03*
X231397800Y-53435200D03*
X231397800Y-52165200D03*
X231397800Y-50895200D03*
X231397800Y-49625200D03*
%TD*%
D13*
%TO.C,R17*%
X226509800Y-56229200D03*
X228334800Y-56229200D03*
%TD*%
D14*
%TO.C,C9*%
X205489800Y-25977800D03*
X205489800Y-28927800D03*
%TD*%
D15*
%TO.C,Q2*%
X242121200Y-54568000D03*
X242121200Y-56468000D03*
X243996200Y-55518000D03*
%TD*%
D16*
%TO.C,C4*%
X217747800Y-51963900D03*
X219647800Y-51963900D03*
%TD*%
%TO.C,C12*%
X218062800Y-54785200D03*
X219962800Y-54785200D03*
%TD*%
D10*
%TO.C,C11*%
X230700800Y-47588200D03*
X230700800Y-45688200D03*
%TD*%
D17*
%TO.C,L1*%
X232566300Y-32607200D03*
X236350800Y-32607200D03*
%TD*%
D14*
%TO.C,C5*%
X226170400Y-25876200D03*
X226170400Y-28826200D03*
%TD*%
D18*
%TO.C,C7*%
X229142200Y-25825400D03*
X229142200Y-27725400D03*
%TD*%
D13*
%TO.C,R7*%
X226395900Y-46983600D03*
X228220900Y-46983600D03*
%TD*%
D19*
%TO.C,C1*%
X239256600Y-36696600D03*
X237356600Y-36696600D03*
%TD*%
D10*
%TO.C,C16*%
X217859600Y-41228000D03*
X217859600Y-39328000D03*
%TD*%
D20*
%TO.C,D2*%
X239642300Y-54356200D03*
X237592300Y-54356200D03*
%TD*%
D15*
%TO.C,Q1*%
X242220500Y-44230200D03*
X242220500Y-46130200D03*
X244095500Y-45180200D03*
%TD*%
D10*
%TO.C,C18*%
X232769400Y-28487400D03*
X232769400Y-26587400D03*
%TD*%
%TO.C,C13*%
X233367800Y-47588200D03*
X233367800Y-45688200D03*
%TD*%
D13*
%TO.C,R5*%
X237709100Y-56508600D03*
X239534100Y-56508600D03*
%TD*%
D10*
%TO.C,C15*%
X212144600Y-39917400D03*
X212144600Y-38017400D03*
%TD*%
%TO.C,C14*%
X214506800Y-39942800D03*
X214506800Y-38042800D03*
%TD*%
D21*
%TO.C,C8*%
X211768600Y-23473400D03*
X211768600Y-28873400D03*
%TD*%
D22*
%TO.C,R9*%
X228248200Y-43501900D03*
X228248200Y-41676900D03*
%TD*%
D23*
%TO.C,D1*%
X237747100Y-46856600D03*
X239797100Y-46856600D03*
%TD*%
D19*
%TO.C,C19*%
X243615200Y-26587400D03*
X241715200Y-26587400D03*
%TD*%
D24*
%TO.C,R11*%
X239256600Y-38982600D03*
X237431600Y-38982600D03*
%TD*%
D16*
%TO.C,C3*%
X217925600Y-44469000D03*
X219825600Y-44469000D03*
%TD*%
D18*
%TO.C,C10*%
X202568800Y-25901600D03*
X202568800Y-27801600D03*
%TD*%
D25*
%TO.C,U5*%
X237335900Y-24565600D03*
X237335900Y-23615600D03*
X237335900Y-22665600D03*
X235060900Y-22665600D03*
X235060900Y-24565600D03*
%TD*%
D26*
%TO.C,C20*%
X240087000Y-24145600D03*
X240087000Y-22595600D03*
%TD*%
D13*
%TO.C,R1*%
X241989600Y-49523600D03*
X243814600Y-49523600D03*
%TD*%
D22*
%TO.C,R14*%
X209376000Y-56606400D03*
X209376000Y-54781400D03*
%TD*%
D24*
%TO.C,R4*%
X239430600Y-44443600D03*
X237605600Y-44443600D03*
%TD*%
D11*
%TO.C,R8*%
X226089200Y-41676900D03*
X226089200Y-43501900D03*
%TD*%
D27*
%TO.C,D3*%
X239684400Y-27755800D03*
X235309400Y-27755800D03*
%TD*%
D28*
%TO.C,U1*%
X209416800Y-41990200D03*
X209416800Y-42640200D03*
X209416800Y-43290200D03*
X209416800Y-43940200D03*
X209416800Y-44590200D03*
X209416800Y-45240200D03*
X209416800Y-45890200D03*
X209416800Y-46540200D03*
X209416800Y-47190200D03*
X209416800Y-47840200D03*
X209416800Y-48490200D03*
X209416800Y-49140200D03*
X209416800Y-49790200D03*
X209416800Y-50440200D03*
X215141800Y-50440200D03*
X215141800Y-49790200D03*
X215141800Y-49140200D03*
X215141800Y-48490200D03*
X215141800Y-47840200D03*
X215141800Y-47190200D03*
X215141800Y-46540200D03*
X215141800Y-45890200D03*
X215141800Y-45240200D03*
X215141800Y-44590200D03*
X215141800Y-43940200D03*
X215141800Y-43290200D03*
X215141800Y-42640200D03*
X215141800Y-41990200D03*
%TD*%
D13*
%TO.C,R3*%
X242194700Y-40684400D03*
X244019700Y-40684400D03*
%TD*%
D24*
%TO.C,R12*%
X219962800Y-56944200D03*
X218137800Y-56944200D03*
%TD*%
D16*
%TO.C,C2*%
X217859800Y-47256200D03*
X219759800Y-47256200D03*
%TD*%
D22*
%TO.C,R13*%
X211789000Y-56606400D03*
X211789000Y-54781400D03*
%TD*%
%TO.C,R20*%
X244278000Y-24395800D03*
X244278000Y-22570800D03*
%TD*%
D13*
%TO.C,R6*%
X230239800Y-56229200D03*
X232064800Y-56229200D03*
%TD*%
D21*
%TO.C,C6*%
X219464800Y-23488600D03*
X219464800Y-28888600D03*
%TD*%
D24*
%TO.C,R16*%
X239396900Y-41522600D03*
X237571900Y-41522600D03*
%TD*%
D11*
%TO.C,R22*%
X232769400Y-22701200D03*
X232769400Y-24526200D03*
%TD*%
D29*
%TO.C,U3*%
X216091800Y-54658200D03*
X215141800Y-54658200D03*
X214191800Y-54658200D03*
X214191800Y-56933200D03*
X216091800Y-56933200D03*
%TD*%
D24*
%TO.C,R2*%
X243836200Y-51784200D03*
X242011200Y-51784200D03*
%TD*%
D22*
%TO.C,R10*%
X223600000Y-43476500D03*
X223600000Y-41651500D03*
%TD*%
D24*
%TO.C,R15*%
X219661100Y-49701400D03*
X217836100Y-49701400D03*
%TD*%
D13*
%TO.C,R18*%
X237698900Y-52063600D03*
X239523900Y-52063600D03*
%TD*%
D24*
%TO.C,R19*%
X239536000Y-49345800D03*
X237711000Y-49345800D03*
%TD*%
D17*
%TO.C,L1*%
X136152500Y-116618400D03*
X139937000Y-116618400D03*
%TD*%
D21*
%TO.C,C8*%
X115354800Y-107484600D03*
X115354800Y-112884600D03*
%TD*%
D13*
%TO.C,R7*%
X129982100Y-130994800D03*
X131807100Y-130994800D03*
%TD*%
D20*
%TO.C,D2*%
X143228500Y-138367400D03*
X141178500Y-138367400D03*
%TD*%
D11*
%TO.C,R21*%
X145756000Y-106607400D03*
X145756000Y-108432400D03*
%TD*%
D10*
%TO.C,C11*%
X134287000Y-131599400D03*
X134287000Y-129699400D03*
%TD*%
D12*
%TO.C,U2*%
X130034000Y-133636400D03*
X130034000Y-134906400D03*
X130034000Y-136176400D03*
X130034000Y-137446400D03*
X134984000Y-137446400D03*
X134984000Y-136176400D03*
X134984000Y-134906400D03*
X134984000Y-133636400D03*
%TD*%
D15*
%TO.C,Q1*%
X145806700Y-128241400D03*
X145806700Y-130141400D03*
X147681700Y-129191400D03*
%TD*%
D18*
%TO.C,C7*%
X132728400Y-109836600D03*
X132728400Y-111736600D03*
%TD*%
D13*
%TO.C,R17*%
X130096000Y-140240400D03*
X131921000Y-140240400D03*
%TD*%
D15*
%TO.C,Q2*%
X145707400Y-138579200D03*
X145707400Y-140479200D03*
X147582400Y-139529200D03*
%TD*%
D10*
%TO.C,C16*%
X121445800Y-125239200D03*
X121445800Y-123339200D03*
%TD*%
D19*
%TO.C,C1*%
X142842800Y-120707800D03*
X140942800Y-120707800D03*
%TD*%
D22*
%TO.C,R9*%
X131834400Y-127513100D03*
X131834400Y-125688100D03*
%TD*%
D16*
%TO.C,C4*%
X121334000Y-135975100D03*
X123234000Y-135975100D03*
%TD*%
%TO.C,C12*%
X121649000Y-138796400D03*
X123549000Y-138796400D03*
%TD*%
D14*
%TO.C,C9*%
X109076000Y-109989000D03*
X109076000Y-112939000D03*
%TD*%
D10*
%TO.C,C17*%
X123757200Y-125229000D03*
X123757200Y-123329000D03*
%TD*%
%TO.C,C14*%
X118093000Y-123954000D03*
X118093000Y-122054000D03*
%TD*%
D14*
%TO.C,C5*%
X129756600Y-109887400D03*
X129756600Y-112837400D03*
%TD*%
D10*
%TO.C,C18*%
X136355600Y-112498600D03*
X136355600Y-110598600D03*
%TD*%
%TO.C,C15*%
X115730800Y-123928600D03*
X115730800Y-122028600D03*
%TD*%
%TO.C,C13*%
X136954000Y-131599400D03*
X136954000Y-129699400D03*
%TD*%
D13*
%TO.C,R5*%
X141295300Y-140519800D03*
X143120300Y-140519800D03*
%TD*%
D10*
%TO.C,C17*%
X75507200Y-125234400D03*
X75507200Y-123334400D03*
%TD*%
D11*
%TO.C,R21*%
X97506000Y-106612800D03*
X97506000Y-108437800D03*
%TD*%
D12*
%TO.C,U2*%
X81784000Y-133641800D03*
X81784000Y-134911800D03*
X81784000Y-136181800D03*
X81784000Y-137451800D03*
X86734000Y-137451800D03*
X86734000Y-136181800D03*
X86734000Y-134911800D03*
X86734000Y-133641800D03*
%TD*%
D23*
%TO.C,D1*%
X141333300Y-130867800D03*
X143383300Y-130867800D03*
%TD*%
D10*
%TO.C,C17*%
X171993200Y-125229000D03*
X171993200Y-123329000D03*
%TD*%
D11*
%TO.C,R21*%
X193992000Y-106607400D03*
X193992000Y-108432400D03*
%TD*%
D12*
%TO.C,U2*%
X178270000Y-133636400D03*
X178270000Y-134906400D03*
X178270000Y-136176400D03*
X178270000Y-137446400D03*
X183220000Y-137446400D03*
X183220000Y-136176400D03*
X183220000Y-134906400D03*
X183220000Y-133636400D03*
%TD*%
D13*
%TO.C,R17*%
X178332000Y-140240400D03*
X180157000Y-140240400D03*
%TD*%
D14*
%TO.C,C9*%
X157312000Y-109989000D03*
X157312000Y-112939000D03*
%TD*%
D15*
%TO.C,Q2*%
X193943400Y-138579200D03*
X193943400Y-140479200D03*
X195818400Y-139529200D03*
%TD*%
D16*
%TO.C,C4*%
X169570000Y-135975100D03*
X171470000Y-135975100D03*
%TD*%
%TO.C,C12*%
X169885000Y-138796400D03*
X171785000Y-138796400D03*
%TD*%
D10*
%TO.C,C11*%
X182523000Y-131599400D03*
X182523000Y-129699400D03*
%TD*%
D17*
%TO.C,L1*%
X184388500Y-116618400D03*
X188173000Y-116618400D03*
%TD*%
D14*
%TO.C,C5*%
X177992600Y-109887400D03*
X177992600Y-112837400D03*
%TD*%
D18*
%TO.C,C7*%
X180964400Y-109836600D03*
X180964400Y-111736600D03*
%TD*%
D13*
%TO.C,R7*%
X178218100Y-130994800D03*
X180043100Y-130994800D03*
%TD*%
D19*
%TO.C,C1*%
X191078800Y-120707800D03*
X189178800Y-120707800D03*
%TD*%
D10*
%TO.C,C16*%
X169681800Y-125239200D03*
X169681800Y-123339200D03*
%TD*%
D20*
%TO.C,D2*%
X191464500Y-138367400D03*
X189414500Y-138367400D03*
%TD*%
D15*
%TO.C,Q1*%
X194042700Y-128241400D03*
X194042700Y-130141400D03*
X195917700Y-129191400D03*
%TD*%
D10*
%TO.C,C18*%
X184591600Y-112498600D03*
X184591600Y-110598600D03*
%TD*%
%TO.C,C13*%
X185190000Y-131599400D03*
X185190000Y-129699400D03*
%TD*%
D13*
%TO.C,R5*%
X189531300Y-140519800D03*
X191356300Y-140519800D03*
%TD*%
D10*
%TO.C,C15*%
X163966800Y-123928600D03*
X163966800Y-122028600D03*
%TD*%
%TO.C,C14*%
X166329000Y-123954000D03*
X166329000Y-122054000D03*
%TD*%
D21*
%TO.C,C8*%
X163590800Y-107484600D03*
X163590800Y-112884600D03*
%TD*%
D22*
%TO.C,R9*%
X180070400Y-127513100D03*
X180070400Y-125688100D03*
%TD*%
D23*
%TO.C,D1*%
X189569300Y-130867800D03*
X191619300Y-130867800D03*
%TD*%
D19*
%TO.C,C19*%
X195437400Y-110598600D03*
X193537400Y-110598600D03*
%TD*%
D24*
%TO.C,R11*%
X191078800Y-122993800D03*
X189253800Y-122993800D03*
%TD*%
D16*
%TO.C,C3*%
X169747800Y-128480200D03*
X171647800Y-128480200D03*
%TD*%
D18*
%TO.C,C10*%
X154391000Y-109912800D03*
X154391000Y-111812800D03*
%TD*%
D25*
%TO.C,U5*%
X189158100Y-108576800D03*
X189158100Y-107626800D03*
X189158100Y-106676800D03*
X186883100Y-106676800D03*
X186883100Y-108576800D03*
%TD*%
D26*
%TO.C,C20*%
X191909200Y-108156800D03*
X191909200Y-106606800D03*
%TD*%
D13*
%TO.C,R1*%
X193811800Y-133534800D03*
X195636800Y-133534800D03*
%TD*%
D22*
%TO.C,R14*%
X161198200Y-140617600D03*
X161198200Y-138792600D03*
%TD*%
D24*
%TO.C,R4*%
X191252800Y-128454800D03*
X189427800Y-128454800D03*
%TD*%
D11*
%TO.C,R8*%
X177911400Y-125688100D03*
X177911400Y-127513100D03*
%TD*%
D27*
%TO.C,D3*%
X191506600Y-111767000D03*
X187131600Y-111767000D03*
%TD*%
D28*
%TO.C,U1*%
X161239000Y-126001400D03*
X161239000Y-126651400D03*
X161239000Y-127301400D03*
X161239000Y-127951400D03*
X161239000Y-128601400D03*
X161239000Y-129251400D03*
X161239000Y-129901400D03*
X161239000Y-130551400D03*
X161239000Y-131201400D03*
X161239000Y-131851400D03*
X161239000Y-132501400D03*
X161239000Y-133151400D03*
X161239000Y-133801400D03*
X161239000Y-134451400D03*
X166964000Y-134451400D03*
X166964000Y-133801400D03*
X166964000Y-133151400D03*
X166964000Y-132501400D03*
X166964000Y-131851400D03*
X166964000Y-131201400D03*
X166964000Y-130551400D03*
X166964000Y-129901400D03*
X166964000Y-129251400D03*
X166964000Y-128601400D03*
X166964000Y-127951400D03*
X166964000Y-127301400D03*
X166964000Y-126651400D03*
X166964000Y-126001400D03*
%TD*%
D13*
%TO.C,R3*%
X194016900Y-124695600D03*
X195841900Y-124695600D03*
%TD*%
D24*
%TO.C,R12*%
X171785000Y-140955400D03*
X169960000Y-140955400D03*
%TD*%
D16*
%TO.C,C2*%
X169682000Y-131267400D03*
X171582000Y-131267400D03*
%TD*%
D22*
%TO.C,R13*%
X163611200Y-140617600D03*
X163611200Y-138792600D03*
%TD*%
%TO.C,R20*%
X196100200Y-108407000D03*
X196100200Y-106582000D03*
%TD*%
D13*
%TO.C,R6*%
X182062000Y-140240400D03*
X183887000Y-140240400D03*
%TD*%
D21*
%TO.C,C6*%
X171287000Y-107499800D03*
X171287000Y-112899800D03*
%TD*%
D24*
%TO.C,R16*%
X191219100Y-125533800D03*
X189394100Y-125533800D03*
%TD*%
D11*
%TO.C,R22*%
X184591600Y-106712400D03*
X184591600Y-108537400D03*
%TD*%
D29*
%TO.C,U3*%
X167914000Y-138669400D03*
X166964000Y-138669400D03*
X166014000Y-138669400D03*
X166014000Y-140944400D03*
X167914000Y-140944400D03*
%TD*%
D19*
%TO.C,C19*%
X147201400Y-110598600D03*
X145301400Y-110598600D03*
%TD*%
D24*
%TO.C,R11*%
X142842800Y-122993800D03*
X141017800Y-122993800D03*
%TD*%
D16*
%TO.C,C3*%
X121511800Y-128480200D03*
X123411800Y-128480200D03*
%TD*%
D18*
%TO.C,C10*%
X106155000Y-109912800D03*
X106155000Y-111812800D03*
%TD*%
D25*
%TO.C,U5*%
X140922100Y-108576800D03*
X140922100Y-107626800D03*
X140922100Y-106676800D03*
X138647100Y-106676800D03*
X138647100Y-108576800D03*
%TD*%
D26*
%TO.C,C20*%
X143673200Y-108156800D03*
X143673200Y-106606800D03*
%TD*%
D13*
%TO.C,R1*%
X145575800Y-133534800D03*
X147400800Y-133534800D03*
%TD*%
D22*
%TO.C,R14*%
X112962200Y-140617600D03*
X112962200Y-138792600D03*
%TD*%
D24*
%TO.C,R4*%
X143016800Y-128454800D03*
X141191800Y-128454800D03*
%TD*%
D21*
%TO.C,C6*%
X123051000Y-107499800D03*
X123051000Y-112899800D03*
%TD*%
D24*
%TO.C,R16*%
X142983100Y-125533800D03*
X141158100Y-125533800D03*
%TD*%
D11*
%TO.C,R22*%
X136355600Y-106712400D03*
X136355600Y-108537400D03*
%TD*%
%TO.C,R8*%
X129675400Y-125688100D03*
X129675400Y-127513100D03*
%TD*%
D27*
%TO.C,D3*%
X143270600Y-111767000D03*
X138895600Y-111767000D03*
%TD*%
D28*
%TO.C,U1*%
X113003000Y-126001400D03*
X113003000Y-126651400D03*
X113003000Y-127301400D03*
X113003000Y-127951400D03*
X113003000Y-128601400D03*
X113003000Y-129251400D03*
X113003000Y-129901400D03*
X113003000Y-130551400D03*
X113003000Y-131201400D03*
X113003000Y-131851400D03*
X113003000Y-132501400D03*
X113003000Y-133151400D03*
X113003000Y-133801400D03*
X113003000Y-134451400D03*
X118728000Y-134451400D03*
X118728000Y-133801400D03*
X118728000Y-133151400D03*
X118728000Y-132501400D03*
X118728000Y-131851400D03*
X118728000Y-131201400D03*
X118728000Y-130551400D03*
X118728000Y-129901400D03*
X118728000Y-129251400D03*
X118728000Y-128601400D03*
X118728000Y-127951400D03*
X118728000Y-127301400D03*
X118728000Y-126651400D03*
X118728000Y-126001400D03*
%TD*%
D13*
%TO.C,R3*%
X145780900Y-124695600D03*
X147605900Y-124695600D03*
%TD*%
D24*
%TO.C,R12*%
X123549000Y-140955400D03*
X121724000Y-140955400D03*
%TD*%
D16*
%TO.C,C2*%
X121446000Y-131267400D03*
X123346000Y-131267400D03*
%TD*%
D22*
%TO.C,R13*%
X115375200Y-140617600D03*
X115375200Y-138792600D03*
%TD*%
%TO.C,R20*%
X147864200Y-108407000D03*
X147864200Y-106582000D03*
%TD*%
D13*
%TO.C,R18*%
X141285100Y-136074800D03*
X143110100Y-136074800D03*
%TD*%
%TO.C,R6*%
X133826000Y-140240400D03*
X135651000Y-140240400D03*
%TD*%
D22*
%TO.C,R10*%
X127186200Y-127487700D03*
X127186200Y-125662700D03*
%TD*%
D24*
%TO.C,R15*%
X123247300Y-133712600D03*
X121422300Y-133712600D03*
%TD*%
%TO.C,R2*%
X195658400Y-135795400D03*
X193833400Y-135795400D03*
%TD*%
D22*
%TO.C,R10*%
X175422200Y-127487700D03*
X175422200Y-125662700D03*
%TD*%
D24*
%TO.C,R15*%
X171483300Y-133712600D03*
X169658300Y-133712600D03*
%TD*%
%TO.C,R2*%
X147422400Y-135795400D03*
X145597400Y-135795400D03*
%TD*%
D13*
%TO.C,R18*%
X189521100Y-136074800D03*
X191346100Y-136074800D03*
%TD*%
D24*
%TO.C,R19*%
X191358200Y-133357000D03*
X189533200Y-133357000D03*
%TD*%
D29*
%TO.C,U3*%
X119678000Y-138669400D03*
X118728000Y-138669400D03*
X117778000Y-138669400D03*
X117778000Y-140944400D03*
X119678000Y-140944400D03*
%TD*%
D24*
%TO.C,R19*%
X143122200Y-133357000D03*
X141297200Y-133357000D03*
%TD*%
D13*
%TO.C,R17*%
X81846000Y-140245800D03*
X83671000Y-140245800D03*
%TD*%
D14*
%TO.C,C9*%
X60826000Y-109994400D03*
X60826000Y-112944400D03*
%TD*%
D15*
%TO.C,Q2*%
X97457400Y-138584600D03*
X97457400Y-140484600D03*
X99332400Y-139534600D03*
%TD*%
D16*
%TO.C,C4*%
X73084000Y-135980500D03*
X74984000Y-135980500D03*
%TD*%
%TO.C,C12*%
X73399000Y-138801800D03*
X75299000Y-138801800D03*
%TD*%
D10*
%TO.C,C11*%
X86037000Y-131604800D03*
X86037000Y-129704800D03*
%TD*%
D17*
%TO.C,L1*%
X87902500Y-116623800D03*
X91687000Y-116623800D03*
%TD*%
D14*
%TO.C,C5*%
X81506600Y-109892800D03*
X81506600Y-112842800D03*
%TD*%
D18*
%TO.C,C7*%
X84478400Y-109842000D03*
X84478400Y-111742000D03*
%TD*%
D13*
%TO.C,R7*%
X81732100Y-131000200D03*
X83557100Y-131000200D03*
%TD*%
D19*
%TO.C,C1*%
X94592800Y-120713200D03*
X92692800Y-120713200D03*
%TD*%
D10*
%TO.C,C16*%
X73195800Y-125244600D03*
X73195800Y-123344600D03*
%TD*%
D20*
%TO.C,D2*%
X94978500Y-138372800D03*
X92928500Y-138372800D03*
%TD*%
D15*
%TO.C,Q1*%
X97556700Y-128246800D03*
X97556700Y-130146800D03*
X99431700Y-129196800D03*
%TD*%
D10*
%TO.C,C18*%
X88105600Y-112504000D03*
X88105600Y-110604000D03*
%TD*%
%TO.C,C13*%
X88704000Y-131604800D03*
X88704000Y-129704800D03*
%TD*%
D13*
%TO.C,R5*%
X93045300Y-140525200D03*
X94870300Y-140525200D03*
%TD*%
D10*
%TO.C,C15*%
X67480800Y-123934000D03*
X67480800Y-122034000D03*
%TD*%
%TO.C,C14*%
X69843000Y-123959400D03*
X69843000Y-122059400D03*
%TD*%
D21*
%TO.C,C8*%
X67104800Y-107490000D03*
X67104800Y-112890000D03*
%TD*%
D22*
%TO.C,R9*%
X83584400Y-127518500D03*
X83584400Y-125693500D03*
%TD*%
D23*
%TO.C,D1*%
X93083300Y-130873200D03*
X95133300Y-130873200D03*
%TD*%
D19*
%TO.C,C19*%
X98951400Y-110604000D03*
X97051400Y-110604000D03*
%TD*%
D24*
%TO.C,R11*%
X94592800Y-122999200D03*
X92767800Y-122999200D03*
%TD*%
D16*
%TO.C,C3*%
X73261800Y-128485600D03*
X75161800Y-128485600D03*
%TD*%
D18*
%TO.C,C10*%
X57905000Y-109918200D03*
X57905000Y-111818200D03*
%TD*%
D25*
%TO.C,U5*%
X92672100Y-108582200D03*
X92672100Y-107632200D03*
X92672100Y-106682200D03*
X90397100Y-106682200D03*
X90397100Y-108582200D03*
%TD*%
D26*
%TO.C,C20*%
X95423200Y-108162200D03*
X95423200Y-106612200D03*
%TD*%
D13*
%TO.C,R1*%
X97325800Y-133540200D03*
X99150800Y-133540200D03*
%TD*%
D22*
%TO.C,R14*%
X64712200Y-140623000D03*
X64712200Y-138798000D03*
%TD*%
D24*
%TO.C,R4*%
X94766800Y-128460200D03*
X92941800Y-128460200D03*
%TD*%
D21*
%TO.C,C6*%
X74801000Y-107505200D03*
X74801000Y-112905200D03*
%TD*%
D24*
%TO.C,R16*%
X94733100Y-125539200D03*
X92908100Y-125539200D03*
%TD*%
D11*
%TO.C,R22*%
X88105600Y-106717800D03*
X88105600Y-108542800D03*
%TD*%
%TO.C,R8*%
X81425400Y-125693500D03*
X81425400Y-127518500D03*
%TD*%
D27*
%TO.C,D3*%
X95020600Y-111772400D03*
X90645600Y-111772400D03*
%TD*%
D28*
%TO.C,U1*%
X64753000Y-126006800D03*
X64753000Y-126656800D03*
X64753000Y-127306800D03*
X64753000Y-127956800D03*
X64753000Y-128606800D03*
X64753000Y-129256800D03*
X64753000Y-129906800D03*
X64753000Y-130556800D03*
X64753000Y-131206800D03*
X64753000Y-131856800D03*
X64753000Y-132506800D03*
X64753000Y-133156800D03*
X64753000Y-133806800D03*
X64753000Y-134456800D03*
X70478000Y-134456800D03*
X70478000Y-133806800D03*
X70478000Y-133156800D03*
X70478000Y-132506800D03*
X70478000Y-131856800D03*
X70478000Y-131206800D03*
X70478000Y-130556800D03*
X70478000Y-129906800D03*
X70478000Y-129256800D03*
X70478000Y-128606800D03*
X70478000Y-127956800D03*
X70478000Y-127306800D03*
X70478000Y-126656800D03*
X70478000Y-126006800D03*
%TD*%
D13*
%TO.C,R3*%
X97530900Y-124701000D03*
X99355900Y-124701000D03*
%TD*%
D24*
%TO.C,R12*%
X75299000Y-140960800D03*
X73474000Y-140960800D03*
%TD*%
D16*
%TO.C,C2*%
X73196000Y-131272800D03*
X75096000Y-131272800D03*
%TD*%
D22*
%TO.C,R13*%
X67125200Y-140623000D03*
X67125200Y-138798000D03*
%TD*%
%TO.C,R20*%
X99614200Y-108412400D03*
X99614200Y-106587400D03*
%TD*%
D13*
%TO.C,R6*%
X85576000Y-140245800D03*
X87401000Y-140245800D03*
%TD*%
D24*
%TO.C,R15*%
X74997300Y-133718000D03*
X73172300Y-133718000D03*
%TD*%
D13*
%TO.C,R18*%
X93035100Y-136080200D03*
X94860100Y-136080200D03*
%TD*%
D29*
%TO.C,U3*%
X71428000Y-138674800D03*
X70478000Y-138674800D03*
X69528000Y-138674800D03*
X69528000Y-140949800D03*
X71428000Y-140949800D03*
%TD*%
D24*
%TO.C,R2*%
X99172400Y-135800800D03*
X97347400Y-135800800D03*
%TD*%
D22*
%TO.C,R10*%
X78936200Y-127493100D03*
X78936200Y-125668100D03*
%TD*%
D24*
%TO.C,R19*%
X94872200Y-133362400D03*
X93047200Y-133362400D03*
%TD*%
D17*
%TO.C,L1*%
X136152500Y-74618400D03*
X139937000Y-74618400D03*
%TD*%
D21*
%TO.C,C8*%
X115354800Y-65484600D03*
X115354800Y-70884600D03*
%TD*%
D13*
%TO.C,R7*%
X129982100Y-88994800D03*
X131807100Y-88994800D03*
%TD*%
D20*
%TO.C,D2*%
X143228500Y-96367400D03*
X141178500Y-96367400D03*
%TD*%
D11*
%TO.C,R21*%
X145756000Y-64607400D03*
X145756000Y-66432400D03*
%TD*%
D10*
%TO.C,C11*%
X134287000Y-89599400D03*
X134287000Y-87699400D03*
%TD*%
D12*
%TO.C,U2*%
X130034000Y-91636400D03*
X130034000Y-92906400D03*
X130034000Y-94176400D03*
X130034000Y-95446400D03*
X134984000Y-95446400D03*
X134984000Y-94176400D03*
X134984000Y-92906400D03*
X134984000Y-91636400D03*
%TD*%
D15*
%TO.C,Q1*%
X145806700Y-86241400D03*
X145806700Y-88141400D03*
X147681700Y-87191400D03*
%TD*%
D18*
%TO.C,C7*%
X132728400Y-67836600D03*
X132728400Y-69736600D03*
%TD*%
D13*
%TO.C,R17*%
X130096000Y-98240400D03*
X131921000Y-98240400D03*
%TD*%
D15*
%TO.C,Q2*%
X145707400Y-96579200D03*
X145707400Y-98479200D03*
X147582400Y-97529200D03*
%TD*%
D10*
%TO.C,C16*%
X121445800Y-83239200D03*
X121445800Y-81339200D03*
%TD*%
D19*
%TO.C,C1*%
X142842800Y-78707800D03*
X140942800Y-78707800D03*
%TD*%
D22*
%TO.C,R9*%
X131834400Y-85513100D03*
X131834400Y-83688100D03*
%TD*%
D16*
%TO.C,C4*%
X121334000Y-93975100D03*
X123234000Y-93975100D03*
%TD*%
%TO.C,C12*%
X121649000Y-96796400D03*
X123549000Y-96796400D03*
%TD*%
D14*
%TO.C,C9*%
X109076000Y-67989000D03*
X109076000Y-70939000D03*
%TD*%
D10*
%TO.C,C17*%
X123757200Y-83229000D03*
X123757200Y-81329000D03*
%TD*%
%TO.C,C14*%
X118093000Y-81954000D03*
X118093000Y-80054000D03*
%TD*%
D14*
%TO.C,C5*%
X129756600Y-67887400D03*
X129756600Y-70837400D03*
%TD*%
D10*
%TO.C,C18*%
X136355600Y-70498600D03*
X136355600Y-68598600D03*
%TD*%
%TO.C,C15*%
X115730800Y-81928600D03*
X115730800Y-80028600D03*
%TD*%
%TO.C,C13*%
X136954000Y-89599400D03*
X136954000Y-87699400D03*
%TD*%
D13*
%TO.C,R5*%
X141295300Y-98519800D03*
X143120300Y-98519800D03*
%TD*%
D10*
%TO.C,C17*%
X75507200Y-83234400D03*
X75507200Y-81334400D03*
%TD*%
D11*
%TO.C,R21*%
X97506000Y-64612800D03*
X97506000Y-66437800D03*
%TD*%
D12*
%TO.C,U2*%
X81784000Y-91641800D03*
X81784000Y-92911800D03*
X81784000Y-94181800D03*
X81784000Y-95451800D03*
X86734000Y-95451800D03*
X86734000Y-94181800D03*
X86734000Y-92911800D03*
X86734000Y-91641800D03*
%TD*%
D23*
%TO.C,D1*%
X141333300Y-88867800D03*
X143383300Y-88867800D03*
%TD*%
D10*
%TO.C,C17*%
X171993200Y-83229000D03*
X171993200Y-81329000D03*
%TD*%
D11*
%TO.C,R21*%
X193992000Y-64607400D03*
X193992000Y-66432400D03*
%TD*%
D12*
%TO.C,U2*%
X178270000Y-91636400D03*
X178270000Y-92906400D03*
X178270000Y-94176400D03*
X178270000Y-95446400D03*
X183220000Y-95446400D03*
X183220000Y-94176400D03*
X183220000Y-92906400D03*
X183220000Y-91636400D03*
%TD*%
D13*
%TO.C,R17*%
X178332000Y-98240400D03*
X180157000Y-98240400D03*
%TD*%
D14*
%TO.C,C9*%
X157312000Y-67989000D03*
X157312000Y-70939000D03*
%TD*%
D15*
%TO.C,Q2*%
X193943400Y-96579200D03*
X193943400Y-98479200D03*
X195818400Y-97529200D03*
%TD*%
D16*
%TO.C,C4*%
X169570000Y-93975100D03*
X171470000Y-93975100D03*
%TD*%
%TO.C,C12*%
X169885000Y-96796400D03*
X171785000Y-96796400D03*
%TD*%
D10*
%TO.C,C11*%
X182523000Y-89599400D03*
X182523000Y-87699400D03*
%TD*%
D17*
%TO.C,L1*%
X184388500Y-74618400D03*
X188173000Y-74618400D03*
%TD*%
D14*
%TO.C,C5*%
X177992600Y-67887400D03*
X177992600Y-70837400D03*
%TD*%
D18*
%TO.C,C7*%
X180964400Y-67836600D03*
X180964400Y-69736600D03*
%TD*%
D13*
%TO.C,R7*%
X178218100Y-88994800D03*
X180043100Y-88994800D03*
%TD*%
D19*
%TO.C,C1*%
X191078800Y-78707800D03*
X189178800Y-78707800D03*
%TD*%
D10*
%TO.C,C16*%
X169681800Y-83239200D03*
X169681800Y-81339200D03*
%TD*%
D20*
%TO.C,D2*%
X191464500Y-96367400D03*
X189414500Y-96367400D03*
%TD*%
D15*
%TO.C,Q1*%
X194042700Y-86241400D03*
X194042700Y-88141400D03*
X195917700Y-87191400D03*
%TD*%
D10*
%TO.C,C18*%
X184591600Y-70498600D03*
X184591600Y-68598600D03*
%TD*%
%TO.C,C13*%
X185190000Y-89599400D03*
X185190000Y-87699400D03*
%TD*%
D13*
%TO.C,R5*%
X189531300Y-98519800D03*
X191356300Y-98519800D03*
%TD*%
D10*
%TO.C,C15*%
X163966800Y-81928600D03*
X163966800Y-80028600D03*
%TD*%
%TO.C,C14*%
X166329000Y-81954000D03*
X166329000Y-80054000D03*
%TD*%
D21*
%TO.C,C8*%
X163590800Y-65484600D03*
X163590800Y-70884600D03*
%TD*%
D22*
%TO.C,R9*%
X180070400Y-85513100D03*
X180070400Y-83688100D03*
%TD*%
D23*
%TO.C,D1*%
X189569300Y-88867800D03*
X191619300Y-88867800D03*
%TD*%
D19*
%TO.C,C19*%
X195437400Y-68598600D03*
X193537400Y-68598600D03*
%TD*%
D24*
%TO.C,R11*%
X191078800Y-80993800D03*
X189253800Y-80993800D03*
%TD*%
D16*
%TO.C,C3*%
X169747800Y-86480200D03*
X171647800Y-86480200D03*
%TD*%
D18*
%TO.C,C10*%
X154391000Y-67912800D03*
X154391000Y-69812800D03*
%TD*%
D25*
%TO.C,U5*%
X189158100Y-66576800D03*
X189158100Y-65626800D03*
X189158100Y-64676800D03*
X186883100Y-64676800D03*
X186883100Y-66576800D03*
%TD*%
D26*
%TO.C,C20*%
X191909200Y-66156800D03*
X191909200Y-64606800D03*
%TD*%
D13*
%TO.C,R1*%
X193811800Y-91534800D03*
X195636800Y-91534800D03*
%TD*%
D22*
%TO.C,R14*%
X161198200Y-98617600D03*
X161198200Y-96792600D03*
%TD*%
D24*
%TO.C,R4*%
X191252800Y-86454800D03*
X189427800Y-86454800D03*
%TD*%
D11*
%TO.C,R8*%
X177911400Y-83688100D03*
X177911400Y-85513100D03*
%TD*%
D27*
%TO.C,D3*%
X191506600Y-69767000D03*
X187131600Y-69767000D03*
%TD*%
D28*
%TO.C,U1*%
X161239000Y-84001400D03*
X161239000Y-84651400D03*
X161239000Y-85301400D03*
X161239000Y-85951400D03*
X161239000Y-86601400D03*
X161239000Y-87251400D03*
X161239000Y-87901400D03*
X161239000Y-88551400D03*
X161239000Y-89201400D03*
X161239000Y-89851400D03*
X161239000Y-90501400D03*
X161239000Y-91151400D03*
X161239000Y-91801400D03*
X161239000Y-92451400D03*
X166964000Y-92451400D03*
X166964000Y-91801400D03*
X166964000Y-91151400D03*
X166964000Y-90501400D03*
X166964000Y-89851400D03*
X166964000Y-89201400D03*
X166964000Y-88551400D03*
X166964000Y-87901400D03*
X166964000Y-87251400D03*
X166964000Y-86601400D03*
X166964000Y-85951400D03*
X166964000Y-85301400D03*
X166964000Y-84651400D03*
X166964000Y-84001400D03*
%TD*%
D13*
%TO.C,R3*%
X194016900Y-82695600D03*
X195841900Y-82695600D03*
%TD*%
D24*
%TO.C,R12*%
X171785000Y-98955400D03*
X169960000Y-98955400D03*
%TD*%
D16*
%TO.C,C2*%
X169682000Y-89267400D03*
X171582000Y-89267400D03*
%TD*%
D22*
%TO.C,R13*%
X163611200Y-98617600D03*
X163611200Y-96792600D03*
%TD*%
%TO.C,R20*%
X196100200Y-66407000D03*
X196100200Y-64582000D03*
%TD*%
D13*
%TO.C,R6*%
X182062000Y-98240400D03*
X183887000Y-98240400D03*
%TD*%
D21*
%TO.C,C6*%
X171287000Y-65499800D03*
X171287000Y-70899800D03*
%TD*%
D24*
%TO.C,R16*%
X191219100Y-83533800D03*
X189394100Y-83533800D03*
%TD*%
D11*
%TO.C,R22*%
X184591600Y-64712400D03*
X184591600Y-66537400D03*
%TD*%
D29*
%TO.C,U3*%
X167914000Y-96669400D03*
X166964000Y-96669400D03*
X166014000Y-96669400D03*
X166014000Y-98944400D03*
X167914000Y-98944400D03*
%TD*%
D19*
%TO.C,C19*%
X147201400Y-68598600D03*
X145301400Y-68598600D03*
%TD*%
D24*
%TO.C,R11*%
X142842800Y-80993800D03*
X141017800Y-80993800D03*
%TD*%
D16*
%TO.C,C3*%
X121511800Y-86480200D03*
X123411800Y-86480200D03*
%TD*%
D18*
%TO.C,C10*%
X106155000Y-67912800D03*
X106155000Y-69812800D03*
%TD*%
D25*
%TO.C,U5*%
X140922100Y-66576800D03*
X140922100Y-65626800D03*
X140922100Y-64676800D03*
X138647100Y-64676800D03*
X138647100Y-66576800D03*
%TD*%
D26*
%TO.C,C20*%
X143673200Y-66156800D03*
X143673200Y-64606800D03*
%TD*%
D13*
%TO.C,R1*%
X145575800Y-91534800D03*
X147400800Y-91534800D03*
%TD*%
D22*
%TO.C,R14*%
X112962200Y-98617600D03*
X112962200Y-96792600D03*
%TD*%
D24*
%TO.C,R4*%
X143016800Y-86454800D03*
X141191800Y-86454800D03*
%TD*%
D21*
%TO.C,C6*%
X123051000Y-65499800D03*
X123051000Y-70899800D03*
%TD*%
D24*
%TO.C,R16*%
X142983100Y-83533800D03*
X141158100Y-83533800D03*
%TD*%
D11*
%TO.C,R22*%
X136355600Y-64712400D03*
X136355600Y-66537400D03*
%TD*%
%TO.C,R8*%
X129675400Y-83688100D03*
X129675400Y-85513100D03*
%TD*%
D27*
%TO.C,D3*%
X143270600Y-69767000D03*
X138895600Y-69767000D03*
%TD*%
D28*
%TO.C,U1*%
X113003000Y-84001400D03*
X113003000Y-84651400D03*
X113003000Y-85301400D03*
X113003000Y-85951400D03*
X113003000Y-86601400D03*
X113003000Y-87251400D03*
X113003000Y-87901400D03*
X113003000Y-88551400D03*
X113003000Y-89201400D03*
X113003000Y-89851400D03*
X113003000Y-90501400D03*
X113003000Y-91151400D03*
X113003000Y-91801400D03*
X113003000Y-92451400D03*
X118728000Y-92451400D03*
X118728000Y-91801400D03*
X118728000Y-91151400D03*
X118728000Y-90501400D03*
X118728000Y-89851400D03*
X118728000Y-89201400D03*
X118728000Y-88551400D03*
X118728000Y-87901400D03*
X118728000Y-87251400D03*
X118728000Y-86601400D03*
X118728000Y-85951400D03*
X118728000Y-85301400D03*
X118728000Y-84651400D03*
X118728000Y-84001400D03*
%TD*%
D13*
%TO.C,R3*%
X145780900Y-82695600D03*
X147605900Y-82695600D03*
%TD*%
D24*
%TO.C,R12*%
X123549000Y-98955400D03*
X121724000Y-98955400D03*
%TD*%
D16*
%TO.C,C2*%
X121446000Y-89267400D03*
X123346000Y-89267400D03*
%TD*%
D22*
%TO.C,R13*%
X115375200Y-98617600D03*
X115375200Y-96792600D03*
%TD*%
%TO.C,R20*%
X147864200Y-66407000D03*
X147864200Y-64582000D03*
%TD*%
D13*
%TO.C,R18*%
X141285100Y-94074800D03*
X143110100Y-94074800D03*
%TD*%
%TO.C,R6*%
X133826000Y-98240400D03*
X135651000Y-98240400D03*
%TD*%
D22*
%TO.C,R10*%
X127186200Y-85487700D03*
X127186200Y-83662700D03*
%TD*%
D24*
%TO.C,R15*%
X123247300Y-91712600D03*
X121422300Y-91712600D03*
%TD*%
%TO.C,R2*%
X195658400Y-93795400D03*
X193833400Y-93795400D03*
%TD*%
D22*
%TO.C,R10*%
X175422200Y-85487700D03*
X175422200Y-83662700D03*
%TD*%
D24*
%TO.C,R15*%
X171483300Y-91712600D03*
X169658300Y-91712600D03*
%TD*%
%TO.C,R2*%
X147422400Y-93795400D03*
X145597400Y-93795400D03*
%TD*%
D13*
%TO.C,R18*%
X189521100Y-94074800D03*
X191346100Y-94074800D03*
%TD*%
D24*
%TO.C,R19*%
X191358200Y-91357000D03*
X189533200Y-91357000D03*
%TD*%
D29*
%TO.C,U3*%
X119678000Y-96669400D03*
X118728000Y-96669400D03*
X117778000Y-96669400D03*
X117778000Y-98944400D03*
X119678000Y-98944400D03*
%TD*%
D24*
%TO.C,R19*%
X143122200Y-91357000D03*
X141297200Y-91357000D03*
%TD*%
D13*
%TO.C,R17*%
X81846000Y-98245800D03*
X83671000Y-98245800D03*
%TD*%
D14*
%TO.C,C9*%
X60826000Y-67994400D03*
X60826000Y-70944400D03*
%TD*%
D15*
%TO.C,Q2*%
X97457400Y-96584600D03*
X97457400Y-98484600D03*
X99332400Y-97534600D03*
%TD*%
D16*
%TO.C,C4*%
X73084000Y-93980500D03*
X74984000Y-93980500D03*
%TD*%
%TO.C,C12*%
X73399000Y-96801800D03*
X75299000Y-96801800D03*
%TD*%
D10*
%TO.C,C11*%
X86037000Y-89604800D03*
X86037000Y-87704800D03*
%TD*%
D17*
%TO.C,L1*%
X87902500Y-74623800D03*
X91687000Y-74623800D03*
%TD*%
D14*
%TO.C,C5*%
X81506600Y-67892800D03*
X81506600Y-70842800D03*
%TD*%
D18*
%TO.C,C7*%
X84478400Y-67842000D03*
X84478400Y-69742000D03*
%TD*%
D13*
%TO.C,R7*%
X81732100Y-89000200D03*
X83557100Y-89000200D03*
%TD*%
D19*
%TO.C,C1*%
X94592800Y-78713200D03*
X92692800Y-78713200D03*
%TD*%
D10*
%TO.C,C16*%
X73195800Y-83244600D03*
X73195800Y-81344600D03*
%TD*%
D20*
%TO.C,D2*%
X94978500Y-96372800D03*
X92928500Y-96372800D03*
%TD*%
D15*
%TO.C,Q1*%
X97556700Y-86246800D03*
X97556700Y-88146800D03*
X99431700Y-87196800D03*
%TD*%
D10*
%TO.C,C18*%
X88105600Y-70504000D03*
X88105600Y-68604000D03*
%TD*%
%TO.C,C13*%
X88704000Y-89604800D03*
X88704000Y-87704800D03*
%TD*%
D13*
%TO.C,R5*%
X93045300Y-98525200D03*
X94870300Y-98525200D03*
%TD*%
D10*
%TO.C,C15*%
X67480800Y-81934000D03*
X67480800Y-80034000D03*
%TD*%
%TO.C,C14*%
X69843000Y-81959400D03*
X69843000Y-80059400D03*
%TD*%
D21*
%TO.C,C8*%
X67104800Y-65490000D03*
X67104800Y-70890000D03*
%TD*%
D22*
%TO.C,R9*%
X83584400Y-85518500D03*
X83584400Y-83693500D03*
%TD*%
D23*
%TO.C,D1*%
X93083300Y-88873200D03*
X95133300Y-88873200D03*
%TD*%
D19*
%TO.C,C19*%
X98951400Y-68604000D03*
X97051400Y-68604000D03*
%TD*%
D24*
%TO.C,R11*%
X94592800Y-80999200D03*
X92767800Y-80999200D03*
%TD*%
D16*
%TO.C,C3*%
X73261800Y-86485600D03*
X75161800Y-86485600D03*
%TD*%
D18*
%TO.C,C10*%
X57905000Y-67918200D03*
X57905000Y-69818200D03*
%TD*%
D25*
%TO.C,U5*%
X92672100Y-66582200D03*
X92672100Y-65632200D03*
X92672100Y-64682200D03*
X90397100Y-64682200D03*
X90397100Y-66582200D03*
%TD*%
D26*
%TO.C,C20*%
X95423200Y-66162200D03*
X95423200Y-64612200D03*
%TD*%
D13*
%TO.C,R1*%
X97325800Y-91540200D03*
X99150800Y-91540200D03*
%TD*%
D22*
%TO.C,R14*%
X64712200Y-98623000D03*
X64712200Y-96798000D03*
%TD*%
D24*
%TO.C,R4*%
X94766800Y-86460200D03*
X92941800Y-86460200D03*
%TD*%
D21*
%TO.C,C6*%
X74801000Y-65505200D03*
X74801000Y-70905200D03*
%TD*%
D24*
%TO.C,R16*%
X94733100Y-83539200D03*
X92908100Y-83539200D03*
%TD*%
D11*
%TO.C,R22*%
X88105600Y-64717800D03*
X88105600Y-66542800D03*
%TD*%
%TO.C,R8*%
X81425400Y-83693500D03*
X81425400Y-85518500D03*
%TD*%
D27*
%TO.C,D3*%
X95020600Y-69772400D03*
X90645600Y-69772400D03*
%TD*%
D28*
%TO.C,U1*%
X64753000Y-84006800D03*
X64753000Y-84656800D03*
X64753000Y-85306800D03*
X64753000Y-85956800D03*
X64753000Y-86606800D03*
X64753000Y-87256800D03*
X64753000Y-87906800D03*
X64753000Y-88556800D03*
X64753000Y-89206800D03*
X64753000Y-89856800D03*
X64753000Y-90506800D03*
X64753000Y-91156800D03*
X64753000Y-91806800D03*
X64753000Y-92456800D03*
X70478000Y-92456800D03*
X70478000Y-91806800D03*
X70478000Y-91156800D03*
X70478000Y-90506800D03*
X70478000Y-89856800D03*
X70478000Y-89206800D03*
X70478000Y-88556800D03*
X70478000Y-87906800D03*
X70478000Y-87256800D03*
X70478000Y-86606800D03*
X70478000Y-85956800D03*
X70478000Y-85306800D03*
X70478000Y-84656800D03*
X70478000Y-84006800D03*
%TD*%
D13*
%TO.C,R3*%
X97530900Y-82701000D03*
X99355900Y-82701000D03*
%TD*%
D24*
%TO.C,R12*%
X75299000Y-98960800D03*
X73474000Y-98960800D03*
%TD*%
D16*
%TO.C,C2*%
X73196000Y-89272800D03*
X75096000Y-89272800D03*
%TD*%
D22*
%TO.C,R13*%
X67125200Y-98623000D03*
X67125200Y-96798000D03*
%TD*%
%TO.C,R20*%
X99614200Y-66412400D03*
X99614200Y-64587400D03*
%TD*%
D13*
%TO.C,R6*%
X85576000Y-98245800D03*
X87401000Y-98245800D03*
%TD*%
D24*
%TO.C,R15*%
X74997300Y-91718000D03*
X73172300Y-91718000D03*
%TD*%
D13*
%TO.C,R18*%
X93035100Y-94080200D03*
X94860100Y-94080200D03*
%TD*%
D29*
%TO.C,U3*%
X71428000Y-96674800D03*
X70478000Y-96674800D03*
X69528000Y-96674800D03*
X69528000Y-98949800D03*
X71428000Y-98949800D03*
%TD*%
D24*
%TO.C,R2*%
X99172400Y-93800800D03*
X97347400Y-93800800D03*
%TD*%
D22*
%TO.C,R10*%
X78936200Y-85493100D03*
X78936200Y-83668100D03*
%TD*%
D24*
%TO.C,R19*%
X94872200Y-91362400D03*
X93047200Y-91362400D03*
%TD*%
D10*
%TO.C,C17*%
X171967200Y-41246200D03*
X171967200Y-39346200D03*
%TD*%
D11*
%TO.C,R21*%
X193966000Y-22624600D03*
X193966000Y-24449600D03*
%TD*%
D12*
%TO.C,U2*%
X178244000Y-49653600D03*
X178244000Y-50923600D03*
X178244000Y-52193600D03*
X178244000Y-53463600D03*
X183194000Y-53463600D03*
X183194000Y-52193600D03*
X183194000Y-50923600D03*
X183194000Y-49653600D03*
%TD*%
D13*
%TO.C,R17*%
X178306000Y-56257600D03*
X180131000Y-56257600D03*
%TD*%
D14*
%TO.C,C9*%
X157286000Y-26006200D03*
X157286000Y-28956200D03*
%TD*%
D15*
%TO.C,Q2*%
X193917400Y-54596400D03*
X193917400Y-56496400D03*
X195792400Y-55546400D03*
%TD*%
D16*
%TO.C,C4*%
X169544000Y-51992300D03*
X171444000Y-51992300D03*
%TD*%
%TO.C,C12*%
X169859000Y-54813600D03*
X171759000Y-54813600D03*
%TD*%
D10*
%TO.C,C11*%
X182497000Y-47616600D03*
X182497000Y-45716600D03*
%TD*%
D17*
%TO.C,L1*%
X184362500Y-32635600D03*
X188147000Y-32635600D03*
%TD*%
D14*
%TO.C,C5*%
X177966600Y-25904600D03*
X177966600Y-28854600D03*
%TD*%
D18*
%TO.C,C7*%
X180938400Y-25853800D03*
X180938400Y-27753800D03*
%TD*%
D13*
%TO.C,R7*%
X178192100Y-47012000D03*
X180017100Y-47012000D03*
%TD*%
D19*
%TO.C,C1*%
X191052800Y-36725000D03*
X189152800Y-36725000D03*
%TD*%
D10*
%TO.C,C16*%
X169655800Y-41256400D03*
X169655800Y-39356400D03*
%TD*%
D20*
%TO.C,D2*%
X191438500Y-54384600D03*
X189388500Y-54384600D03*
%TD*%
D15*
%TO.C,Q1*%
X194016700Y-44258600D03*
X194016700Y-46158600D03*
X195891700Y-45208600D03*
%TD*%
D10*
%TO.C,C18*%
X184565600Y-28515800D03*
X184565600Y-26615800D03*
%TD*%
%TO.C,C13*%
X185164000Y-47616600D03*
X185164000Y-45716600D03*
%TD*%
D13*
%TO.C,R5*%
X189505300Y-56537000D03*
X191330300Y-56537000D03*
%TD*%
D10*
%TO.C,C15*%
X163940800Y-39945800D03*
X163940800Y-38045800D03*
%TD*%
%TO.C,C14*%
X166303000Y-39971200D03*
X166303000Y-38071200D03*
%TD*%
D21*
%TO.C,C8*%
X163564800Y-23501800D03*
X163564800Y-28901800D03*
%TD*%
D22*
%TO.C,R9*%
X180044400Y-43530300D03*
X180044400Y-41705300D03*
%TD*%
D23*
%TO.C,D1*%
X189543300Y-46885000D03*
X191593300Y-46885000D03*
%TD*%
D19*
%TO.C,C19*%
X195411400Y-26615800D03*
X193511400Y-26615800D03*
%TD*%
D24*
%TO.C,R11*%
X191052800Y-39011000D03*
X189227800Y-39011000D03*
%TD*%
D16*
%TO.C,C3*%
X169721800Y-44497400D03*
X171621800Y-44497400D03*
%TD*%
D18*
%TO.C,C10*%
X154365000Y-25930000D03*
X154365000Y-27830000D03*
%TD*%
D25*
%TO.C,U5*%
X189132100Y-24594000D03*
X189132100Y-23644000D03*
X189132100Y-22694000D03*
X186857100Y-22694000D03*
X186857100Y-24594000D03*
%TD*%
D26*
%TO.C,C20*%
X191883200Y-24174000D03*
X191883200Y-22624000D03*
%TD*%
D13*
%TO.C,R1*%
X193785800Y-49552000D03*
X195610800Y-49552000D03*
%TD*%
D22*
%TO.C,R14*%
X161172200Y-56634800D03*
X161172200Y-54809800D03*
%TD*%
D24*
%TO.C,R4*%
X191226800Y-44472000D03*
X189401800Y-44472000D03*
%TD*%
D21*
%TO.C,C6*%
X171261000Y-23517000D03*
X171261000Y-28917000D03*
%TD*%
D24*
%TO.C,R16*%
X191193100Y-41551000D03*
X189368100Y-41551000D03*
%TD*%
D11*
%TO.C,R22*%
X184565600Y-22729600D03*
X184565600Y-24554600D03*
%TD*%
%TO.C,R8*%
X177885400Y-41705300D03*
X177885400Y-43530300D03*
%TD*%
D27*
%TO.C,D3*%
X191480600Y-27784200D03*
X187105600Y-27784200D03*
%TD*%
D28*
%TO.C,U1*%
X161213000Y-42018600D03*
X161213000Y-42668600D03*
X161213000Y-43318600D03*
X161213000Y-43968600D03*
X161213000Y-44618600D03*
X161213000Y-45268600D03*
X161213000Y-45918600D03*
X161213000Y-46568600D03*
X161213000Y-47218600D03*
X161213000Y-47868600D03*
X161213000Y-48518600D03*
X161213000Y-49168600D03*
X161213000Y-49818600D03*
X161213000Y-50468600D03*
X166938000Y-50468600D03*
X166938000Y-49818600D03*
X166938000Y-49168600D03*
X166938000Y-48518600D03*
X166938000Y-47868600D03*
X166938000Y-47218600D03*
X166938000Y-46568600D03*
X166938000Y-45918600D03*
X166938000Y-45268600D03*
X166938000Y-44618600D03*
X166938000Y-43968600D03*
X166938000Y-43318600D03*
X166938000Y-42668600D03*
X166938000Y-42018600D03*
%TD*%
D13*
%TO.C,R3*%
X193990900Y-40712800D03*
X195815900Y-40712800D03*
%TD*%
D24*
%TO.C,R12*%
X171759000Y-56972600D03*
X169934000Y-56972600D03*
%TD*%
D16*
%TO.C,C2*%
X169656000Y-47284600D03*
X171556000Y-47284600D03*
%TD*%
D22*
%TO.C,R13*%
X163585200Y-56634800D03*
X163585200Y-54809800D03*
%TD*%
%TO.C,R20*%
X196074200Y-24424200D03*
X196074200Y-22599200D03*
%TD*%
D13*
%TO.C,R6*%
X182036000Y-56257600D03*
X183861000Y-56257600D03*
%TD*%
D24*
%TO.C,R15*%
X171457300Y-49729800D03*
X169632300Y-49729800D03*
%TD*%
D13*
%TO.C,R18*%
X189495100Y-52092000D03*
X191320100Y-52092000D03*
%TD*%
D29*
%TO.C,U3*%
X167888000Y-54686600D03*
X166938000Y-54686600D03*
X165988000Y-54686600D03*
X165988000Y-56961600D03*
X167888000Y-56961600D03*
%TD*%
D24*
%TO.C,R2*%
X195632400Y-51812600D03*
X193807400Y-51812600D03*
%TD*%
D22*
%TO.C,R10*%
X175396200Y-43504900D03*
X175396200Y-41679900D03*
%TD*%
D24*
%TO.C,R19*%
X191332200Y-49374200D03*
X189507200Y-49374200D03*
%TD*%
D10*
%TO.C,C17*%
X123731200Y-41246200D03*
X123731200Y-39346200D03*
%TD*%
D11*
%TO.C,R21*%
X145730000Y-22624600D03*
X145730000Y-24449600D03*
%TD*%
D12*
%TO.C,U2*%
X130008000Y-49653600D03*
X130008000Y-50923600D03*
X130008000Y-52193600D03*
X130008000Y-53463600D03*
X134958000Y-53463600D03*
X134958000Y-52193600D03*
X134958000Y-50923600D03*
X134958000Y-49653600D03*
%TD*%
D13*
%TO.C,R17*%
X130070000Y-56257600D03*
X131895000Y-56257600D03*
%TD*%
D14*
%TO.C,C9*%
X109050000Y-26006200D03*
X109050000Y-28956200D03*
%TD*%
D15*
%TO.C,Q2*%
X145681400Y-54596400D03*
X145681400Y-56496400D03*
X147556400Y-55546400D03*
%TD*%
D16*
%TO.C,C4*%
X121308000Y-51992300D03*
X123208000Y-51992300D03*
%TD*%
%TO.C,C12*%
X121623000Y-54813600D03*
X123523000Y-54813600D03*
%TD*%
D10*
%TO.C,C11*%
X134261000Y-47616600D03*
X134261000Y-45716600D03*
%TD*%
D17*
%TO.C,L1*%
X136126500Y-32635600D03*
X139911000Y-32635600D03*
%TD*%
D14*
%TO.C,C5*%
X129730600Y-25904600D03*
X129730600Y-28854600D03*
%TD*%
D18*
%TO.C,C7*%
X132702400Y-25853800D03*
X132702400Y-27753800D03*
%TD*%
D13*
%TO.C,R7*%
X129956100Y-47012000D03*
X131781100Y-47012000D03*
%TD*%
D19*
%TO.C,C1*%
X142816800Y-36725000D03*
X140916800Y-36725000D03*
%TD*%
D10*
%TO.C,C16*%
X121419800Y-41256400D03*
X121419800Y-39356400D03*
%TD*%
D20*
%TO.C,D2*%
X143202500Y-54384600D03*
X141152500Y-54384600D03*
%TD*%
D15*
%TO.C,Q1*%
X145780700Y-44258600D03*
X145780700Y-46158600D03*
X147655700Y-45208600D03*
%TD*%
D10*
%TO.C,C18*%
X136329600Y-28515800D03*
X136329600Y-26615800D03*
%TD*%
%TO.C,C13*%
X136928000Y-47616600D03*
X136928000Y-45716600D03*
%TD*%
D13*
%TO.C,R5*%
X141269300Y-56537000D03*
X143094300Y-56537000D03*
%TD*%
D10*
%TO.C,C15*%
X115704800Y-39945800D03*
X115704800Y-38045800D03*
%TD*%
%TO.C,C14*%
X118067000Y-39971200D03*
X118067000Y-38071200D03*
%TD*%
D21*
%TO.C,C8*%
X115328800Y-23501800D03*
X115328800Y-28901800D03*
%TD*%
D22*
%TO.C,R9*%
X131808400Y-43530300D03*
X131808400Y-41705300D03*
%TD*%
D23*
%TO.C,D1*%
X141307300Y-46885000D03*
X143357300Y-46885000D03*
%TD*%
D19*
%TO.C,C19*%
X147175400Y-26615800D03*
X145275400Y-26615800D03*
%TD*%
D24*
%TO.C,R11*%
X142816800Y-39011000D03*
X140991800Y-39011000D03*
%TD*%
D16*
%TO.C,C3*%
X121485800Y-44497400D03*
X123385800Y-44497400D03*
%TD*%
D18*
%TO.C,C10*%
X106129000Y-25930000D03*
X106129000Y-27830000D03*
%TD*%
D25*
%TO.C,U5*%
X140896100Y-24594000D03*
X140896100Y-23644000D03*
X140896100Y-22694000D03*
X138621100Y-22694000D03*
X138621100Y-24594000D03*
%TD*%
D26*
%TO.C,C20*%
X143647200Y-24174000D03*
X143647200Y-22624000D03*
%TD*%
D13*
%TO.C,R1*%
X145549800Y-49552000D03*
X147374800Y-49552000D03*
%TD*%
D22*
%TO.C,R14*%
X112936200Y-56634800D03*
X112936200Y-54809800D03*
%TD*%
D24*
%TO.C,R4*%
X142990800Y-44472000D03*
X141165800Y-44472000D03*
%TD*%
D21*
%TO.C,C6*%
X123025000Y-23517000D03*
X123025000Y-28917000D03*
%TD*%
D24*
%TO.C,R16*%
X142957100Y-41551000D03*
X141132100Y-41551000D03*
%TD*%
D11*
%TO.C,R22*%
X136329600Y-22729600D03*
X136329600Y-24554600D03*
%TD*%
%TO.C,R8*%
X129649400Y-41705300D03*
X129649400Y-43530300D03*
%TD*%
D27*
%TO.C,D3*%
X143244600Y-27784200D03*
X138869600Y-27784200D03*
%TD*%
D28*
%TO.C,U1*%
X112977000Y-42018600D03*
X112977000Y-42668600D03*
X112977000Y-43318600D03*
X112977000Y-43968600D03*
X112977000Y-44618600D03*
X112977000Y-45268600D03*
X112977000Y-45918600D03*
X112977000Y-46568600D03*
X112977000Y-47218600D03*
X112977000Y-47868600D03*
X112977000Y-48518600D03*
X112977000Y-49168600D03*
X112977000Y-49818600D03*
X112977000Y-50468600D03*
X118702000Y-50468600D03*
X118702000Y-49818600D03*
X118702000Y-49168600D03*
X118702000Y-48518600D03*
X118702000Y-47868600D03*
X118702000Y-47218600D03*
X118702000Y-46568600D03*
X118702000Y-45918600D03*
X118702000Y-45268600D03*
X118702000Y-44618600D03*
X118702000Y-43968600D03*
X118702000Y-43318600D03*
X118702000Y-42668600D03*
X118702000Y-42018600D03*
%TD*%
D13*
%TO.C,R3*%
X145754900Y-40712800D03*
X147579900Y-40712800D03*
%TD*%
D24*
%TO.C,R12*%
X123523000Y-56972600D03*
X121698000Y-56972600D03*
%TD*%
D16*
%TO.C,C2*%
X121420000Y-47284600D03*
X123320000Y-47284600D03*
%TD*%
D22*
%TO.C,R13*%
X115349200Y-56634800D03*
X115349200Y-54809800D03*
%TD*%
%TO.C,R20*%
X147838200Y-24424200D03*
X147838200Y-22599200D03*
%TD*%
D13*
%TO.C,R6*%
X133800000Y-56257600D03*
X135625000Y-56257600D03*
%TD*%
D24*
%TO.C,R15*%
X123221300Y-49729800D03*
X121396300Y-49729800D03*
%TD*%
D13*
%TO.C,R18*%
X141259100Y-52092000D03*
X143084100Y-52092000D03*
%TD*%
D29*
%TO.C,U3*%
X119652000Y-54686600D03*
X118702000Y-54686600D03*
X117752000Y-54686600D03*
X117752000Y-56961600D03*
X119652000Y-56961600D03*
%TD*%
D24*
%TO.C,R2*%
X147396400Y-51812600D03*
X145571400Y-51812600D03*
%TD*%
D22*
%TO.C,R10*%
X127160200Y-43504900D03*
X127160200Y-41679900D03*
%TD*%
D24*
%TO.C,R19*%
X143096200Y-49374200D03*
X141271200Y-49374200D03*
%TD*%
D11*
%TO.C,R21*%
X97480000Y-24455000D03*
X97480000Y-22630000D03*
%TD*%
D10*
%TO.C,C17*%
X75481200Y-39351600D03*
X75481200Y-41251600D03*
%TD*%
D12*
%TO.C,U2*%
X86708000Y-49659000D03*
X86708000Y-50929000D03*
X86708000Y-52199000D03*
X86708000Y-53469000D03*
X81758000Y-53469000D03*
X81758000Y-52199000D03*
X81758000Y-50929000D03*
X81758000Y-49659000D03*
%TD*%
D24*
%TO.C,R2*%
X97321400Y-51818000D03*
X99146400Y-51818000D03*
%TD*%
%TO.C,R16*%
X92882100Y-41556400D03*
X94707100Y-41556400D03*
%TD*%
D21*
%TO.C,C6*%
X74775000Y-28922400D03*
X74775000Y-23522400D03*
%TD*%
D22*
%TO.C,R20*%
X99588200Y-22604600D03*
X99588200Y-24429600D03*
%TD*%
D13*
%TO.C,R6*%
X87375000Y-56263000D03*
X85550000Y-56263000D03*
%TD*%
D24*
%TO.C,R15*%
X73146300Y-49735200D03*
X74971300Y-49735200D03*
%TD*%
D29*
%TO.C,U3*%
X71402000Y-56967000D03*
X69502000Y-56967000D03*
X69502000Y-54692000D03*
X70452000Y-54692000D03*
X71402000Y-54692000D03*
%TD*%
D22*
%TO.C,R10*%
X78910200Y-41685300D03*
X78910200Y-43510300D03*
%TD*%
D13*
%TO.C,R18*%
X94834100Y-52097400D03*
X93009100Y-52097400D03*
%TD*%
D16*
%TO.C,C2*%
X75070000Y-47290000D03*
X73170000Y-47290000D03*
%TD*%
D22*
%TO.C,R13*%
X67099200Y-54815200D03*
X67099200Y-56640200D03*
%TD*%
D24*
%TO.C,R12*%
X73448000Y-56978000D03*
X75273000Y-56978000D03*
%TD*%
D13*
%TO.C,R3*%
X99329900Y-40718200D03*
X97504900Y-40718200D03*
%TD*%
D28*
%TO.C,U1*%
X70452000Y-42024000D03*
X70452000Y-42674000D03*
X70452000Y-43324000D03*
X70452000Y-43974000D03*
X70452000Y-44624000D03*
X70452000Y-45274000D03*
X70452000Y-45924000D03*
X70452000Y-46574000D03*
X70452000Y-47224000D03*
X70452000Y-47874000D03*
X70452000Y-48524000D03*
X70452000Y-49174000D03*
X70452000Y-49824000D03*
X70452000Y-50474000D03*
X64727000Y-50474000D03*
X64727000Y-49824000D03*
X64727000Y-49174000D03*
X64727000Y-48524000D03*
X64727000Y-47874000D03*
X64727000Y-47224000D03*
X64727000Y-46574000D03*
X64727000Y-45924000D03*
X64727000Y-45274000D03*
X64727000Y-44624000D03*
X64727000Y-43974000D03*
X64727000Y-43324000D03*
X64727000Y-42674000D03*
X64727000Y-42024000D03*
%TD*%
D27*
%TO.C,D3*%
X90619600Y-27789600D03*
X94994600Y-27789600D03*
%TD*%
D11*
%TO.C,R8*%
X81399400Y-43535700D03*
X81399400Y-41710700D03*
%TD*%
%TO.C,R22*%
X88079600Y-24560000D03*
X88079600Y-22735000D03*
%TD*%
D24*
%TO.C,R19*%
X93021200Y-49379600D03*
X94846200Y-49379600D03*
%TD*%
%TO.C,R4*%
X92915800Y-44477400D03*
X94740800Y-44477400D03*
%TD*%
D22*
%TO.C,R14*%
X64686200Y-54815200D03*
X64686200Y-56640200D03*
%TD*%
D13*
%TO.C,R1*%
X99124800Y-49557400D03*
X97299800Y-49557400D03*
%TD*%
D26*
%TO.C,C20*%
X95397200Y-22629400D03*
X95397200Y-24179400D03*
%TD*%
D25*
%TO.C,U5*%
X90371100Y-24599400D03*
X90371100Y-22699400D03*
X92646100Y-22699400D03*
X92646100Y-23649400D03*
X92646100Y-24599400D03*
%TD*%
D18*
%TO.C,C10*%
X57879000Y-27835400D03*
X57879000Y-25935400D03*
%TD*%
D16*
%TO.C,C3*%
X75135800Y-44502800D03*
X73235800Y-44502800D03*
%TD*%
D24*
%TO.C,R11*%
X92741800Y-39016400D03*
X94566800Y-39016400D03*
%TD*%
D19*
%TO.C,C19*%
X97025400Y-26621200D03*
X98925400Y-26621200D03*
%TD*%
D23*
%TO.C,D1*%
X95107300Y-46890400D03*
X93057300Y-46890400D03*
%TD*%
D22*
%TO.C,R9*%
X83558400Y-41710700D03*
X83558400Y-43535700D03*
%TD*%
D21*
%TO.C,C8*%
X67078800Y-28907200D03*
X67078800Y-23507200D03*
%TD*%
D10*
%TO.C,C14*%
X69817000Y-38076600D03*
X69817000Y-39976600D03*
%TD*%
%TO.C,C15*%
X67454800Y-38051200D03*
X67454800Y-39951200D03*
%TD*%
D13*
%TO.C,R5*%
X94844300Y-56542400D03*
X93019300Y-56542400D03*
%TD*%
D10*
%TO.C,C13*%
X88678000Y-45722000D03*
X88678000Y-47622000D03*
%TD*%
%TO.C,C18*%
X88079600Y-26621200D03*
X88079600Y-28521200D03*
%TD*%
D15*
%TO.C,Q1*%
X99405700Y-45214000D03*
X97530700Y-46164000D03*
X97530700Y-44264000D03*
%TD*%
D20*
%TO.C,D2*%
X92902500Y-54390000D03*
X94952500Y-54390000D03*
%TD*%
D10*
%TO.C,C16*%
X73169800Y-39361800D03*
X73169800Y-41261800D03*
%TD*%
D19*
%TO.C,C1*%
X92666800Y-36730400D03*
X94566800Y-36730400D03*
%TD*%
D13*
%TO.C,R7*%
X83531100Y-47017400D03*
X81706100Y-47017400D03*
%TD*%
D18*
%TO.C,C7*%
X84452400Y-27759200D03*
X84452400Y-25859200D03*
%TD*%
D14*
%TO.C,C5*%
X81480600Y-28860000D03*
X81480600Y-25910000D03*
%TD*%
D17*
%TO.C,L1*%
X91661000Y-32641000D03*
X87876500Y-32641000D03*
%TD*%
D10*
%TO.C,C11*%
X86011000Y-45722000D03*
X86011000Y-47622000D03*
%TD*%
D16*
%TO.C,C12*%
X75273000Y-54819000D03*
X73373000Y-54819000D03*
%TD*%
%TO.C,C4*%
X74958000Y-51997700D03*
X73058000Y-51997700D03*
%TD*%
D15*
%TO.C,Q2*%
X99306400Y-55551800D03*
X97431400Y-56501800D03*
X97431400Y-54601800D03*
%TD*%
D14*
%TO.C,C9*%
X60800000Y-28961600D03*
X60800000Y-26011600D03*
%TD*%
D13*
%TO.C,R17*%
X83645000Y-56263000D03*
X81820000Y-56263000D03*
%TD*%
M02*
