M48
; DRILL file {KiCad 8.0.5} date 2024-12-08T21:31:51-0500
; FORMAT={-:-/ absolute / inch / decimal}
; #@! TF.CreationDate,2024-12-08T21:31:51-05:00
; #@! TF.GenerationSoftware,Kicad,Pcbnew,8.0.5
; #@! TF.FileFunction,Plated,1,2,PTH
FMAT,2
INCH
; #@! TA.AperFunction,Plated,PTH,ViaDrill
T1C0.0130
; #@! TA.AperFunction,Plated,PTH,ViaDrill
T2C0.0200
; #@! TA.AperFunction,Plated,PTH,ComponentDrill
T3C0.0394
%
G90
G05
T1
X3.36Y-2.534
X3.497Y-3.473
X3.598Y-2.576
X3.63Y-3.418
X3.67Y-3.036
X3.726Y-3.649
X3.7441Y-2.7878
X3.7845Y-3.1869
X3.862Y-3.429
X3.9409Y-3.0276
X3.947Y-2.819
X3.952Y-3.25
X3.967Y-3.478
X4.013Y-3.085
X4.241Y-3.102
X4.248Y-2.479
X4.28Y-3.317
X4.358Y-2.454
X4.551Y-2.857
X4.573Y-3.544
X4.923Y-3.419
T2
X4.279Y-3.472
X4.506Y-3.598
X4.508Y-2.643
X4.555Y-3.144
X4.6621Y-2.3114
T3
X3.2642Y-2.227
X3.27Y-2.805
X3.27Y-2.905
X3.27Y-3.005
X3.27Y-3.105
X3.27Y-3.205
X3.27Y-3.305
X3.27Y-3.405
X3.27Y-3.505
X3.27Y-3.605
X3.3642Y-2.227
X4.1254Y-2.225
X4.1802Y-2.801
X4.2254Y-2.225
X4.2802Y-2.801
X4.427Y-2.886
X4.427Y-2.986
X4.892Y-2.7622
X4.892Y-2.8622
X4.893Y-2.496
X4.893Y-2.596
M30
