%TF.GenerationSoftware,KiCad,Pcbnew,8.0.5*%
%TF.CreationDate,2024-10-20T10:55:42-04:00*%
%TF.ProjectId,power_glitcher,706f7765-725f-4676-9c69-74636865722e,rev?*%
%TF.SameCoordinates,Original*%
%TF.FileFunction,Copper,L1,Top*%
%TF.FilePolarity,Positive*%
%FSLAX46Y46*%
G04 Gerber Fmt 4.6, Leading zero omitted, Abs format (unit mm)*
G04 Created by KiCad (PCBNEW 8.0.5) date 2024-10-20 10:55:42*
%MOMM*%
%LPD*%
G01*
G04 APERTURE LIST*
G04 Aperture macros list*
%AMRoundRect*
0 Rectangle with rounded corners*
0 $1 Rounding radius*
0 $2 $3 $4 $5 $6 $7 $8 $9 X,Y pos of 4 corners*
0 Add a 4 corners polygon primitive as box body*
4,1,4,$2,$3,$4,$5,$6,$7,$8,$9,$2,$3,0*
0 Add four circle primitives for the rounded corners*
1,1,$1+$1,$2,$3*
1,1,$1+$1,$4,$5*
1,1,$1+$1,$6,$7*
1,1,$1+$1,$8,$9*
0 Add four rect primitives between the rounded corners*
20,1,$1+$1,$2,$3,$4,$5,0*
20,1,$1+$1,$4,$5,$6,$7,0*
20,1,$1+$1,$6,$7,$8,$9,0*
20,1,$1+$1,$8,$9,$2,$3,0*%
G04 Aperture macros list end*
%TA.AperFunction,SMDPad,CuDef*%
%ADD10R,1.500000X1.000000*%
%TD*%
%TA.AperFunction,ComponentPad*%
%ADD11R,1.700000X1.700000*%
%TD*%
%TA.AperFunction,ComponentPad*%
%ADD12O,1.700000X1.700000*%
%TD*%
%TA.AperFunction,SMDPad,CuDef*%
%ADD13RoundRect,0.250000X0.587500X1.625000X-0.587500X1.625000X-0.587500X-1.625000X0.587500X-1.625000X0*%
%TD*%
%TA.AperFunction,SMDPad,CuDef*%
%ADD14R,1.854500X2.286000*%
%TD*%
%TA.AperFunction,SMDPad,CuDef*%
%ADD15RoundRect,0.250000X-0.450000X0.262500X-0.450000X-0.262500X0.450000X-0.262500X0.450000X0.262500X0*%
%TD*%
%TA.AperFunction,SMDPad,CuDef*%
%ADD16RoundRect,0.250000X0.475000X-0.250000X0.475000X0.250000X-0.475000X0.250000X-0.475000X-0.250000X0*%
%TD*%
%TA.AperFunction,SMDPad,CuDef*%
%ADD17RoundRect,0.150000X-0.825000X-0.150000X0.825000X-0.150000X0.825000X0.150000X-0.825000X0.150000X0*%
%TD*%
%TA.AperFunction,SMDPad,CuDef*%
%ADD18RoundRect,0.250000X0.262500X0.450000X-0.262500X0.450000X-0.262500X-0.450000X0.262500X-0.450000X0*%
%TD*%
%TA.AperFunction,SMDPad,CuDef*%
%ADD19RoundRect,0.250000X-0.550000X1.500000X-0.550000X-1.500000X0.550000X-1.500000X0.550000X1.500000X0*%
%TD*%
%TA.AperFunction,SMDPad,CuDef*%
%ADD20RoundRect,0.250000X0.450000X-0.262500X0.450000X0.262500X-0.450000X0.262500X-0.450000X-0.262500X0*%
%TD*%
%TA.AperFunction,SMDPad,CuDef*%
%ADD21RoundRect,0.250000X-0.262500X-0.450000X0.262500X-0.450000X0.262500X0.450000X-0.262500X0.450000X0*%
%TD*%
%TA.AperFunction,SMDPad,CuDef*%
%ADD22RoundRect,0.150000X-0.150000X0.512500X-0.150000X-0.512500X0.150000X-0.512500X0.150000X0.512500X0*%
%TD*%
%TA.AperFunction,SMDPad,CuDef*%
%ADD23RoundRect,0.250000X-0.250000X-0.475000X0.250000X-0.475000X0.250000X0.475000X-0.250000X0.475000X0*%
%TD*%
%TA.AperFunction,SMDPad,CuDef*%
%ADD24RoundRect,0.100000X-0.637500X-0.100000X0.637500X-0.100000X0.637500X0.100000X-0.637500X0.100000X0*%
%TD*%
%TA.AperFunction,SMDPad,CuDef*%
%ADD25RoundRect,0.225000X0.250000X-0.225000X0.250000X0.225000X-0.250000X0.225000X-0.250000X-0.225000X0*%
%TD*%
%TA.AperFunction,SMDPad,CuDef*%
%ADD26RoundRect,0.150000X0.512500X0.150000X-0.512500X0.150000X-0.512500X-0.150000X0.512500X-0.150000X0*%
%TD*%
%TA.AperFunction,SMDPad,CuDef*%
%ADD27RoundRect,0.250000X-0.475000X0.250000X-0.475000X-0.250000X0.475000X-0.250000X0.475000X0.250000X0*%
%TD*%
%TA.AperFunction,SMDPad,CuDef*%
%ADD28RoundRect,0.250000X0.250000X0.475000X-0.250000X0.475000X-0.250000X-0.475000X0.250000X-0.475000X0*%
%TD*%
%TA.AperFunction,SMDPad,CuDef*%
%ADD29RoundRect,0.250000X-0.325000X-0.450000X0.325000X-0.450000X0.325000X0.450000X-0.325000X0.450000X0*%
%TD*%
%TA.AperFunction,SMDPad,CuDef*%
%ADD30RoundRect,0.150000X-0.587500X-0.150000X0.587500X-0.150000X0.587500X0.150000X-0.587500X0.150000X0*%
%TD*%
%TA.AperFunction,SMDPad,CuDef*%
%ADD31RoundRect,0.250000X0.325000X0.450000X-0.325000X0.450000X-0.325000X-0.450000X0.325000X-0.450000X0*%
%TD*%
%TA.AperFunction,SMDPad,CuDef*%
%ADD32RoundRect,0.250000X-1.100000X0.325000X-1.100000X-0.325000X1.100000X-0.325000X1.100000X0.325000X0*%
%TD*%
%TA.AperFunction,ViaPad*%
%ADD33C,0.762000*%
%TD*%
%TA.AperFunction,ViaPad*%
%ADD34C,1.270000*%
%TD*%
%TA.AperFunction,Conductor*%
%ADD35C,0.254000*%
%TD*%
%TA.AperFunction,Conductor*%
%ADD36C,0.381000*%
%TD*%
%TA.AperFunction,Conductor*%
%ADD37C,0.508000*%
%TD*%
%TA.AperFunction,Conductor*%
%ADD38C,0.200000*%
%TD*%
G04 APERTURE END LIST*
D10*
%TO.P,JP1,1,A*%
%TO.N,Net-(J5-Pin_1)*%
X103098600Y-72212200D03*
%TO.P,JP1,2,B*%
%TO.N,/signal*%
X103098600Y-73512200D03*
%TD*%
D11*
%TO.P,J5,1,Pin_1*%
%TO.N,Net-(J5-Pin_1)*%
X111810800Y-72440800D03*
D12*
%TO.P,J5,2,Pin_2*%
%TO.N,AGND*%
X111810800Y-74980800D03*
%TD*%
D13*
%TO.P,D3,1,K*%
%TO.N,V+*%
X119284600Y-61569600D03*
%TO.P,D3,2,A*%
%TO.N,Net-(D3-A)*%
X114909600Y-61569600D03*
%TD*%
D10*
%TO.P,JP2,2,B*%
%TO.N,V-*%
X114080000Y-90570000D03*
%TO.P,JP2,1,A*%
%TO.N,AGND*%
X114080000Y-89270000D03*
%TD*%
D14*
%TO.P,L1,1,1*%
%TO.N,AVCC*%
X112166500Y-66421000D03*
%TO.P,L1,2,2*%
%TO.N,Net-(D3-A)*%
X115951000Y-66421000D03*
%TD*%
D15*
%TO.P,R21,1*%
%TO.N,Net-(U5-FB)*%
X121770000Y-56410000D03*
%TO.P,R21,2*%
%TO.N,V+*%
X121770000Y-58235000D03*
%TD*%
D16*
%TO.P,C17,2*%
%TO.N,AGND*%
X99771200Y-73131600D03*
%TO.P,C17,1*%
%TO.N,AVCC*%
X99771200Y-75031600D03*
%TD*%
D17*
%TO.P,U2,1*%
%TO.N,Net-(R7-Pad1)*%
X106048000Y-83439000D03*
%TO.P,U2,2,-*%
%TO.N,Net-(U2A--)*%
X106048000Y-84709000D03*
%TO.P,U2,3,+*%
%TO.N,/signal*%
X106048000Y-85979000D03*
%TO.P,U2,4,V-*%
%TO.N,AGND*%
X106048000Y-87249000D03*
%TO.P,U2,5,+*%
%TO.N,Net-(U2B-+)*%
X110998000Y-87249000D03*
%TO.P,U2,6,-*%
%TO.N,Net-(U2B--)*%
X110998000Y-85979000D03*
%TO.P,U2,7*%
%TO.N,Net-(R16-Pad1)*%
X110998000Y-84709000D03*
%TO.P,U2,8,V+*%
%TO.N,AVCC*%
X110998000Y-83439000D03*
%TD*%
D18*
%TO.P,R2,1*%
%TO.N,Net-(R1-Pad2)*%
X123436400Y-85598000D03*
%TO.P,R2,2*%
%TO.N,Net-(Q2-E)*%
X121611400Y-85598000D03*
%TD*%
%TO.P,R16,1*%
%TO.N,Net-(R16-Pad1)*%
X118997100Y-75336400D03*
%TO.P,R16,2*%
%TO.N,Net-(R1-Pad2)*%
X117172100Y-75336400D03*
%TD*%
D19*
%TO.P,C6,1*%
%TO.N,AVCC*%
X99065000Y-57302400D03*
%TO.P,C6,2*%
%TO.N,AGND*%
X99065000Y-62702400D03*
%TD*%
D11*
%TO.P,J4,1,Pin_1*%
%TO.N,/out*%
X123647200Y-70820200D03*
D12*
%TO.P,J4,2,Pin_2*%
%TO.N,AGND*%
X123647200Y-68280200D03*
%TD*%
D20*
%TO.P,R20,1*%
%TO.N,AGND*%
X123878200Y-58209600D03*
%TO.P,R20,2*%
%TO.N,Net-(U5-FB)*%
X123878200Y-56384600D03*
%TD*%
D21*
%TO.P,R6,1*%
%TO.N,Net-(U2B--)*%
X109840000Y-90043000D03*
%TO.P,R6,2*%
%TO.N,Net-(R1-Pad2)*%
X111665000Y-90043000D03*
%TD*%
D18*
%TO.P,R15,1*%
%TO.N,AGND*%
X99261300Y-83515200D03*
%TO.P,R15,2*%
%TO.N,Net-(U1-FS_ADJ)*%
X97436300Y-83515200D03*
%TD*%
D22*
%TO.P,U3,1*%
%TO.N,Net-(U3--)*%
X95692000Y-88472000D03*
%TO.P,U3,2,V-*%
%TO.N,AVCC*%
X94742000Y-88472000D03*
%TO.P,U3,3,+*%
%TO.N,/refio*%
X93792000Y-88472000D03*
%TO.P,U3,4,-*%
%TO.N,Net-(U3--)*%
X93792000Y-90747000D03*
%TO.P,U3,5,V+*%
%TO.N,AGND*%
X95692000Y-90747000D03*
%TD*%
D20*
%TO.P,R10,1*%
%TO.N,AGND*%
X103200200Y-77290300D03*
%TO.P,R10,2*%
%TO.N,/signal*%
X103200200Y-75465300D03*
%TD*%
D21*
%TO.P,R18,1*%
%TO.N,Net-(D2-A)*%
X117299100Y-85877400D03*
%TO.P,R18,2*%
%TO.N,Net-(R16-Pad1)*%
X119124100Y-85877400D03*
%TD*%
D23*
%TO.P,C2,1*%
%TO.N,Net-(U1-COMP1)*%
X97460000Y-81070000D03*
%TO.P,C2,2*%
%TO.N,AVCC*%
X99360000Y-81070000D03*
%TD*%
D20*
%TO.P,R13,1*%
%TO.N,/reflo*%
X91389200Y-90420200D03*
%TO.P,R13,2*%
%TO.N,AVCC*%
X91389200Y-88595200D03*
%TD*%
D18*
%TO.P,R12,1*%
%TO.N,AGND*%
X99563000Y-90758000D03*
%TO.P,R12,2*%
%TO.N,Net-(U3--)*%
X97738000Y-90758000D03*
%TD*%
D21*
%TO.P,R3,1*%
%TO.N,Net-(R1-Pad2)*%
X121794900Y-74498200D03*
%TO.P,R3,2*%
%TO.N,/out*%
X123619900Y-74498200D03*
%TD*%
D24*
%TO.P,U1,1,DB7*%
%TO.N,Net-(J1-Pin_2)*%
X89017000Y-75804000D03*
%TO.P,U1,2,DB6*%
%TO.N,Net-(J1-Pin_3)*%
X89017000Y-76454000D03*
%TO.P,U1,3,DB5*%
%TO.N,Net-(J1-Pin_4)*%
X89017000Y-77104000D03*
%TO.P,U1,4,DB4*%
%TO.N,Net-(J1-Pin_5)*%
X89017000Y-77754000D03*
%TO.P,U1,5,DB3*%
%TO.N,Net-(J1-Pin_6)*%
X89017000Y-78404000D03*
%TO.P,U1,6,DB2*%
%TO.N,Net-(J1-Pin_7)*%
X89017000Y-79054000D03*
%TO.P,U1,7,DB1*%
%TO.N,Net-(J1-Pin_8)*%
X89017000Y-79704000D03*
%TO.P,U1,8,DB0*%
%TO.N,Net-(J1-Pin_9)*%
X89017000Y-80354000D03*
%TO.P,U1,9*%
%TO.N,N/C*%
X89017000Y-81004000D03*
%TO.P,U1,10*%
X89017000Y-81654000D03*
%TO.P,U1,11*%
X89017000Y-82304000D03*
%TO.P,U1,12*%
X89017000Y-82954000D03*
%TO.P,U1,13*%
X89017000Y-83604000D03*
%TO.P,U1,14*%
X89017000Y-84254000D03*
%TO.P,U1,15,SLEEP*%
%TO.N,unconnected-(U1-SLEEP-Pad15)*%
X94742000Y-84254000D03*
%TO.P,U1,16,REFLO*%
%TO.N,/reflo*%
X94742000Y-83604000D03*
%TO.P,U1,17,REFIO*%
%TO.N,/refio*%
X94742000Y-82954000D03*
%TO.P,U1,18,FS_ADJ*%
%TO.N,Net-(U1-FS_ADJ)*%
X94742000Y-82304000D03*
%TO.P,U1,19,COMP1*%
%TO.N,Net-(U1-COMP1)*%
X94742000Y-81654000D03*
%TO.P,U1,20,ACOM*%
%TO.N,AGND*%
X94742000Y-81004000D03*
%TO.P,U1,21,IOUTB*%
X94742000Y-80354000D03*
%TO.P,U1,22,IOUTA*%
%TO.N,/signal*%
X94742000Y-79704000D03*
%TO.P,U1,23,COMP2*%
%TO.N,Net-(U1-COMP2)*%
X94742000Y-79054000D03*
%TO.P,U1,24,AVDD*%
%TO.N,AVCC*%
X94742000Y-78404000D03*
%TO.P,U1,25*%
%TO.N,N/C*%
X94742000Y-77754000D03*
%TO.P,U1,26,DCOM*%
%TO.N,DGND*%
X94742000Y-77104000D03*
%TO.P,U1,27,DVDD*%
%TO.N,DVCC*%
X94742000Y-76454000D03*
%TO.P,U1,28,Clock*%
%TO.N,Net-(J1-Pin_1)*%
X94742000Y-75804000D03*
%TD*%
D11*
%TO.P,J3,1,Pin_1*%
%TO.N,AVCC*%
X107325000Y-56515000D03*
D12*
%TO.P,J3,2,Pin_2*%
%TO.N,AGND*%
X104785000Y-56515000D03*
%TD*%
D15*
%TO.P,R8,1*%
%TO.N,Net-(U2A--)*%
X105689400Y-75490700D03*
%TO.P,R8,2*%
%TO.N,Net-(R7-Pad1)*%
X105689400Y-77315700D03*
%TD*%
%TO.P,R22,2*%
%TO.N,AVCC*%
X112369600Y-58340000D03*
%TO.P,R22,1*%
%TO.N,Net-(U5-EN)*%
X112369600Y-56515000D03*
%TD*%
D18*
%TO.P,R19,1*%
%TO.N,Net-(R16-Pad1)*%
X119136200Y-83159600D03*
%TO.P,R19,2*%
%TO.N,Net-(D1-K)*%
X117311200Y-83159600D03*
%TD*%
%TO.P,R4,1*%
%TO.N,Net-(D1-A)*%
X119030800Y-78257400D03*
%TO.P,R4,2*%
%TO.N,V+*%
X117205800Y-78257400D03*
%TD*%
D20*
%TO.P,R14,1*%
%TO.N,/reflo*%
X88976200Y-90420200D03*
%TO.P,R14,2*%
%TO.N,AGND*%
X88976200Y-88595200D03*
%TD*%
D21*
%TO.P,R1,1*%
%TO.N,Net-(Q1-E)*%
X121589800Y-83337400D03*
%TO.P,R1,2*%
%TO.N,Net-(R1-Pad2)*%
X123414800Y-83337400D03*
%TD*%
D11*
%TO.P,J2,1,Pin_1*%
%TO.N,DVCC*%
X85450600Y-56565800D03*
D12*
%TO.P,J2,2,Pin_2*%
%TO.N,DGND*%
X82910600Y-56565800D03*
%TD*%
D25*
%TO.P,C20,1*%
%TO.N,V+*%
X119687200Y-57959400D03*
%TO.P,C20,2*%
%TO.N,Net-(U5-FB)*%
X119687200Y-56409400D03*
%TD*%
D26*
%TO.P,U5,1,SW*%
%TO.N,Net-(D3-A)*%
X116936100Y-58379400D03*
%TO.P,U5,2,GND*%
%TO.N,AGND*%
X116936100Y-57429400D03*
%TO.P,U5,3,FB*%
%TO.N,Net-(U5-FB)*%
X116936100Y-56479400D03*
%TO.P,U5,4,EN*%
%TO.N,Net-(U5-EN)*%
X114661100Y-56479400D03*
%TO.P,U5,5,VIN*%
%TO.N,AVCC*%
X114661100Y-58379400D03*
%TD*%
D27*
%TO.P,C10,1*%
%TO.N,DVCC*%
X82169000Y-59715400D03*
%TO.P,C10,2*%
%TO.N,DGND*%
X82169000Y-61615400D03*
%TD*%
D23*
%TO.P,C3,1*%
%TO.N,Net-(U1-COMP2)*%
X97525800Y-78282800D03*
%TO.P,C3,2*%
%TO.N,AGND*%
X99425800Y-78282800D03*
%TD*%
D18*
%TO.P,R11,1*%
%TO.N,Net-(C1-Pad1)*%
X118856800Y-72796400D03*
%TO.P,R11,2*%
%TO.N,Net-(R1-Pad2)*%
X117031800Y-72796400D03*
%TD*%
D28*
%TO.P,C19,2*%
%TO.N,V+*%
X121315400Y-60401200D03*
%TO.P,C19,1*%
%TO.N,AGND*%
X123215400Y-60401200D03*
%TD*%
D29*
%TO.P,D1,1,K*%
%TO.N,Net-(D1-K)*%
X117347300Y-80670400D03*
%TO.P,D1,2,A*%
%TO.N,Net-(D1-A)*%
X119397300Y-80670400D03*
%TD*%
D11*
%TO.P,J1,1,Pin_1*%
%TO.N,Net-(J1-Pin_1)*%
X83058000Y-71247000D03*
D12*
%TO.P,J1,2,Pin_2*%
%TO.N,Net-(J1-Pin_2)*%
X83058000Y-73787000D03*
%TO.P,J1,3,Pin_3*%
%TO.N,Net-(J1-Pin_3)*%
X83058000Y-76327000D03*
%TO.P,J1,4,Pin_4*%
%TO.N,Net-(J1-Pin_4)*%
X83058000Y-78867000D03*
%TO.P,J1,5,Pin_5*%
%TO.N,Net-(J1-Pin_5)*%
X83058000Y-81407000D03*
%TO.P,J1,6,Pin_6*%
%TO.N,Net-(J1-Pin_6)*%
X83058000Y-83947000D03*
%TO.P,J1,7,Pin_7*%
%TO.N,Net-(J1-Pin_7)*%
X83058000Y-86487000D03*
%TO.P,J1,8,Pin_8*%
%TO.N,Net-(J1-Pin_8)*%
X83058000Y-89027000D03*
%TO.P,J1,9,Pin_9*%
%TO.N,Net-(J1-Pin_9)*%
X83058000Y-91567000D03*
%TD*%
D20*
%TO.P,R9,1*%
%TO.N,AGND*%
X107848400Y-77315700D03*
%TO.P,R9,2*%
%TO.N,Net-(U2A--)*%
X107848400Y-75490700D03*
%TD*%
D19*
%TO.P,C8,1*%
%TO.N,DVCC*%
X91368800Y-57287200D03*
%TO.P,C8,2*%
%TO.N,DGND*%
X91368800Y-62687200D03*
%TD*%
D16*
%TO.P,C14,1*%
%TO.N,DVCC*%
X94107000Y-73756600D03*
%TO.P,C14,2*%
%TO.N,DGND*%
X94107000Y-71856600D03*
%TD*%
%TO.P,C15,1*%
%TO.N,DVCC*%
X91744800Y-73731200D03*
%TO.P,C15,2*%
%TO.N,DGND*%
X91744800Y-71831200D03*
%TD*%
D21*
%TO.P,R5,1*%
%TO.N,V-*%
X117309300Y-90322400D03*
%TO.P,R5,2*%
%TO.N,Net-(D2-K)*%
X119134300Y-90322400D03*
%TD*%
D16*
%TO.P,C13,1*%
%TO.N,AVCC*%
X112968000Y-81402000D03*
%TO.P,C13,2*%
%TO.N,AGND*%
X112968000Y-79502000D03*
%TD*%
%TO.P,C18,1*%
%TO.N,AGND*%
X112369600Y-62301200D03*
%TO.P,C18,2*%
%TO.N,AVCC*%
X112369600Y-60401200D03*
%TD*%
D30*
%TO.P,Q1,1,B*%
%TO.N,Net-(D1-A)*%
X121820700Y-78044000D03*
%TO.P,Q1,2,E*%
%TO.N,Net-(Q1-E)*%
X121820700Y-79944000D03*
%TO.P,Q1,3,C*%
%TO.N,V+*%
X123695700Y-78994000D03*
%TD*%
D31*
%TO.P,D2,1,K*%
%TO.N,Net-(D2-K)*%
X119242500Y-88170000D03*
%TO.P,D2,2,A*%
%TO.N,Net-(D2-A)*%
X117192500Y-88170000D03*
%TD*%
D16*
%TO.P,C16,2*%
%TO.N,AGND*%
X97459800Y-73141800D03*
%TO.P,C16,1*%
%TO.N,AVCC*%
X97459800Y-75041800D03*
%TD*%
D28*
%TO.P,C1,1*%
%TO.N,Net-(C1-Pad1)*%
X118856800Y-70510400D03*
%TO.P,C1,2*%
%TO.N,AGND*%
X116956800Y-70510400D03*
%TD*%
D21*
%TO.P,R7,1*%
%TO.N,Net-(R7-Pad1)*%
X105996100Y-80797400D03*
%TO.P,R7,2*%
%TO.N,Net-(U2B-+)*%
X107821100Y-80797400D03*
%TD*%
D27*
%TO.P,C7,1*%
%TO.N,AVCC*%
X108742400Y-59639200D03*
%TO.P,C7,2*%
%TO.N,AGND*%
X108742400Y-61539200D03*
%TD*%
D32*
%TO.P,C5,1*%
%TO.N,AVCC*%
X105770600Y-59690000D03*
%TO.P,C5,2*%
%TO.N,AGND*%
X105770600Y-62640000D03*
%TD*%
D16*
%TO.P,C11,1*%
%TO.N,AVCC*%
X110301000Y-81402000D03*
%TO.P,C11,2*%
%TO.N,AGND*%
X110301000Y-79502000D03*
%TD*%
D23*
%TO.P,C12,1*%
%TO.N,AVCC*%
X97663000Y-88599000D03*
%TO.P,C12,2*%
%TO.N,AGND*%
X99563000Y-88599000D03*
%TD*%
%TO.P,C4,1*%
%TO.N,/refio*%
X97348000Y-85777700D03*
%TO.P,C4,2*%
%TO.N,AGND*%
X99248000Y-85777700D03*
%TD*%
D30*
%TO.P,Q2,1,B*%
%TO.N,Net-(D2-K)*%
X121721400Y-88381800D03*
%TO.P,Q2,2,E*%
%TO.N,Net-(Q2-E)*%
X121721400Y-90281800D03*
%TO.P,Q2,3,C*%
%TO.N,V-*%
X123596400Y-89331800D03*
%TD*%
D32*
%TO.P,C9,1*%
%TO.N,DVCC*%
X85090000Y-59791600D03*
%TO.P,C9,2*%
%TO.N,DGND*%
X85090000Y-62741600D03*
%TD*%
D21*
%TO.P,R17,1*%
%TO.N,AGND*%
X106110000Y-90043000D03*
%TO.P,R17,2*%
%TO.N,Net-(U2B--)*%
X107935000Y-90043000D03*
%TD*%
D33*
%TO.N,Net-(R1-Pad2)*%
X121380000Y-73020000D03*
X115740000Y-75370000D03*
%TO.N,AGND*%
X89930000Y-87000000D03*
D34*
X117880000Y-68780000D03*
X118417099Y-58709369D03*
D33*
X112520000Y-63680000D03*
X107480000Y-63890000D03*
D34*
X114210000Y-87440000D03*
D33*
X100100000Y-82680000D03*
X100830000Y-87390000D03*
X102060000Y-78360000D03*
X100290000Y-71950000D03*
X100100000Y-76900000D03*
X96126000Y-80946000D03*
%TO.N,DGND*%
X95100000Y-70810000D03*
X93218000Y-77114400D03*
X85344000Y-64363600D03*
X91389200Y-65430400D03*
%TD*%
D35*
%TO.N,Net-(R16-Pad1)*%
X111139600Y-84790000D02*
X118173900Y-84790000D01*
X118173900Y-84790000D02*
X118234300Y-84850400D01*
X116509800Y-82016600D02*
X117021200Y-82016600D01*
X115239800Y-84790200D02*
X116052600Y-83977400D01*
X116052600Y-83977400D02*
X116052600Y-82473800D01*
X116052600Y-82473800D02*
X116509800Y-82016600D01*
%TO.N,AGND*%
X96126000Y-80946000D02*
X96068000Y-81004000D01*
X96068000Y-81004000D02*
X94742000Y-81004000D01*
D36*
%TO.N,AVCC*%
X94742000Y-78404000D02*
X93958056Y-78404000D01*
X93958056Y-78404000D02*
X92970000Y-79392056D01*
X92970000Y-79392056D02*
X92970000Y-82630000D01*
X88800000Y-86800000D02*
X88800000Y-87130000D01*
X92970000Y-82630000D02*
X88800000Y-86800000D01*
X87782400Y-88147600D02*
X87782400Y-91211400D01*
X88188800Y-91617800D02*
X91948000Y-91617800D01*
X92532200Y-91033600D02*
X92532200Y-89331800D01*
X88800000Y-87130000D02*
X87782400Y-88147600D01*
X87782400Y-91211400D02*
X88188800Y-91617800D01*
X91948000Y-91617800D02*
X92532200Y-91033600D01*
D35*
%TO.N,Net-(R1-Pad2)*%
X121380000Y-73030000D02*
X121380000Y-73020000D01*
X121500000Y-73150000D02*
X121380000Y-73030000D01*
X121794900Y-73444900D02*
X121500000Y-73150000D01*
X121794900Y-74498200D02*
X121794900Y-73444900D01*
X115773600Y-75336400D02*
X115740000Y-75370000D01*
X117172100Y-75336400D02*
X115773600Y-75336400D01*
%TO.N,AGND*%
X89910000Y-87000000D02*
X89930000Y-87000000D01*
X89860000Y-87050000D02*
X89910000Y-87000000D01*
X88976200Y-87933800D02*
X89860000Y-87050000D01*
X88976200Y-88595200D02*
X88976200Y-87933800D01*
%TO.N,/reflo*%
X94742000Y-83604000D02*
X94004501Y-83604000D01*
X90362200Y-90180600D02*
X90601800Y-90420200D01*
X90820000Y-86788501D02*
X90820000Y-87628972D01*
X94004501Y-83604000D02*
X90820000Y-86788501D01*
X90820000Y-87628972D02*
X90362200Y-88086772D01*
X90362200Y-88086772D02*
X90362200Y-90180600D01*
D37*
%TO.N,AGND*%
X116956800Y-69483200D02*
X117590000Y-68850000D01*
X117660000Y-68780000D02*
X117880000Y-68780000D01*
X117590000Y-68850000D02*
X117660000Y-68780000D01*
X116956800Y-70510400D02*
X116956800Y-69483200D01*
D38*
X118370000Y-58700000D02*
X118407730Y-58700000D01*
X118407730Y-58700000D02*
X118417099Y-58709369D01*
D36*
%TO.N,AVCC*%
X112369600Y-58340000D02*
X112369600Y-60401200D01*
%TO.N,AGND*%
X112520000Y-63680000D02*
X112520000Y-62451600D01*
X112520000Y-62451600D02*
X112369600Y-62301200D01*
X116936100Y-57429400D02*
X117589400Y-57429400D01*
X117589400Y-57429400D02*
X118370000Y-58210000D01*
X118370000Y-58210000D02*
X118370000Y-58700000D01*
X105770600Y-62640000D02*
X106820300Y-63689700D01*
X106820300Y-63689700D02*
X107020600Y-63890000D01*
X107020600Y-63890000D02*
X107480000Y-63890000D01*
D37*
X114210000Y-87440000D02*
X114300000Y-87530000D01*
X114300000Y-87530000D02*
X114300000Y-89281000D01*
D35*
X100096500Y-82680000D02*
X100100000Y-82680000D01*
X99261300Y-83515200D02*
X100096500Y-82680000D01*
%TO.N,AVCC*%
X97663000Y-88599000D02*
X97663000Y-87960200D01*
X99695000Y-87325200D02*
X101160000Y-85860200D01*
X101160000Y-85860200D02*
X101160000Y-82414800D01*
X97663000Y-87960200D02*
X98298000Y-87325200D01*
X98298000Y-87325200D02*
X99695000Y-87325200D01*
X101160000Y-82414800D02*
X99796600Y-81051400D01*
X99796600Y-81051400D02*
X99273400Y-81051400D01*
%TO.N,/signal*%
X100913000Y-79704000D02*
X101970000Y-80761000D01*
X101970000Y-80761000D02*
X101970000Y-83910600D01*
X101970000Y-83910600D02*
X104038400Y-85979000D01*
X104038400Y-85979000D02*
X106048000Y-85979000D01*
%TO.N,AGND*%
X100772000Y-87390000D02*
X100830000Y-87390000D01*
X99563000Y-88599000D02*
X100772000Y-87390000D01*
X106110000Y-90043000D02*
X106110000Y-87311000D01*
X106110000Y-87311000D02*
X106048000Y-87249000D01*
X102050000Y-78350000D02*
X102060000Y-78360000D01*
X102050000Y-78270000D02*
X102050000Y-78350000D01*
X103029700Y-77290300D02*
X102050000Y-78270000D01*
X103200200Y-77290300D02*
X103029700Y-77290300D01*
D37*
%TO.N,DGND*%
X94107000Y-71803000D02*
X94107000Y-71856600D01*
X95100000Y-70810000D02*
X94107000Y-71803000D01*
D35*
%TO.N,AGND*%
X100290000Y-71950000D02*
X100290000Y-72612800D01*
X100290000Y-72612800D02*
X99771200Y-73131600D01*
X100100000Y-76900000D02*
X100100000Y-77608600D01*
X100100000Y-77608600D02*
X99425800Y-78282800D01*
D36*
%TO.N,DGND*%
X93228400Y-77104000D02*
X93218000Y-77114400D01*
X94742000Y-77104000D02*
X93228400Y-77104000D01*
X91389200Y-65430400D02*
X91389200Y-71475600D01*
X91389200Y-71475600D02*
X91744800Y-71831200D01*
X85090000Y-64109600D02*
X85344000Y-64363600D01*
X85090000Y-62741600D02*
X85090000Y-64109600D01*
D35*
X91368800Y-65410000D02*
X91389200Y-65430400D01*
D36*
X91368800Y-62687200D02*
X91368800Y-65410000D01*
D35*
X91368800Y-62717600D02*
X91389200Y-62738000D01*
D36*
X91744800Y-71831200D02*
X94081600Y-71831200D01*
D35*
X94081600Y-71831200D02*
X94107000Y-71856600D01*
%TO.N,AGND*%
X99248000Y-85777700D02*
X99248000Y-83528500D01*
X99248000Y-83528500D02*
X99261300Y-83515200D01*
X99563000Y-90758000D02*
X99563000Y-88599000D01*
X99563000Y-90758000D02*
X105395000Y-90758000D01*
X105395000Y-90758000D02*
X106110000Y-90043000D01*
D36*
%TO.N,AVCC*%
X99771200Y-75031600D02*
X100685600Y-75031600D01*
X100685600Y-75031600D02*
X101320600Y-74396600D01*
X101320600Y-74396600D02*
X101320600Y-69418200D01*
X104317800Y-66421000D02*
X112166500Y-66421000D01*
X101320600Y-69418200D02*
X104317800Y-66421000D01*
D35*
%TO.N,/signal*%
X100913000Y-79704000D02*
X100913000Y-76658400D01*
X100913000Y-76658400D02*
X102106100Y-75465300D01*
X102106100Y-75465300D02*
X103200200Y-75465300D01*
%TO.N,AGND*%
X107848400Y-77315700D02*
X109475900Y-77315700D01*
X109475900Y-77315700D02*
X111810800Y-74980800D01*
%TO.N,Net-(J5-Pin_1)*%
X103098600Y-72212200D02*
X111582200Y-72212200D01*
X111582200Y-72212200D02*
X111810800Y-72440800D01*
%TO.N,/signal*%
X103200200Y-75465300D02*
X103200200Y-73613800D01*
X103200200Y-73613800D02*
X103098600Y-73512200D01*
D36*
X103098600Y-75363700D02*
X103200200Y-75465300D01*
D37*
%TO.N,AGND*%
X123647200Y-68280200D02*
X123647200Y-60833000D01*
X123647200Y-60833000D02*
X123215400Y-60401200D01*
%TO.N,/out*%
X123619900Y-74498200D02*
X123619900Y-70847500D01*
X123619900Y-70847500D02*
X123647200Y-70820200D01*
D36*
%TO.N,AVCC*%
X94742000Y-78404000D02*
X95525944Y-78404000D01*
X95525944Y-78404000D02*
X97459800Y-76470144D01*
D35*
X94341499Y-89535000D02*
X92735400Y-89535000D01*
X92735400Y-89535000D02*
X92532200Y-89331800D01*
X94742000Y-88472000D02*
X94742000Y-89134499D01*
X94742000Y-89134499D02*
X94341499Y-89535000D01*
D36*
X92532200Y-89331800D02*
X91795600Y-88595200D01*
X91795600Y-88595200D02*
X91389200Y-88595200D01*
D35*
X91389200Y-88595200D02*
X91843200Y-88595200D01*
D37*
%TO.N,V+*%
X121056400Y-76784200D02*
X121259600Y-76987400D01*
X123063000Y-76987400D02*
X123695700Y-77620100D01*
X121259600Y-76987400D02*
X123063000Y-76987400D01*
X123695700Y-77620100D02*
X123695700Y-78994000D01*
%TO.N,Net-(R1-Pad2)*%
X121746000Y-74701400D02*
X121746000Y-75416400D01*
X125222000Y-81530200D02*
X123414800Y-83337400D01*
X124129800Y-75971400D02*
X125222000Y-77063600D01*
X121746000Y-75416400D02*
X122301000Y-75971400D01*
X122301000Y-75971400D02*
X124129800Y-75971400D01*
X125222000Y-77063600D02*
X125222000Y-81530200D01*
D35*
%TO.N,Net-(U2A--)*%
X105689400Y-75490700D02*
X107848400Y-75490700D01*
D36*
%TO.N,AGND*%
X110301000Y-79502000D02*
X112968000Y-79502000D01*
X107848400Y-77315700D02*
X108114700Y-77315700D01*
X108114700Y-77315700D02*
X110301000Y-79502000D01*
D35*
X97459800Y-73141800D02*
X99761000Y-73141800D01*
X99761000Y-73141800D02*
X99771200Y-73131600D01*
X94742000Y-81004000D02*
X94742000Y-80354000D01*
%TO.N,Net-(U1-FS_ADJ)*%
X94742000Y-82304000D02*
X95740600Y-82304000D01*
X95740600Y-82304000D02*
X96951800Y-83515200D01*
X96951800Y-83515200D02*
X97436300Y-83515200D01*
D36*
%TO.N,AVCC*%
X112968000Y-81402000D02*
X114554000Y-79816000D01*
X114554000Y-79816000D02*
X114554000Y-68808500D01*
X114554000Y-68808500D02*
X112166500Y-66421000D01*
D37*
%TO.N,AGND*%
X123215400Y-60401200D02*
X123215400Y-60655200D01*
D35*
%TO.N,AVCC*%
X110642400Y-58013600D02*
X112043200Y-58013600D01*
D37*
X110642400Y-58013600D02*
X109143800Y-56515000D01*
X109143800Y-56515000D02*
X107325000Y-56515000D01*
X112166500Y-66421000D02*
X110642400Y-64896900D01*
X110642400Y-64896900D02*
X110642400Y-58013600D01*
D36*
%TO.N,DVCC*%
X85090000Y-59791600D02*
X85090000Y-56926400D01*
X85090000Y-56926400D02*
X85450600Y-56565800D01*
X85090000Y-59791600D02*
X86563200Y-59791600D01*
X86563200Y-59791600D02*
X87172800Y-60401200D01*
X87172800Y-60401200D02*
X87172800Y-70434200D01*
X87172800Y-70434200D02*
X90469800Y-73731200D01*
X90469800Y-73731200D02*
X91744800Y-73731200D01*
D37*
%TO.N,V-*%
X114300000Y-90581000D02*
X117050700Y-90581000D01*
X117050700Y-90581000D02*
X117309300Y-90322400D01*
X114467400Y-90322400D02*
X114452400Y-90337400D01*
%TO.N,Net-(Q1-E)*%
X121820700Y-79944000D02*
X121820700Y-83106500D01*
X121820700Y-83106500D02*
X121589800Y-83337400D01*
D35*
%TO.N,V+*%
X117205800Y-78257400D02*
X118679000Y-76784200D01*
X118679000Y-76784200D02*
X121056400Y-76784200D01*
D37*
X120243600Y-65862200D02*
X120243600Y-75971400D01*
X119284600Y-64903200D02*
X120243600Y-65862200D01*
X120243600Y-75971400D02*
X121056400Y-76784200D01*
X119284600Y-61569600D02*
X119284600Y-64903200D01*
D35*
%TO.N,Net-(R1-Pad2)*%
X117031800Y-72796400D02*
X117031800Y-75196100D01*
X117031800Y-75196100D02*
X117172100Y-75336400D01*
D36*
X117172100Y-72936700D02*
X117031800Y-72796400D01*
D35*
%TO.N,Net-(R16-Pad1)*%
X119022500Y-75793600D02*
X118311300Y-76504800D01*
X118311300Y-76504800D02*
X116992400Y-76504800D01*
X116001800Y-77495400D02*
X116001800Y-81534000D01*
X116992400Y-76504800D02*
X116001800Y-77495400D01*
X116001800Y-81534000D02*
X116484400Y-82016600D01*
X116484400Y-82016600D02*
X117021200Y-82016600D01*
D37*
%TO.N,V+*%
X119284600Y-61569600D02*
X120147000Y-61569600D01*
X120147000Y-61569600D02*
X121315400Y-60401200D01*
X121770000Y-58235000D02*
X121770000Y-60240400D01*
X121158000Y-60243800D02*
X121315400Y-60401200D01*
%TO.N,AGND*%
X123878200Y-58209600D02*
X123878200Y-60347000D01*
X123266200Y-60350400D02*
X123215400Y-60401200D01*
D35*
%TO.N,AVCC*%
X112369600Y-58340000D02*
X114621700Y-58340000D01*
D37*
X114621700Y-58340000D02*
X114661100Y-58379400D01*
%TO.N,Net-(D3-A)*%
X114909600Y-61569600D02*
X114909600Y-65379600D01*
X114909600Y-65379600D02*
X115951000Y-66421000D01*
X116936100Y-58379400D02*
X116936100Y-59543100D01*
X116936100Y-59543100D02*
X114909600Y-61569600D01*
D35*
%TO.N,V+*%
X119687200Y-57959400D02*
X121494400Y-57959400D01*
X121494400Y-57959400D02*
X121770000Y-58235000D01*
%TO.N,Net-(U5-FB)*%
X121770000Y-56410000D02*
X123852800Y-56410000D01*
X123852800Y-56410000D02*
X123878200Y-56384600D01*
X119687200Y-56409400D02*
X121769400Y-56409400D01*
X121769400Y-56409400D02*
X121770000Y-56410000D01*
X117548100Y-56476000D02*
X119620600Y-56476000D01*
X119620600Y-56476000D02*
X119687200Y-56409400D01*
%TO.N,Net-(U5-EN)*%
X112369600Y-56515000D02*
X114625500Y-56515000D01*
X114625500Y-56515000D02*
X114661100Y-56479400D01*
D38*
%TO.N,Net-(C1-Pad1)*%
X118856800Y-70510400D02*
X118856800Y-72796400D01*
D35*
%TO.N,AGND*%
X95692000Y-90747000D02*
X96816800Y-91871800D01*
D36*
X106871400Y-61539200D02*
X105770600Y-62640000D01*
X105708200Y-62702400D02*
X105770600Y-62640000D01*
D35*
X98449200Y-91871800D02*
X99563000Y-90758000D01*
X96816800Y-91871800D02*
X98449200Y-91871800D01*
D36*
X108742400Y-61539200D02*
X106871400Y-61539200D01*
X99065000Y-62702400D02*
X105708200Y-62702400D01*
D35*
%TO.N,Net-(U1-COMP1)*%
X96770800Y-81654000D02*
X97373400Y-81051400D01*
X94742000Y-81654000D02*
X96770800Y-81654000D01*
%TO.N,AVCC*%
X97134500Y-87482500D02*
X97663000Y-88011000D01*
D36*
X101452600Y-59690000D02*
X105770600Y-59690000D01*
D35*
X94742000Y-87809501D02*
X95069001Y-87482500D01*
X95069001Y-87482500D02*
X97134500Y-87482500D01*
D36*
X99065000Y-57302400D02*
X101452600Y-59690000D01*
X107325000Y-58135600D02*
X107325000Y-56515000D01*
X112968000Y-81402000D02*
X110301000Y-81402000D01*
D35*
X94742000Y-88472000D02*
X94742000Y-87809501D01*
D36*
X107325000Y-58221800D02*
X108742400Y-59639200D01*
X105770600Y-59690000D02*
X107325000Y-58135600D01*
X97459800Y-75041800D02*
X99761000Y-75041800D01*
X110301000Y-82742000D02*
X110998000Y-83439000D01*
X107325000Y-56515000D02*
X107325000Y-58221800D01*
D35*
X97663000Y-88011000D02*
X97663000Y-88599000D01*
X99761000Y-75041800D02*
X99771200Y-75031600D01*
D36*
X110301000Y-81402000D02*
X110301000Y-82742000D01*
D35*
%TO.N,Net-(U1-COMP2)*%
X94742000Y-79054000D02*
X96510800Y-79054000D01*
X96510800Y-79054000D02*
X97282000Y-78282800D01*
%TO.N,/refio*%
X93792000Y-88472000D02*
X93792000Y-87809501D01*
X96342200Y-84771900D02*
X96342200Y-83667600D01*
X95628600Y-82954000D02*
X94742000Y-82954000D01*
X95823801Y-85777700D02*
X97348000Y-85777700D01*
X93792000Y-87809501D02*
X95823801Y-85777700D01*
X97348000Y-85777700D02*
X96342200Y-84771900D01*
X96342200Y-83667600D02*
X95628600Y-82954000D01*
D36*
%TO.N,DGND*%
X84272200Y-61615400D02*
X82169000Y-61615400D01*
X85090000Y-62741600D02*
X85090000Y-62433200D01*
X85090000Y-62433200D02*
X84272200Y-61615400D01*
%TO.N,DVCC*%
X90647400Y-56565800D02*
X91368800Y-57287200D01*
X82169000Y-59715400D02*
X85013800Y-59715400D01*
D35*
X95436140Y-76454000D02*
X94742000Y-76454000D01*
D36*
X85450600Y-56565800D02*
X90647400Y-56565800D01*
X91744800Y-73731200D02*
X94081600Y-73731200D01*
X85476000Y-56591200D02*
X85450600Y-56565800D01*
D38*
X94081600Y-73731200D02*
X94107000Y-73756600D01*
D35*
X95986600Y-74650600D02*
X95986600Y-75903540D01*
X95986600Y-75903540D02*
X95436140Y-76454000D01*
X95092600Y-73756600D02*
X95986600Y-74650600D01*
D36*
X85013800Y-59715400D02*
X85090000Y-59791600D01*
D35*
X94107000Y-73756600D02*
X95092600Y-73756600D01*
%TO.N,Net-(D1-K)*%
X118770400Y-81813400D02*
X119557800Y-81813400D01*
X117627400Y-80670400D02*
X118770400Y-81813400D01*
X120091200Y-83921600D02*
X119659400Y-84353400D01*
X117347300Y-80670400D02*
X117627400Y-80670400D01*
X119659400Y-84353400D02*
X118505000Y-84353400D01*
X120091200Y-82346800D02*
X120091200Y-83921600D01*
X119557800Y-81813400D02*
X120091200Y-82346800D01*
X118505000Y-84353400D02*
X117311200Y-83159600D01*
%TO.N,Net-(D1-A)*%
X121607300Y-78257400D02*
X121820700Y-78044000D01*
X119030800Y-80303900D02*
X119397300Y-80670400D01*
X119030800Y-78257400D02*
X119030800Y-80303900D01*
X119030800Y-78257400D02*
X121607300Y-78257400D01*
%TO.N,Net-(D2-K)*%
X119246800Y-88163400D02*
X119246800Y-90209900D01*
X119246800Y-90209900D02*
X119134300Y-90322400D01*
%TO.N,Net-(D2-A)*%
X117309300Y-88050900D02*
X117196800Y-88163400D01*
D36*
X117309300Y-85750400D02*
X117309300Y-88050900D01*
D35*
%TO.N,Net-(J1-Pin_9)*%
X87350600Y-87274400D02*
X83058000Y-91567000D01*
X89017000Y-80354000D02*
X88048000Y-80354000D01*
X87350600Y-81051400D02*
X87350600Y-87274400D01*
X88048000Y-80354000D02*
X87350600Y-81051400D01*
%TO.N,Net-(J1-Pin_6)*%
X83058000Y-83947000D02*
X85572600Y-81432400D01*
X85572600Y-79959200D02*
X87127800Y-78404000D01*
X87127800Y-78404000D02*
X89017000Y-78404000D01*
X85572600Y-81432400D02*
X85572600Y-79959200D01*
%TO.N,Net-(J1-Pin_7)*%
X87519200Y-79054000D02*
X89017000Y-79054000D01*
X86106000Y-83439000D02*
X86106000Y-80467200D01*
X86106000Y-80467200D02*
X87519200Y-79054000D01*
X83058000Y-86487000D02*
X86106000Y-83439000D01*
%TO.N,Net-(J1-Pin_1)*%
X85540000Y-73729000D02*
X89070600Y-73729000D01*
X83058000Y-71247000D02*
X85540000Y-73729000D01*
X91145600Y-75804000D02*
X94742000Y-75804000D01*
X89070600Y-73729000D02*
X91145600Y-75804000D01*
%TO.N,Net-(J1-Pin_8)*%
X83058000Y-89027000D02*
X86715600Y-85369400D01*
X86715600Y-85369400D02*
X86715600Y-80797400D01*
X87809000Y-79704000D02*
X89017000Y-79704000D01*
X86715600Y-80797400D02*
X87809000Y-79704000D01*
%TO.N,Net-(J1-Pin_3)*%
X83185000Y-76454000D02*
X89017000Y-76454000D01*
X83058000Y-76327000D02*
X83185000Y-76454000D01*
%TO.N,Net-(J1-Pin_2)*%
X85075000Y-75804000D02*
X83058000Y-73787000D01*
X89017000Y-75804000D02*
X85075000Y-75804000D01*
%TO.N,Net-(J1-Pin_5)*%
X83058000Y-81407000D02*
X86711000Y-77754000D01*
X86711000Y-77754000D02*
X89017000Y-77754000D01*
%TO.N,Net-(J1-Pin_4)*%
X84821000Y-77104000D02*
X89017000Y-77104000D01*
X83058000Y-78867000D02*
X84821000Y-77104000D01*
D36*
%TO.N,Net-(Q2-E)*%
X121611400Y-85598000D02*
X121611400Y-86026000D01*
D35*
%TO.N,Net-(R1-Pad2)*%
X124223800Y-86123800D02*
X123436400Y-86123800D01*
D36*
X123436400Y-86123800D02*
X123436400Y-85598000D01*
D35*
X113722400Y-92100400D02*
X123520200Y-92100400D01*
X125501400Y-87401400D02*
X124223800Y-86123800D01*
D37*
X123436400Y-85598000D02*
X123436400Y-83359000D01*
D36*
X123436400Y-83359000D02*
X123414800Y-83337400D01*
D35*
X125501400Y-90119200D02*
X125501400Y-87401400D01*
X123520200Y-92100400D02*
X125501400Y-90119200D01*
X111665000Y-90043000D02*
X113722400Y-92100400D01*
%TO.N,Net-(U2B--)*%
X110464600Y-88468200D02*
X112217200Y-88468200D01*
X107935000Y-90043000D02*
X109840000Y-90043000D01*
X112217200Y-88468200D02*
X112877600Y-87807800D01*
X112877600Y-87807800D02*
X112877600Y-86487000D01*
X112369600Y-85979000D02*
X110998000Y-85979000D01*
X109840000Y-90043000D02*
X109840000Y-89092800D01*
X112877600Y-86487000D02*
X112369600Y-85979000D01*
X109840000Y-89092800D02*
X110464600Y-88468200D01*
%TO.N,Net-(R7-Pad1)*%
X106048000Y-80849300D02*
X105996100Y-80797400D01*
X105689400Y-80490700D02*
X105996100Y-80797400D01*
X105689400Y-77315700D02*
X105689400Y-80490700D01*
X106048000Y-83439000D02*
X106048000Y-80849300D01*
%TO.N,Net-(U2B-+)*%
X107821100Y-80797400D02*
X107821100Y-85037300D01*
X107821100Y-85037300D02*
X110032800Y-87249000D01*
X110032800Y-87249000D02*
X110998000Y-87249000D01*
%TO.N,Net-(U2A--)*%
X105073001Y-84709000D02*
X104444800Y-84080799D01*
X106048000Y-84709000D02*
X105073001Y-84709000D01*
X104444800Y-75996800D02*
X104950900Y-75490700D01*
X104444800Y-84080799D02*
X104444800Y-75996800D01*
X104950900Y-75490700D02*
X105689400Y-75490700D01*
%TO.N,/signal*%
X94742000Y-79704000D02*
X100304600Y-79704000D01*
X100864600Y-79704000D02*
X100304600Y-79704000D01*
X100304600Y-79704000D02*
X100913000Y-79704000D01*
%TO.N,Net-(U3--)*%
X93792000Y-90747000D02*
X94091999Y-90747000D01*
X97303001Y-90758000D02*
X97738000Y-90758000D01*
X95692000Y-89146999D02*
X95692000Y-88472000D01*
X94091999Y-90747000D02*
X95692000Y-89146999D01*
X95692000Y-89146999D02*
X97303001Y-90758000D01*
%TO.N,/reflo*%
X90747148Y-90420200D02*
X91068174Y-90741226D01*
%TO.N,Net-(R16-Pad1)*%
X118065600Y-82016600D02*
X119134300Y-83085300D01*
X117021200Y-82016600D02*
X118065600Y-82016600D01*
D36*
%TO.N,V-*%
X117309300Y-90918700D02*
X117957600Y-91567000D01*
X117309300Y-90322400D02*
X117309300Y-90918700D01*
X117957600Y-91567000D02*
X119938800Y-91567000D01*
X119938800Y-91567000D02*
X120370600Y-91135200D01*
X120370600Y-91135200D02*
X120370600Y-89966800D01*
X120370600Y-89966800D02*
X121005600Y-89331800D01*
%TO.N,Net-(Q2-E)*%
X121611400Y-86026000D02*
X122555000Y-86969600D01*
X122555000Y-86969600D02*
X123875800Y-86969600D01*
X123875800Y-86969600D02*
X124942600Y-88036400D01*
X124942600Y-88036400D02*
X124942600Y-89814400D01*
X124942600Y-89814400D02*
X124155200Y-90601800D01*
X122041400Y-90601800D02*
X121721400Y-90281800D01*
X124155200Y-90601800D02*
X122041400Y-90601800D01*
%TO.N,V-*%
X121005600Y-89331800D02*
X123596400Y-89331800D01*
D35*
%TO.N,Net-(D2-K)*%
X121503000Y-88163400D02*
X121721400Y-88381800D01*
X119246800Y-88163400D02*
X121503000Y-88163400D01*
D36*
%TO.N,Net-(D3-A)*%
X114909600Y-60405900D02*
X114909600Y-61569600D01*
D35*
%TO.N,/reflo*%
X90601800Y-90420200D02*
X90747148Y-90420200D01*
X88976200Y-90420200D02*
X90601800Y-90420200D01*
D36*
%TO.N,AVCC*%
X97459800Y-76470144D02*
X97459800Y-75041800D01*
D35*
%TO.N,Net-(R16-Pad1)*%
X110998000Y-84709000D02*
X111139400Y-84850400D01*
X118234300Y-84850400D02*
X119134300Y-85750400D01*
%TD*%
M02*
