%TF.GenerationSoftware,KiCad,Pcbnew,8.0.5*%
%TF.CreationDate,2024-11-17T22:13:22-05:00*%
%TF.ProjectId,power_glitcher,706f7765-725f-4676-9c69-74636865722e,2.0*%
%TF.SameCoordinates,Original*%
%TF.FileFunction,Copper,L1,Top*%
%TF.FilePolarity,Positive*%
%FSLAX46Y46*%
G04 Gerber Fmt 4.6, Leading zero omitted, Abs format (unit mm)*
G04 Created by KiCad (PCBNEW 8.0.5) date 2024-11-17 22:13:22*
%MOMM*%
%LPD*%
G01*
G04 APERTURE LIST*
G04 Aperture macros list*
%AMRoundRect*
0 Rectangle with rounded corners*
0 $1 Rounding radius*
0 $2 $3 $4 $5 $6 $7 $8 $9 X,Y pos of 4 corners*
0 Add a 4 corners polygon primitive as box body*
4,1,4,$2,$3,$4,$5,$6,$7,$8,$9,$2,$3,0*
0 Add four circle primitives for the rounded corners*
1,1,$1+$1,$2,$3*
1,1,$1+$1,$4,$5*
1,1,$1+$1,$6,$7*
1,1,$1+$1,$8,$9*
0 Add four rect primitives between the rounded corners*
20,1,$1+$1,$2,$3,$4,$5,0*
20,1,$1+$1,$4,$5,$6,$7,0*
20,1,$1+$1,$6,$7,$8,$9,0*
20,1,$1+$1,$8,$9,$2,$3,0*%
G04 Aperture macros list end*
%TA.AperFunction,SMDPad,CuDef*%
%ADD10RoundRect,0.250000X-0.450000X0.262500X-0.450000X-0.262500X0.450000X-0.262500X0.450000X0.262500X0*%
%TD*%
%TA.AperFunction,SMDPad,CuDef*%
%ADD11RoundRect,0.250000X0.475000X-0.250000X0.475000X0.250000X-0.475000X0.250000X-0.475000X-0.250000X0*%
%TD*%
%TA.AperFunction,SMDPad,CuDef*%
%ADD12RoundRect,0.150000X-0.725000X-0.150000X0.725000X-0.150000X0.725000X0.150000X-0.725000X0.150000X0*%
%TD*%
%TA.AperFunction,SMDPad,CuDef*%
%ADD13RoundRect,0.150000X-0.825000X-0.150000X0.825000X-0.150000X0.825000X0.150000X-0.825000X0.150000X0*%
%TD*%
%TA.AperFunction,SMDPad,CuDef*%
%ADD14RoundRect,0.250000X0.262500X0.450000X-0.262500X0.450000X-0.262500X-0.450000X0.262500X-0.450000X0*%
%TD*%
%TA.AperFunction,SMDPad,CuDef*%
%ADD15RoundRect,0.250000X-0.262500X-0.450000X0.262500X-0.450000X0.262500X0.450000X-0.262500X0.450000X0*%
%TD*%
%TA.AperFunction,SMDPad,CuDef*%
%ADD16R,1.500000X1.000000*%
%TD*%
%TA.AperFunction,SMDPad,CuDef*%
%ADD17RoundRect,0.250000X-0.550000X1.500000X-0.550000X-1.500000X0.550000X-1.500000X0.550000X1.500000X0*%
%TD*%
%TA.AperFunction,ComponentPad*%
%ADD18R,1.700000X1.700000*%
%TD*%
%TA.AperFunction,ComponentPad*%
%ADD19O,1.700000X1.700000*%
%TD*%
%TA.AperFunction,SMDPad,CuDef*%
%ADD20RoundRect,0.250000X0.450000X-0.262500X0.450000X0.262500X-0.450000X0.262500X-0.450000X-0.262500X0*%
%TD*%
%TA.AperFunction,SMDPad,CuDef*%
%ADD21RoundRect,0.250000X0.250000X0.475000X-0.250000X0.475000X-0.250000X-0.475000X0.250000X-0.475000X0*%
%TD*%
%TA.AperFunction,SMDPad,CuDef*%
%ADD22RoundRect,0.150000X-0.150000X0.512500X-0.150000X-0.512500X0.150000X-0.512500X0.150000X0.512500X0*%
%TD*%
%TA.AperFunction,SMDPad,CuDef*%
%ADD23RoundRect,0.250000X-0.475000X0.250000X-0.475000X-0.250000X0.475000X-0.250000X0.475000X0.250000X0*%
%TD*%
%TA.AperFunction,SMDPad,CuDef*%
%ADD24RoundRect,0.250000X-0.250000X-0.475000X0.250000X-0.475000X0.250000X0.475000X-0.250000X0.475000X0*%
%TD*%
%TA.AperFunction,SMDPad,CuDef*%
%ADD25RoundRect,0.100000X-0.637500X-0.100000X0.637500X-0.100000X0.637500X0.100000X-0.637500X0.100000X0*%
%TD*%
%TA.AperFunction,SMDPad,CuDef*%
%ADD26RoundRect,0.250000X0.587500X1.625000X-0.587500X1.625000X-0.587500X-1.625000X0.587500X-1.625000X0*%
%TD*%
%TA.AperFunction,SMDPad,CuDef*%
%ADD27RoundRect,0.225000X0.250000X-0.225000X0.250000X0.225000X-0.250000X0.225000X-0.250000X-0.225000X0*%
%TD*%
%TA.AperFunction,SMDPad,CuDef*%
%ADD28RoundRect,0.150000X0.512500X0.150000X-0.512500X0.150000X-0.512500X-0.150000X0.512500X-0.150000X0*%
%TD*%
%TA.AperFunction,SMDPad,CuDef*%
%ADD29RoundRect,0.250000X-0.325000X-0.450000X0.325000X-0.450000X0.325000X0.450000X-0.325000X0.450000X0*%
%TD*%
%TA.AperFunction,SMDPad,CuDef*%
%ADD30RoundRect,0.150000X-0.587500X-0.150000X0.587500X-0.150000X0.587500X0.150000X-0.587500X0.150000X0*%
%TD*%
%TA.AperFunction,SMDPad,CuDef*%
%ADD31RoundRect,0.250000X0.325000X0.450000X-0.325000X0.450000X-0.325000X-0.450000X0.325000X-0.450000X0*%
%TD*%
%TA.AperFunction,SMDPad,CuDef*%
%ADD32RoundRect,0.250000X-1.100000X0.325000X-1.100000X-0.325000X1.100000X-0.325000X1.100000X0.325000X0*%
%TD*%
%TA.AperFunction,SMDPad,CuDef*%
%ADD33R,1.854500X2.286000*%
%TD*%
%TA.AperFunction,ViaPad*%
%ADD34C,1.270000*%
%TD*%
%TA.AperFunction,ViaPad*%
%ADD35C,0.762000*%
%TD*%
%TA.AperFunction,Conductor*%
%ADD36C,0.200000*%
%TD*%
%TA.AperFunction,Conductor*%
%ADD37C,0.254000*%
%TD*%
%TA.AperFunction,Conductor*%
%ADD38C,0.508000*%
%TD*%
%TA.AperFunction,Conductor*%
%ADD39C,0.381000*%
%TD*%
G04 APERTURE END LIST*
D10*
%TO.P,R21,1*%
%TO.N,Net-(U5-FB)*%
X121770000Y-56410000D03*
%TO.P,R21,2*%
%TO.N,V+*%
X121770000Y-58235000D03*
%TD*%
D11*
%TO.P,C17,1*%
%TO.N,AVCC*%
X99771200Y-75031600D03*
%TO.P,C17,2*%
%TO.N,AGND*%
X99771200Y-73131600D03*
%TD*%
D12*
%TO.P,U4,1,NC*%
%TO.N,unconnected-(U4-NC-Pad1)*%
X114036400Y-65495400D03*
%TO.P,U4,2,CAP+*%
%TO.N,Net-(U4-CAP+)*%
X114036400Y-66765400D03*
%TO.P,U4,3,GND*%
%TO.N,AGND*%
X114036400Y-68035400D03*
%TO.P,U4,4,CAP-*%
%TO.N,Net-(U4-CAP-)*%
X114036400Y-69305400D03*
%TO.P,U4,5,VOUT*%
%TO.N,V-*%
X119186400Y-69305400D03*
%TO.P,U4,6,LV*%
%TO.N,unconnected-(U4-LV-Pad6)*%
X119186400Y-68035400D03*
%TO.P,U4,7,OSC*%
%TO.N,unconnected-(U4-OSC-Pad7)*%
X119186400Y-66765400D03*
%TO.P,U4,8,V+*%
%TO.N,V+*%
X119186400Y-65495400D03*
%TD*%
D13*
%TO.P,U2,1*%
%TO.N,Net-(R7-Pad1)*%
X106048000Y-83439000D03*
%TO.P,U2,2,-*%
%TO.N,Net-(U2A--)*%
X106048000Y-84709000D03*
%TO.P,U2,3,+*%
%TO.N,/signal*%
X106048000Y-85979000D03*
%TO.P,U2,4,V-*%
%TO.N,V-*%
X106048000Y-87249000D03*
%TO.P,U2,5,+*%
%TO.N,Net-(U2B-+)*%
X110998000Y-87249000D03*
%TO.P,U2,6,-*%
%TO.N,Net-(U2B--)*%
X110998000Y-85979000D03*
%TO.P,U2,7*%
%TO.N,Net-(R16-Pad1)*%
X110998000Y-84709000D03*
%TO.P,U2,8,V+*%
%TO.N,V+*%
X110998000Y-83439000D03*
%TD*%
D14*
%TO.P,R2,1*%
%TO.N,Net-(R1-Pad2)*%
X123665000Y-86842600D03*
%TO.P,R2,2*%
%TO.N,Net-(Q2-E)*%
X121840000Y-86842600D03*
%TD*%
D15*
%TO.P,R16,1*%
%TO.N,Net-(R16-Pad1)*%
X117273700Y-76454000D03*
%TO.P,R16,2*%
%TO.N,Net-(R1-Pad2)*%
X119098700Y-76454000D03*
%TD*%
D16*
%TO.P,JP1,1,A*%
%TO.N,Net-(J5-Pin_1)*%
X103098600Y-72212200D03*
%TO.P,JP1,2,B*%
%TO.N,/signal*%
X103098600Y-73512200D03*
%TD*%
D17*
%TO.P,C6,1*%
%TO.N,AVCC*%
X99065000Y-57302400D03*
%TO.P,C6,2*%
%TO.N,AGND*%
X99065000Y-62702400D03*
%TD*%
D18*
%TO.P,J4,1,Pin_1*%
%TO.N,/out*%
X123875800Y-72064800D03*
D19*
%TO.P,J4,2,Pin_2*%
%TO.N,AGND*%
X123875800Y-69524800D03*
%TD*%
D20*
%TO.P,R20,1*%
%TO.N,AGND*%
X123878200Y-58209600D03*
%TO.P,R20,2*%
%TO.N,Net-(U5-FB)*%
X123878200Y-56384600D03*
%TD*%
D15*
%TO.P,R6,1*%
%TO.N,Net-(U2B--)*%
X109840000Y-90043000D03*
%TO.P,R6,2*%
%TO.N,Net-(R1-Pad2)*%
X111665000Y-90043000D03*
%TD*%
D14*
%TO.P,R15,1*%
%TO.N,AGND*%
X99261300Y-83515200D03*
%TO.P,R15,2*%
%TO.N,Net-(U1-FS_ADJ)*%
X97436300Y-83515200D03*
%TD*%
D21*
%TO.P,C22,1*%
%TO.N,V-*%
X103896200Y-90119200D03*
%TO.P,C22,2*%
%TO.N,AGND*%
X101996200Y-90119200D03*
%TD*%
D22*
%TO.P,U3,1*%
%TO.N,Net-(U3--)*%
X95565000Y-87096600D03*
%TO.P,U3,2,V-*%
%TO.N,V-*%
X94615000Y-87096600D03*
%TO.P,U3,3,+*%
%TO.N,/refio*%
X93665000Y-87096600D03*
%TO.P,U3,4,-*%
%TO.N,Net-(U3--)*%
X93665000Y-89371600D03*
%TO.P,U3,5,V+*%
%TO.N,V+*%
X95565000Y-89371600D03*
%TD*%
D20*
%TO.P,R10,1*%
%TO.N,AGND*%
X103200200Y-77290300D03*
%TO.P,R10,2*%
%TO.N,/signal*%
X103200200Y-75465300D03*
%TD*%
D23*
%TO.P,C23,1*%
%TO.N,Net-(U4-CAP+)*%
X111328200Y-66131400D03*
%TO.P,C23,2*%
%TO.N,Net-(U4-CAP-)*%
X111328200Y-68031400D03*
%TD*%
D18*
%TO.P,J6,1,Pin_1*%
%TO.N,V+*%
X112445800Y-75844400D03*
D19*
%TO.P,J6,2,Pin_2*%
%TO.N,V-*%
X112445800Y-73304400D03*
%TD*%
D15*
%TO.P,R18,1*%
%TO.N,Net-(D2-A)*%
X117527700Y-87122000D03*
%TO.P,R18,2*%
%TO.N,Net-(R16-Pad1)*%
X119352700Y-87122000D03*
%TD*%
D24*
%TO.P,C2,1*%
%TO.N,Net-(U1-COMP1)*%
X97460000Y-81070000D03*
%TO.P,C2,2*%
%TO.N,AVCC*%
X99360000Y-81070000D03*
%TD*%
D20*
%TO.P,R13,1*%
%TO.N,/reflo*%
X90779600Y-91389200D03*
%TO.P,R13,2*%
%TO.N,AVCC*%
X90779600Y-89564200D03*
%TD*%
D11*
%TO.P,C11,1*%
%TO.N,V+*%
X109956600Y-81000600D03*
%TO.P,C11,2*%
%TO.N,AGND*%
X109956600Y-79100600D03*
%TD*%
D14*
%TO.P,R12,1*%
%TO.N,AGND*%
X99439100Y-91059000D03*
%TO.P,R12,2*%
%TO.N,Net-(U3--)*%
X97614100Y-91059000D03*
%TD*%
D18*
%TO.P,J5,1,Pin_1*%
%TO.N,Net-(J5-Pin_1)*%
X108717000Y-71145400D03*
D19*
%TO.P,J5,2,Pin_2*%
%TO.N,AGND*%
X106177000Y-71145400D03*
%TD*%
D15*
%TO.P,R3,1*%
%TO.N,Net-(R1-Pad2)*%
X122023500Y-75742800D03*
%TO.P,R3,2*%
%TO.N,/out*%
X123848500Y-75742800D03*
%TD*%
D11*
%TO.P,C24,1*%
%TO.N,V-*%
X121818400Y-66786800D03*
%TO.P,C24,2*%
%TO.N,AGND*%
X121818400Y-64886800D03*
%TD*%
D25*
%TO.P,U1,1,DB7*%
%TO.N,Net-(J1-Pin_2)*%
X89017000Y-75804000D03*
%TO.P,U1,2,DB6*%
%TO.N,Net-(J1-Pin_3)*%
X89017000Y-76454000D03*
%TO.P,U1,3,DB5*%
%TO.N,Net-(J1-Pin_4)*%
X89017000Y-77104000D03*
%TO.P,U1,4,DB4*%
%TO.N,Net-(J1-Pin_5)*%
X89017000Y-77754000D03*
%TO.P,U1,5,DB3*%
%TO.N,Net-(J1-Pin_6)*%
X89017000Y-78404000D03*
%TO.P,U1,6,DB2*%
%TO.N,Net-(J1-Pin_7)*%
X89017000Y-79054000D03*
%TO.P,U1,7,DB1*%
%TO.N,Net-(J1-Pin_8)*%
X89017000Y-79704000D03*
%TO.P,U1,8,DB0*%
%TO.N,Net-(J1-Pin_9)*%
X89017000Y-80354000D03*
%TO.P,U1,9*%
%TO.N,N/C*%
X89017000Y-81004000D03*
%TO.P,U1,10*%
X89017000Y-81654000D03*
%TO.P,U1,11*%
X89017000Y-82304000D03*
%TO.P,U1,12*%
X89017000Y-82954000D03*
%TO.P,U1,13*%
X89017000Y-83604000D03*
%TO.P,U1,14*%
X89017000Y-84254000D03*
%TO.P,U1,15,SLEEP*%
%TO.N,unconnected-(U1-SLEEP-Pad15)*%
X94742000Y-84254000D03*
%TO.P,U1,16,REFLO*%
%TO.N,/reflo*%
X94742000Y-83604000D03*
%TO.P,U1,17,REFIO*%
%TO.N,/refio*%
X94742000Y-82954000D03*
%TO.P,U1,18,FS_ADJ*%
%TO.N,Net-(U1-FS_ADJ)*%
X94742000Y-82304000D03*
%TO.P,U1,19,COMP1*%
%TO.N,Net-(U1-COMP1)*%
X94742000Y-81654000D03*
%TO.P,U1,20,ACOM*%
%TO.N,AGND*%
X94742000Y-81004000D03*
%TO.P,U1,21,IOUTB*%
X94742000Y-80354000D03*
%TO.P,U1,22,IOUTA*%
%TO.N,/signal*%
X94742000Y-79704000D03*
%TO.P,U1,23,COMP2*%
%TO.N,Net-(U1-COMP2)*%
X94742000Y-79054000D03*
%TO.P,U1,24,AVDD*%
%TO.N,AVCC*%
X94742000Y-78404000D03*
%TO.P,U1,25*%
%TO.N,N/C*%
X94742000Y-77754000D03*
%TO.P,U1,26,DCOM*%
%TO.N,DGND*%
X94742000Y-77104000D03*
%TO.P,U1,27,DVDD*%
%TO.N,DVCC*%
X94742000Y-76454000D03*
%TO.P,U1,28,Clock*%
%TO.N,Net-(J1-Pin_1)*%
X94742000Y-75804000D03*
%TD*%
D11*
%TO.P,C13,1*%
%TO.N,V+*%
X112064800Y-80990400D03*
%TO.P,C13,2*%
%TO.N,AGND*%
X112064800Y-79090400D03*
%TD*%
D26*
%TO.P,D3,1,K*%
%TO.N,V+*%
X119284600Y-61569600D03*
%TO.P,D3,2,A*%
%TO.N,Net-(D3-A)*%
X114909600Y-61569600D03*
%TD*%
D18*
%TO.P,J3,1,Pin_1*%
%TO.N,AVCC*%
X107325000Y-56515000D03*
D19*
%TO.P,J3,2,Pin_2*%
%TO.N,AGND*%
X104785000Y-56515000D03*
%TD*%
D21*
%TO.P,C21,1*%
%TO.N,V-*%
X103896200Y-87934800D03*
%TO.P,C21,2*%
%TO.N,AGND*%
X101996200Y-87934800D03*
%TD*%
D10*
%TO.P,R8,1*%
%TO.N,Net-(U2A--)*%
X105689400Y-75490700D03*
%TO.P,R8,2*%
%TO.N,Net-(R7-Pad1)*%
X105689400Y-77315700D03*
%TD*%
%TO.P,R22,1*%
%TO.N,Net-(U5-EN)*%
X112369600Y-56515000D03*
%TO.P,R22,2*%
%TO.N,AVCC*%
X112369600Y-58340000D03*
%TD*%
D14*
%TO.P,R19,1*%
%TO.N,Net-(R16-Pad1)*%
X119364800Y-84404200D03*
%TO.P,R19,2*%
%TO.N,Net-(D1-K)*%
X117539800Y-84404200D03*
%TD*%
%TO.P,R4,1*%
%TO.N,Net-(D1-A)*%
X119259400Y-79502000D03*
%TO.P,R4,2*%
%TO.N,V+*%
X117434400Y-79502000D03*
%TD*%
D20*
%TO.P,R14,1*%
%TO.N,/reflo*%
X88366600Y-91389200D03*
%TO.P,R14,2*%
%TO.N,AGND*%
X88366600Y-89564200D03*
%TD*%
D15*
%TO.P,R1,1*%
%TO.N,Net-(Q1-E)*%
X121818400Y-84582000D03*
%TO.P,R1,2*%
%TO.N,Net-(R1-Pad2)*%
X123643400Y-84582000D03*
%TD*%
D18*
%TO.P,J2,1,Pin_1*%
%TO.N,DVCC*%
X85450600Y-56565800D03*
D19*
%TO.P,J2,2,Pin_2*%
%TO.N,DGND*%
X82910600Y-56565800D03*
%TD*%
D27*
%TO.P,C20,1*%
%TO.N,V+*%
X119687200Y-57959400D03*
%TO.P,C20,2*%
%TO.N,Net-(U5-FB)*%
X119687200Y-56409400D03*
%TD*%
D28*
%TO.P,U5,1,SW*%
%TO.N,Net-(D3-A)*%
X116936100Y-58379400D03*
%TO.P,U5,2,GND*%
%TO.N,AGND*%
X116936100Y-57429400D03*
%TO.P,U5,3,FB*%
%TO.N,Net-(U5-FB)*%
X116936100Y-56479400D03*
%TO.P,U5,4,EN*%
%TO.N,Net-(U5-EN)*%
X114661100Y-56479400D03*
%TO.P,U5,5,VIN*%
%TO.N,AVCC*%
X114661100Y-58379400D03*
%TD*%
D23*
%TO.P,C10,1*%
%TO.N,DVCC*%
X82169000Y-59715400D03*
%TO.P,C10,2*%
%TO.N,DGND*%
X82169000Y-61615400D03*
%TD*%
D24*
%TO.P,C3,1*%
%TO.N,Net-(U1-COMP2)*%
X97525800Y-78282800D03*
%TO.P,C3,2*%
%TO.N,AGND*%
X99425800Y-78282800D03*
%TD*%
D14*
%TO.P,R11,1*%
%TO.N,Net-(C1-Pad1)*%
X119085400Y-74041000D03*
%TO.P,R11,2*%
%TO.N,Net-(R1-Pad2)*%
X117260400Y-74041000D03*
%TD*%
D21*
%TO.P,C19,1*%
%TO.N,AGND*%
X123215400Y-60401200D03*
%TO.P,C19,2*%
%TO.N,V+*%
X121315400Y-60401200D03*
%TD*%
D29*
%TO.P,D1,1,K*%
%TO.N,Net-(D1-K)*%
X117575900Y-81915000D03*
%TO.P,D1,2,A*%
%TO.N,Net-(D1-A)*%
X119625900Y-81915000D03*
%TD*%
D18*
%TO.P,J1,1,Pin_1*%
%TO.N,Net-(J1-Pin_1)*%
X83058000Y-71247000D03*
D19*
%TO.P,J1,2,Pin_2*%
%TO.N,Net-(J1-Pin_2)*%
X83058000Y-73787000D03*
%TO.P,J1,3,Pin_3*%
%TO.N,Net-(J1-Pin_3)*%
X83058000Y-76327000D03*
%TO.P,J1,4,Pin_4*%
%TO.N,Net-(J1-Pin_4)*%
X83058000Y-78867000D03*
%TO.P,J1,5,Pin_5*%
%TO.N,Net-(J1-Pin_5)*%
X83058000Y-81407000D03*
%TO.P,J1,6,Pin_6*%
%TO.N,Net-(J1-Pin_6)*%
X83058000Y-83947000D03*
%TO.P,J1,7,Pin_7*%
%TO.N,Net-(J1-Pin_7)*%
X83058000Y-86487000D03*
%TO.P,J1,8,Pin_8*%
%TO.N,Net-(J1-Pin_8)*%
X83058000Y-89027000D03*
%TO.P,J1,9,Pin_9*%
%TO.N,Net-(J1-Pin_9)*%
X83058000Y-91567000D03*
%TD*%
D20*
%TO.P,R9,1*%
%TO.N,AGND*%
X107848400Y-77315700D03*
%TO.P,R9,2*%
%TO.N,Net-(U2A--)*%
X107848400Y-75490700D03*
%TD*%
D17*
%TO.P,C8,1*%
%TO.N,DVCC*%
X91368800Y-57287200D03*
%TO.P,C8,2*%
%TO.N,DGND*%
X91368800Y-62687200D03*
%TD*%
D11*
%TO.P,C14,1*%
%TO.N,DVCC*%
X94107000Y-73756600D03*
%TO.P,C14,2*%
%TO.N,DGND*%
X94107000Y-71856600D03*
%TD*%
%TO.P,C15,1*%
%TO.N,DVCC*%
X91744800Y-73731200D03*
%TO.P,C15,2*%
%TO.N,DGND*%
X91744800Y-71831200D03*
%TD*%
D15*
%TO.P,R5,1*%
%TO.N,V-*%
X117537900Y-91567000D03*
%TO.P,R5,2*%
%TO.N,Net-(D2-K)*%
X119362900Y-91567000D03*
%TD*%
D11*
%TO.P,C18,1*%
%TO.N,AGND*%
X112369600Y-62301200D03*
%TO.P,C18,2*%
%TO.N,AVCC*%
X112369600Y-60401200D03*
%TD*%
D30*
%TO.P,Q1,1,B*%
%TO.N,Net-(D1-A)*%
X122049300Y-79288600D03*
%TO.P,Q1,2,E*%
%TO.N,Net-(Q1-E)*%
X122049300Y-81188600D03*
%TO.P,Q1,3,C*%
%TO.N,V+*%
X123924300Y-80238600D03*
%TD*%
D31*
%TO.P,D2,1,K*%
%TO.N,Net-(D2-K)*%
X119471100Y-89414600D03*
%TO.P,D2,2,A*%
%TO.N,Net-(D2-A)*%
X117421100Y-89414600D03*
%TD*%
D11*
%TO.P,C16,1*%
%TO.N,AVCC*%
X97459800Y-75041800D03*
%TO.P,C16,2*%
%TO.N,AGND*%
X97459800Y-73141800D03*
%TD*%
D21*
%TO.P,C1,1*%
%TO.N,Net-(C1-Pad1)*%
X119085400Y-71755000D03*
%TO.P,C1,2*%
%TO.N,AGND*%
X117185400Y-71755000D03*
%TD*%
D15*
%TO.P,R7,1*%
%TO.N,Net-(R7-Pad1)*%
X105996100Y-80797400D03*
%TO.P,R7,2*%
%TO.N,Net-(U2B-+)*%
X107821100Y-80797400D03*
%TD*%
D23*
%TO.P,C7,1*%
%TO.N,AVCC*%
X108742400Y-59639200D03*
%TO.P,C7,2*%
%TO.N,AGND*%
X108742400Y-61539200D03*
%TD*%
D32*
%TO.P,C5,1*%
%TO.N,AVCC*%
X105770600Y-59690000D03*
%TO.P,C5,2*%
%TO.N,AGND*%
X105770600Y-62640000D03*
%TD*%
D33*
%TO.P,L1,1,1*%
%TO.N,AVCC*%
X104787750Y-66649600D03*
%TO.P,L1,2,2*%
%TO.N,Net-(D3-A)*%
X108572250Y-66649600D03*
%TD*%
D24*
%TO.P,C12,1*%
%TO.N,V-*%
X97586800Y-88900000D03*
%TO.P,C12,2*%
%TO.N,AGND*%
X99486800Y-88900000D03*
%TD*%
%TO.P,C4,1*%
%TO.N,/refio*%
X97348000Y-85648800D03*
%TO.P,C4,2*%
%TO.N,AGND*%
X99248000Y-85648800D03*
%TD*%
D21*
%TO.P,C25,1*%
%TO.N,AGND*%
X95590400Y-91440000D03*
%TO.P,C25,2*%
%TO.N,V+*%
X93690400Y-91440000D03*
%TD*%
D30*
%TO.P,Q2,1,B*%
%TO.N,Net-(D2-K)*%
X121950000Y-89626400D03*
%TO.P,Q2,2,E*%
%TO.N,Net-(Q2-E)*%
X121950000Y-91526400D03*
%TO.P,Q2,3,C*%
%TO.N,V-*%
X123825000Y-90576400D03*
%TD*%
D32*
%TO.P,C9,1*%
%TO.N,DVCC*%
X85090000Y-59791600D03*
%TO.P,C9,2*%
%TO.N,DGND*%
X85090000Y-62741600D03*
%TD*%
D15*
%TO.P,R17,1*%
%TO.N,AGND*%
X106110000Y-90043000D03*
%TO.P,R17,2*%
%TO.N,Net-(U2B--)*%
X107935000Y-90043000D03*
%TD*%
D34*
%TO.N,AGND*%
X115671600Y-67462400D03*
D35*
X101930200Y-78360000D03*
X107899200Y-62966600D03*
X110693200Y-62331600D03*
X88823800Y-88214200D03*
D34*
X118417099Y-58709369D03*
D35*
X107721400Y-78790800D03*
X96126000Y-80946000D03*
X100380800Y-82550000D03*
X100253800Y-71602600D03*
X100100000Y-76900000D03*
X100761800Y-88341200D03*
%TO.N,AVCC*%
X98094800Y-87096600D03*
X92202000Y-86817200D03*
%TO.N,DGND*%
X91389200Y-65430400D03*
X85344000Y-64363600D03*
X93218000Y-77114400D03*
X95100000Y-70810000D03*
%TO.N,Net-(R1-Pad2)*%
X116154200Y-90017600D03*
X125044200Y-86842600D03*
D34*
%TO.N,V-*%
X114452400Y-91389200D03*
X108686600Y-88188800D03*
D35*
%TO.N,V+*%
X94640400Y-92684600D03*
X108712000Y-84251800D03*
D34*
X115697000Y-79857600D03*
%TD*%
D36*
%TO.N,Net-(C1-Pad1)*%
X119085400Y-71755000D02*
X119085400Y-74041000D01*
D37*
%TO.N,AGND*%
X99390200Y-91107900D02*
X99390200Y-91922600D01*
X101168200Y-87934800D02*
X101996200Y-87934800D01*
X99248000Y-85777700D02*
X99248000Y-83528500D01*
D38*
X123647200Y-60833000D02*
X123647200Y-63728600D01*
D37*
X100253800Y-72649000D02*
X99771200Y-73131600D01*
D39*
X110723600Y-62301200D02*
X112369600Y-62301200D01*
D36*
X118370000Y-58700000D02*
X118407730Y-58700000D01*
D39*
X107899200Y-62966600D02*
X106097200Y-62966600D01*
D37*
X100761800Y-88341200D02*
X101168200Y-87934800D01*
X99248000Y-83528500D02*
X99261300Y-83515200D01*
X100226500Y-82550000D02*
X99261300Y-83515200D01*
X100253800Y-71602600D02*
X100253800Y-72649000D01*
X99796600Y-88341200D02*
X99486800Y-88651000D01*
X97459800Y-73141800D02*
X99761000Y-73141800D01*
D39*
X107848400Y-77315700D02*
X107848400Y-78663800D01*
X117185400Y-71755000D02*
X118430000Y-70510400D01*
X117589400Y-57429400D02*
X118370000Y-58210000D01*
D38*
X123647200Y-63728600D02*
X122489000Y-64886800D01*
D39*
X114036400Y-68035400D02*
X114152200Y-67919600D01*
D37*
X102050000Y-78270000D02*
X103029700Y-77290300D01*
D39*
X118370000Y-58210000D02*
X118370000Y-58700000D01*
D37*
X98755200Y-92557600D02*
X96088200Y-92557600D01*
D38*
X115671600Y-67462400D02*
X115098600Y-68035400D01*
D37*
X96126000Y-80946000D02*
X96068000Y-81004000D01*
D39*
X106097200Y-62966600D02*
X105770600Y-62640000D01*
D37*
X99439100Y-91059000D02*
X99390200Y-91107900D01*
D39*
X107848400Y-77315700D02*
X108171700Y-77315700D01*
X109966800Y-79090400D02*
X112064800Y-79090400D01*
D37*
X99486800Y-88900000D02*
X99486800Y-91011300D01*
D39*
X99486800Y-88900000D02*
X99486800Y-88651000D01*
D37*
X95590400Y-92059800D02*
X95590400Y-91440000D01*
X99390200Y-91922600D02*
X98755200Y-92557600D01*
D39*
X108171700Y-77315700D02*
X109956600Y-79100600D01*
D37*
X103029700Y-77290300D02*
X103200200Y-77290300D01*
D39*
X106871400Y-61539200D02*
X105770600Y-62640000D01*
X116936100Y-57429400D02*
X117589400Y-57429400D01*
X110693200Y-62331600D02*
X110723600Y-62301200D01*
X105708200Y-62702400D02*
X105770600Y-62640000D01*
X109956600Y-79100600D02*
X109966800Y-79090400D01*
X118430000Y-70510400D02*
X122890200Y-70510400D01*
X88823800Y-89107000D02*
X88366600Y-89564200D01*
X88823800Y-88214200D02*
X88823800Y-89107000D01*
D38*
X123647200Y-69296200D02*
X123875800Y-69524800D01*
D37*
X102020200Y-78270000D02*
X102050000Y-78270000D01*
X100100000Y-77608600D02*
X99425800Y-78282800D01*
D39*
X122890200Y-70510400D02*
X123875800Y-69524800D01*
D37*
X94742000Y-81004000D02*
X94742000Y-80354000D01*
X100251900Y-91871800D02*
X104281200Y-91871800D01*
X104281200Y-91871800D02*
X106110000Y-90043000D01*
D38*
X115098600Y-68035400D02*
X114036400Y-68035400D01*
X123647200Y-63728600D02*
X123647200Y-69296200D01*
D39*
X108742400Y-61539200D02*
X106871400Y-61539200D01*
X107848400Y-78663800D02*
X107721400Y-78790800D01*
D37*
X100380800Y-82550000D02*
X100226500Y-82550000D01*
X96068000Y-81004000D02*
X94742000Y-81004000D01*
X96088200Y-92557600D02*
X95590400Y-92059800D01*
X99761000Y-73141800D02*
X99771200Y-73131600D01*
X101930200Y-78360000D02*
X102020200Y-78270000D01*
D38*
X123215400Y-60401200D02*
X123215400Y-60655200D01*
D39*
X123878200Y-59738400D02*
X123878200Y-58209600D01*
D38*
X122489000Y-64886800D02*
X121818400Y-64886800D01*
D39*
X99065000Y-62702400D02*
X105708200Y-62702400D01*
D38*
X123215400Y-60401200D02*
X123647200Y-60833000D01*
D37*
X99439100Y-91059000D02*
X100036950Y-91656850D01*
D38*
X123266200Y-60350400D02*
X123215400Y-60401200D01*
D39*
X123215400Y-60401200D02*
X123878200Y-59738400D01*
D37*
X101996200Y-87934800D02*
X101996200Y-90119200D01*
X100761800Y-88341200D02*
X99796600Y-88341200D01*
X100036950Y-91656850D02*
X100251900Y-91871800D01*
D38*
X123878200Y-58209600D02*
X124104400Y-58435800D01*
D36*
X118407730Y-58700000D02*
X118417099Y-58709369D01*
D37*
X100100000Y-76900000D02*
X100100000Y-77608600D01*
X99486800Y-91011300D02*
X99439100Y-91059000D01*
%TO.N,Net-(U1-COMP1)*%
X96770800Y-81654000D02*
X97373400Y-81051400D01*
X94742000Y-81654000D02*
X96770800Y-81654000D01*
D39*
%TO.N,AVCC*%
X92970000Y-82386856D02*
X92964000Y-82392856D01*
X97459800Y-76470144D02*
X97459800Y-75041800D01*
X92964000Y-82956400D02*
X87172800Y-88747600D01*
X95525944Y-78404000D02*
X97459800Y-76470144D01*
X91922600Y-90300800D02*
X91186000Y-89564200D01*
D38*
X101452600Y-59690000D02*
X105770600Y-59690000D01*
D37*
X112369600Y-58340000D02*
X114621700Y-58340000D01*
D39*
X99065000Y-57302400D02*
X99288600Y-57302400D01*
D37*
X92202000Y-86817200D02*
X92202000Y-88141800D01*
D39*
X92970000Y-79392056D02*
X92970000Y-82386856D01*
X93958056Y-78404000D02*
X92970000Y-79392056D01*
D37*
X99568000Y-87096600D02*
X101168200Y-85496400D01*
D39*
X101320600Y-68199000D02*
X102870000Y-66649600D01*
X107325000Y-56515000D02*
X109143800Y-56515000D01*
D38*
X99065000Y-57302400D02*
X101452600Y-59690000D01*
D39*
X101320600Y-74396600D02*
X101320600Y-68199000D01*
X100685600Y-75031600D02*
X101320600Y-74396600D01*
X110896400Y-58267600D02*
X112297200Y-58267600D01*
D38*
X107325000Y-58135600D02*
X107325000Y-56515000D01*
X99065000Y-57302400D02*
X96520000Y-59847400D01*
D37*
X101168200Y-85496400D02*
X101168200Y-82067400D01*
D39*
X91338400Y-92586800D02*
X91922600Y-92002600D01*
D37*
X100152200Y-81051400D02*
X99273400Y-81051400D01*
D39*
X87172800Y-92180400D02*
X87579200Y-92586800D01*
D38*
X107325000Y-58221800D02*
X108742400Y-59639200D01*
D39*
X87579200Y-92586800D02*
X91338400Y-92586800D01*
D37*
X101168200Y-82067400D02*
X100152200Y-81051400D01*
D39*
X99288600Y-57302400D02*
X99364800Y-57226200D01*
X92964000Y-82392856D02*
X92964000Y-82956400D01*
X94742000Y-78404000D02*
X93958056Y-78404000D01*
D38*
X105770600Y-59690000D02*
X107325000Y-58135600D01*
X112297200Y-58267600D02*
X112369600Y-58340000D01*
D37*
X98094800Y-87096600D02*
X99568000Y-87096600D01*
D39*
X94742000Y-78404000D02*
X95525944Y-78404000D01*
X109143800Y-56515000D02*
X110896400Y-58267600D01*
X97459800Y-75041800D02*
X99761000Y-75041800D01*
D38*
X114621700Y-58340000D02*
X114661100Y-58379400D01*
D37*
X92202000Y-88141800D02*
X90779600Y-89564200D01*
D39*
X87172800Y-88747600D02*
X87172800Y-92180400D01*
D38*
X99060000Y-66649600D02*
X104787750Y-66649600D01*
X96520000Y-64109600D02*
X99060000Y-66649600D01*
D39*
X102870000Y-66649600D02*
X104787750Y-66649600D01*
X107325000Y-56515000D02*
X107325000Y-58221800D01*
X91922600Y-92002600D02*
X91922600Y-90300800D01*
D37*
X99761000Y-75041800D02*
X99771200Y-75031600D01*
D38*
X96520000Y-59847400D02*
X96520000Y-64109600D01*
D39*
X99771200Y-75031600D02*
X100685600Y-75031600D01*
X112369600Y-58340000D02*
X112369600Y-60401200D01*
D37*
%TO.N,Net-(U1-COMP2)*%
X94742000Y-79054000D02*
X96510800Y-79054000D01*
X96510800Y-79054000D02*
X97282000Y-78282800D01*
%TO.N,/refio*%
X97205800Y-85648800D02*
X97348000Y-85648800D01*
X95628600Y-82954000D02*
X96342200Y-83667600D01*
X96748600Y-85191600D02*
X97205800Y-85648800D01*
X94742000Y-82954000D02*
X95628600Y-82954000D01*
X94716600Y-85191600D02*
X96748600Y-85191600D01*
X93665000Y-86243200D02*
X94716600Y-85191600D01*
X96342200Y-84771900D02*
X97219100Y-85648800D01*
X96342200Y-83667600D02*
X96342200Y-84771900D01*
X93665000Y-87096600D02*
X93665000Y-86243200D01*
%TO.N,DGND*%
X91368800Y-65410000D02*
X91389200Y-65430400D01*
X91368800Y-62717600D02*
X91389200Y-62738000D01*
D39*
X91389200Y-65430400D02*
X91389200Y-71475600D01*
X84272200Y-61615400D02*
X82169000Y-61615400D01*
D38*
X94107000Y-71803000D02*
X94107000Y-71856600D01*
D39*
X85090000Y-62741600D02*
X85090000Y-64109600D01*
X85090000Y-62741600D02*
X85090000Y-62433200D01*
X91368800Y-62687200D02*
X91368800Y-65410000D01*
X93228400Y-77104000D02*
X93218000Y-77114400D01*
X85090000Y-64109600D02*
X85344000Y-64363600D01*
X94742000Y-77104000D02*
X93228400Y-77104000D01*
X91389200Y-71475600D02*
X91744800Y-71831200D01*
D38*
X95100000Y-70810000D02*
X94107000Y-71803000D01*
D39*
X85090000Y-62433200D02*
X84272200Y-61615400D01*
X91744800Y-71831200D02*
X94081600Y-71831200D01*
D37*
X94081600Y-71831200D02*
X94107000Y-71856600D01*
D39*
%TO.N,DVCC*%
X90647400Y-56565800D02*
X91368800Y-57287200D01*
X90469800Y-73731200D02*
X91744800Y-73731200D01*
X82169000Y-59715400D02*
X85013800Y-59715400D01*
D37*
X95436140Y-76454000D02*
X94742000Y-76454000D01*
D39*
X87172800Y-70434200D02*
X90469800Y-73731200D01*
X85450600Y-56565800D02*
X90647400Y-56565800D01*
X91744800Y-73731200D02*
X94081600Y-73731200D01*
X85476000Y-56591200D02*
X85450600Y-56565800D01*
X85090000Y-59791600D02*
X86563200Y-59791600D01*
D36*
X94081600Y-73731200D02*
X94107000Y-73756600D01*
D39*
X87172800Y-60401200D02*
X87172800Y-70434200D01*
X85090000Y-59791600D02*
X85090000Y-56926400D01*
D37*
X95986600Y-74650600D02*
X95986600Y-75903540D01*
X95986600Y-75903540D02*
X95436140Y-76454000D01*
X95092600Y-73756600D02*
X95986600Y-74650600D01*
D39*
X86563200Y-59791600D02*
X87172800Y-60401200D01*
X85090000Y-56926400D02*
X85450600Y-56565800D01*
X85013800Y-59715400D02*
X85090000Y-59791600D01*
D37*
X94107000Y-73756600D02*
X95092600Y-73756600D01*
%TO.N,Net-(D1-K)*%
X118999000Y-83058000D02*
X119786400Y-83058000D01*
X117856000Y-81915000D02*
X118999000Y-83058000D01*
X120319800Y-85166200D02*
X119888000Y-85598000D01*
X117575900Y-81915000D02*
X117856000Y-81915000D01*
X119888000Y-85598000D02*
X118733600Y-85598000D01*
X120319800Y-83591400D02*
X120319800Y-85166200D01*
X119786400Y-83058000D02*
X120319800Y-83591400D01*
X118733600Y-85598000D02*
X117539800Y-84404200D01*
%TO.N,Net-(D1-A)*%
X121835900Y-79502000D02*
X122049300Y-79288600D01*
X119259400Y-81548500D02*
X119625900Y-81915000D01*
X119259400Y-79502000D02*
X119259400Y-81548500D01*
X119259400Y-79502000D02*
X121835900Y-79502000D01*
%TO.N,Net-(D2-K)*%
X119475400Y-89408000D02*
X119475400Y-91454500D01*
X119475400Y-89408000D02*
X121731600Y-89408000D01*
X121731600Y-89408000D02*
X121950000Y-89626400D01*
X119475400Y-91454500D02*
X119362900Y-91567000D01*
%TO.N,Net-(D2-A)*%
X117537900Y-89295500D02*
X117425400Y-89408000D01*
D39*
X117537900Y-86995000D02*
X117537900Y-89295500D01*
D37*
%TO.N,Net-(J1-Pin_9)*%
X87350600Y-87274400D02*
X83058000Y-91567000D01*
X89017000Y-80354000D02*
X88048000Y-80354000D01*
X87350600Y-81051400D02*
X87350600Y-87274400D01*
X88048000Y-80354000D02*
X87350600Y-81051400D01*
%TO.N,Net-(J1-Pin_6)*%
X83058000Y-83947000D02*
X85572600Y-81432400D01*
X85572600Y-79959200D02*
X87127800Y-78404000D01*
X87127800Y-78404000D02*
X89017000Y-78404000D01*
X85572600Y-81432400D02*
X85572600Y-79959200D01*
%TO.N,Net-(J1-Pin_7)*%
X87519200Y-79054000D02*
X89017000Y-79054000D01*
X86106000Y-83439000D02*
X86106000Y-80467200D01*
X86106000Y-80467200D02*
X87519200Y-79054000D01*
X83058000Y-86487000D02*
X86106000Y-83439000D01*
%TO.N,Net-(J1-Pin_1)*%
X85540000Y-73729000D02*
X89070600Y-73729000D01*
X83058000Y-71247000D02*
X85540000Y-73729000D01*
X91145600Y-75804000D02*
X94742000Y-75804000D01*
X89070600Y-73729000D02*
X91145600Y-75804000D01*
%TO.N,Net-(J1-Pin_8)*%
X83058000Y-89027000D02*
X86715600Y-85369400D01*
X86715600Y-85369400D02*
X86715600Y-80797400D01*
X87809000Y-79704000D02*
X89017000Y-79704000D01*
X86715600Y-80797400D02*
X87809000Y-79704000D01*
%TO.N,Net-(J1-Pin_3)*%
X83185000Y-76454000D02*
X89017000Y-76454000D01*
X83058000Y-76327000D02*
X83185000Y-76454000D01*
%TO.N,Net-(J1-Pin_2)*%
X85075000Y-75804000D02*
X83058000Y-73787000D01*
X89017000Y-75804000D02*
X85075000Y-75804000D01*
%TO.N,Net-(J1-Pin_5)*%
X83058000Y-81407000D02*
X86711000Y-77754000D01*
X86711000Y-77754000D02*
X89017000Y-77754000D01*
%TO.N,Net-(J1-Pin_4)*%
X84821000Y-77104000D02*
X89017000Y-77104000D01*
X83058000Y-78867000D02*
X84821000Y-77104000D01*
D38*
%TO.N,/out*%
X123848500Y-75742800D02*
X123848500Y-72092100D01*
X123848500Y-72092100D02*
X123875800Y-72064800D01*
%TO.N,Net-(Q1-E)*%
X122049300Y-84351100D02*
X121818400Y-84582000D01*
X122049300Y-81188600D02*
X122049300Y-84351100D01*
D39*
%TO.N,Net-(Q2-E)*%
X125171200Y-91059000D02*
X124383800Y-91846400D01*
X122783600Y-88214200D02*
X124104400Y-88214200D01*
X122270000Y-91846400D02*
X121950000Y-91526400D01*
X125171200Y-89281000D02*
X125171200Y-91059000D01*
X124383800Y-91846400D02*
X122270000Y-91846400D01*
X121840000Y-87270600D02*
X122783600Y-88214200D01*
X121840000Y-86842600D02*
X121840000Y-87270600D01*
X124104400Y-88214200D02*
X125171200Y-89281000D01*
%TO.N,Net-(R1-Pad2)*%
X123665000Y-87368400D02*
X123665000Y-86842600D01*
D37*
X124452400Y-87368400D02*
X124180600Y-87368400D01*
D38*
X121974600Y-76661000D02*
X122529600Y-77216000D01*
D37*
X124518400Y-87368400D02*
X125044200Y-86842600D01*
X124180600Y-87368400D02*
X123665000Y-87368400D01*
X119098700Y-76299700D02*
X119098700Y-76454000D01*
D38*
X121312300Y-76454000D02*
X122023500Y-75742800D01*
X124358400Y-77216000D02*
X125450600Y-78308200D01*
X122529600Y-77216000D02*
X124358400Y-77216000D01*
D37*
X116128800Y-90043000D02*
X111665000Y-90043000D01*
D38*
X123665000Y-86842600D02*
X123665000Y-84603600D01*
D37*
X117260400Y-74461400D02*
X119098700Y-76299700D01*
D38*
X125450600Y-82774800D02*
X123643400Y-84582000D01*
D39*
X123665000Y-84603600D02*
X123643400Y-84582000D01*
D37*
X124180600Y-87368400D02*
X124518400Y-87368400D01*
D38*
X121974600Y-75946000D02*
X121974600Y-76661000D01*
X119098700Y-76454000D02*
X121312300Y-76454000D01*
D37*
X116154200Y-90017600D02*
X116128800Y-90043000D01*
D39*
X117400700Y-74181300D02*
X117260400Y-74041000D01*
D37*
X117402600Y-74183200D02*
X117260400Y-74041000D01*
D38*
X125450600Y-78308200D02*
X125450600Y-82774800D01*
D37*
X117260400Y-74041000D02*
X117260400Y-74461400D01*
%TO.N,Net-(U2B--)*%
X110464600Y-88468200D02*
X112217200Y-88468200D01*
X107935000Y-90043000D02*
X109840000Y-90043000D01*
X112217200Y-88468200D02*
X112877600Y-87807800D01*
X112877600Y-87807800D02*
X112877600Y-86487000D01*
X112369600Y-85979000D02*
X110998000Y-85979000D01*
X109840000Y-90043000D02*
X109840000Y-89092800D01*
X112877600Y-86487000D02*
X112369600Y-85979000D01*
X109840000Y-89092800D02*
X110464600Y-88468200D01*
%TO.N,Net-(R7-Pad1)*%
X106048000Y-80849300D02*
X105996100Y-80797400D01*
X105689400Y-80490700D02*
X105996100Y-80797400D01*
X105689400Y-77315700D02*
X105689400Y-80490700D01*
X106048000Y-83439000D02*
X106048000Y-80849300D01*
%TO.N,Net-(U2B-+)*%
X107821100Y-80797400D02*
X107821100Y-85037300D01*
X107821100Y-85037300D02*
X110032800Y-87249000D01*
X110032800Y-87249000D02*
X110998000Y-87249000D01*
%TO.N,Net-(U2A--)*%
X105073001Y-84709000D02*
X104444800Y-84080799D01*
X106048000Y-84709000D02*
X105073001Y-84709000D01*
X104444800Y-75996800D02*
X104950900Y-75490700D01*
X104444800Y-84080799D02*
X104444800Y-75996800D01*
X105689400Y-75490700D02*
X107848400Y-75490700D01*
X104950900Y-75490700D02*
X105689400Y-75490700D01*
%TO.N,Net-(U3--)*%
X97485200Y-91059000D02*
X96520000Y-90093800D01*
X93665000Y-89371600D02*
X93964999Y-89371600D01*
X95575099Y-87771599D02*
X95565000Y-87771599D01*
X96520000Y-90093800D02*
X96520000Y-88051600D01*
X97614100Y-91059000D02*
X97485200Y-91059000D01*
X96520000Y-88051600D02*
X95565000Y-87096600D01*
X95565000Y-87771599D02*
X95565000Y-87096600D01*
X93964999Y-89371600D02*
X95565000Y-87771599D01*
%TO.N,/reflo*%
X89752600Y-87855900D02*
X89752600Y-91149600D01*
X89752600Y-91149600D02*
X89992200Y-91389200D01*
X94004501Y-83604000D02*
X90988650Y-86619850D01*
X89992200Y-91389200D02*
X90137548Y-91389200D01*
X94742000Y-83604000D02*
X94004501Y-83604000D01*
X90988650Y-86619850D02*
X89752600Y-87855900D01*
X90137548Y-91389200D02*
X90458574Y-91710226D01*
X88366600Y-91389200D02*
X89992200Y-91389200D01*
%TO.N,Net-(U1-FS_ADJ)*%
X94742000Y-82304000D02*
X95740600Y-82304000D01*
X95740600Y-82304000D02*
X96951800Y-83515200D01*
X96951800Y-83515200D02*
X97436300Y-83515200D01*
%TO.N,Net-(R16-Pad1)*%
X114147600Y-83108800D02*
X112547400Y-84709000D01*
X116230400Y-83312000D02*
X118272600Y-83312000D01*
X119362900Y-86995000D02*
X118092900Y-85725000D01*
X118092900Y-85725000D02*
X114046000Y-85725000D01*
X110998000Y-84709000D02*
X111139400Y-84850400D01*
X117068600Y-76581000D02*
X117400700Y-76581000D01*
X114046000Y-85725000D02*
X113030000Y-84709000D01*
X118272600Y-83312000D02*
X119364800Y-84404200D01*
X114833400Y-84709000D02*
X116230400Y-83312000D01*
X113030000Y-84709000D02*
X114833400Y-84709000D01*
X114147600Y-83108800D02*
X114147600Y-79502000D01*
X114147600Y-79502000D02*
X117195600Y-76454000D01*
X117260400Y-76440700D02*
X117400700Y-76581000D01*
X117195600Y-76454000D02*
X117273700Y-76454000D01*
X112547400Y-84709000D02*
X110998000Y-84709000D01*
X113030000Y-84709000D02*
X110998000Y-84709000D01*
D38*
%TO.N,Net-(D3-A)*%
X108572250Y-66649600D02*
X108572250Y-65722550D01*
X113665000Y-63576200D02*
X114909600Y-62331600D01*
D39*
X114909600Y-60405900D02*
X114909600Y-61569600D01*
D38*
X114909600Y-62331600D02*
X114909600Y-61569600D01*
X108559600Y-66636950D02*
X108572250Y-66649600D01*
X108572250Y-65722550D02*
X110718600Y-63576200D01*
X116936100Y-58379400D02*
X116936100Y-59543100D01*
X108572250Y-66649600D02*
X108610400Y-66611450D01*
X110718600Y-63576200D02*
X113665000Y-63576200D01*
X116936100Y-59543100D02*
X114909600Y-61569600D01*
D39*
%TO.N,Net-(J5-Pin_1)*%
X103098600Y-72212200D02*
X103809800Y-72212200D01*
X107492800Y-72923400D02*
X108717000Y-71699200D01*
X103809800Y-72212200D02*
X104521000Y-72923400D01*
X108717000Y-71699200D02*
X108717000Y-71145400D01*
X104521000Y-72923400D02*
X107492800Y-72923400D01*
D37*
%TO.N,Net-(U5-FB)*%
X121770000Y-56410000D02*
X123852800Y-56410000D01*
X117548100Y-56476000D02*
X119620600Y-56476000D01*
X123852800Y-56410000D02*
X123878200Y-56384600D01*
X119687200Y-56409400D02*
X121769400Y-56409400D01*
X119620600Y-56476000D02*
X119687200Y-56409400D01*
X121769400Y-56409400D02*
X121770000Y-56410000D01*
D39*
%TO.N,V-*%
X120599200Y-92379800D02*
X120599200Y-91211400D01*
X120167400Y-92811600D02*
X120599200Y-92379800D01*
D38*
X119186400Y-69305400D02*
X117638600Y-69305400D01*
D37*
X94615000Y-86436200D02*
X95097600Y-85953600D01*
D39*
X118338600Y-92811600D02*
X119100600Y-92811600D01*
D37*
X96469200Y-86461600D02*
X96469200Y-86944200D01*
X97586800Y-88900000D02*
X97586800Y-88849200D01*
X103896200Y-87934800D02*
X105362200Y-87934800D01*
X101193600Y-86842600D02*
X103378000Y-86842600D01*
X97586800Y-88900000D02*
X97586800Y-88061800D01*
X96469200Y-86944200D02*
X97586800Y-88061800D01*
D39*
X114452400Y-91389200D02*
X115874800Y-92811600D01*
X120407200Y-69305400D02*
X121818400Y-67894200D01*
X120599200Y-91211400D02*
X121234200Y-90576400D01*
X121234200Y-90576400D02*
X123825000Y-90576400D01*
D37*
X103896200Y-87934800D02*
X103896200Y-90119200D01*
D39*
X117537900Y-91567000D02*
X117537900Y-92010900D01*
X108686600Y-88188800D02*
X106987800Y-88188800D01*
D37*
X98755200Y-87680800D02*
X100355400Y-87680800D01*
D38*
X113639600Y-73304400D02*
X112445800Y-73304400D01*
X112445800Y-72745600D02*
X112445800Y-73304400D01*
X112725200Y-73075800D02*
X112445800Y-72796400D01*
D37*
X97015300Y-87490300D02*
X96926400Y-87401400D01*
X95097600Y-85953600D02*
X95961200Y-85953600D01*
D39*
X119186400Y-69305400D02*
X120407200Y-69305400D01*
X117537900Y-92010900D02*
X118338600Y-92811600D01*
X119100600Y-92811600D02*
X120167400Y-92811600D01*
D38*
X117279300Y-91825600D02*
X117537900Y-91567000D01*
D39*
X112737900Y-73012300D02*
X112445800Y-73304400D01*
X121818400Y-67894200D02*
X121818400Y-66786800D01*
D37*
X97586800Y-88849200D02*
X98755200Y-87680800D01*
X106110000Y-87311000D02*
X106048000Y-87249000D01*
X103378000Y-86842600D02*
X103896200Y-87360800D01*
X94615000Y-87096600D02*
X94615000Y-86436200D01*
D39*
X106987800Y-88188800D02*
X106048000Y-87249000D01*
X115874800Y-92811600D02*
X119100600Y-92811600D01*
D37*
X103896200Y-87360800D02*
X103896200Y-87934800D01*
D38*
X117638600Y-69305400D02*
X113639600Y-73304400D01*
D37*
X105362200Y-87934800D02*
X106048000Y-87249000D01*
X97586800Y-88312000D02*
X97586800Y-88900000D01*
X95961200Y-85953600D02*
X96469200Y-86461600D01*
X100355400Y-87680800D02*
X101193600Y-86842600D01*
X97586800Y-88061800D02*
X97015300Y-87490300D01*
D38*
%TO.N,V+*%
X122859800Y-78232000D02*
X118338600Y-78232000D01*
X121770000Y-58235000D02*
X121770000Y-60240400D01*
X117170200Y-68326000D02*
X114706400Y-70789800D01*
X117170200Y-66776600D02*
X117170200Y-68326000D01*
D39*
X112598200Y-81178400D02*
X112598200Y-82778600D01*
D37*
X119687200Y-57959400D02*
X121494400Y-57959400D01*
D39*
X112410200Y-80990400D02*
X112598200Y-81178400D01*
X112064800Y-80990400D02*
X112303600Y-80990400D01*
D38*
X123924300Y-79296500D02*
X122859800Y-78232000D01*
X121158000Y-60243800D02*
X121315400Y-60401200D01*
D39*
X111937800Y-83439000D02*
X110998000Y-83439000D01*
X93690400Y-91440000D02*
X93690400Y-91734600D01*
X109966800Y-80990400D02*
X109956600Y-81000600D01*
D38*
X119284600Y-61569600D02*
X120147000Y-61569600D01*
D39*
X113309400Y-79984600D02*
X113309400Y-76708000D01*
X112064800Y-80990400D02*
X112410200Y-80990400D01*
D38*
X120147000Y-61569600D02*
X121315400Y-60401200D01*
D39*
X113309400Y-76708000D02*
X112445800Y-75844400D01*
D38*
X116977200Y-79857600D02*
X117383600Y-79451200D01*
D39*
X93690400Y-91734600D02*
X94640400Y-92684600D01*
X112303600Y-80990400D02*
X113309400Y-79984600D01*
X93690400Y-91246200D02*
X95565000Y-89371600D01*
X119175200Y-65506600D02*
X118440200Y-65506600D01*
X93690400Y-91440000D02*
X93690400Y-91246200D01*
D38*
X110845600Y-74980800D02*
X111709200Y-75844400D01*
X119284600Y-61569600D02*
X119284600Y-65397200D01*
D39*
X109524800Y-83439000D02*
X110998000Y-83439000D01*
X111709200Y-75844400D02*
X112445800Y-75844400D01*
D38*
X123924300Y-80238600D02*
X123924300Y-79296500D01*
D37*
X121494400Y-57959400D02*
X121770000Y-58235000D01*
D38*
X119284600Y-65397200D02*
X119186400Y-65495400D01*
X118440200Y-65506600D02*
X117170200Y-66776600D01*
D39*
X112064800Y-80990400D02*
X109966800Y-80990400D01*
D38*
X117434400Y-79136200D02*
X117434400Y-79502000D01*
D39*
X112598200Y-82778600D02*
X111937800Y-83439000D01*
D38*
X110845600Y-72313800D02*
X110845600Y-74980800D01*
D37*
X117383600Y-79451200D02*
X117434400Y-79502000D01*
D38*
X112369600Y-70789800D02*
X110845600Y-72313800D01*
X114706400Y-70789800D02*
X112369600Y-70789800D01*
D39*
X119186400Y-65495400D02*
X119175200Y-65506600D01*
D38*
X118338600Y-78232000D02*
X117434400Y-79136200D01*
D39*
X108712000Y-84251800D02*
X109524800Y-83439000D01*
D38*
X115697000Y-79857600D02*
X116977200Y-79857600D01*
D37*
%TO.N,Net-(U5-EN)*%
X114625500Y-56515000D02*
X114661100Y-56479400D01*
X112369600Y-56515000D02*
X114625500Y-56515000D01*
%TO.N,/signal*%
X100913000Y-76658400D02*
X102106100Y-75465300D01*
X94742000Y-79704000D02*
X100304600Y-79704000D01*
X100864600Y-79704000D02*
X100304600Y-79704000D01*
X103200200Y-73613800D02*
X103098600Y-73512200D01*
X102106100Y-75465300D02*
X103200200Y-75465300D01*
X100304600Y-79704000D02*
X100913000Y-79704000D01*
X101970000Y-80761000D02*
X101970000Y-83910600D01*
X100913000Y-79704000D02*
X101970000Y-80761000D01*
X101970000Y-83910600D02*
X104038400Y-85979000D01*
X104038400Y-85979000D02*
X106048000Y-85979000D01*
X100913000Y-79704000D02*
X100913000Y-76658400D01*
X103200200Y-75465300D02*
X103200200Y-73613800D01*
D39*
X103098600Y-75363700D02*
X103200200Y-75465300D01*
%TO.N,Net-(U4-CAP-)*%
X112602200Y-69305400D02*
X114036400Y-69305400D01*
X111328200Y-68031400D02*
X112602200Y-69305400D01*
%TO.N,Net-(U4-CAP+)*%
X114036400Y-66765400D02*
X111962200Y-66765400D01*
X111962200Y-66765400D02*
X111328200Y-66131400D01*
%TD*%
M02*
