M48
; DRILL file {KiCad 8.0.5} date 2024-10-20T10:56:07-0400
; FORMAT={-:-/ absolute / inch / decimal}
; #@! TF.CreationDate,2024-10-20T10:56:07-04:00
; #@! TF.GenerationSoftware,Kicad,Pcbnew,8.0.5
; #@! TF.FileFunction,Plated,1,2,PTH
FMAT,2
INCH
; #@! TA.AperFunction,Plated,PTH,ViaDrill
T1C0.0130
; #@! TA.AperFunction,Plated,PTH,ViaDrill
T2C0.0200
; #@! TA.AperFunction,Plated,PTH,ComponentDrill
T3C0.0394
%
G90
G05
T1
X3.36Y-2.534
X3.5406Y-3.4252
X3.598Y-2.576
X3.67Y-3.036
X3.7441Y-2.7878
X3.7845Y-3.1869
X3.9409Y-3.0276
X3.9409Y-3.2551
X3.9484Y-2.8327
X3.9697Y-3.4406
X4.0181Y-3.085
X4.2315Y-2.5154
X4.4299Y-2.5071
X4.5567Y-2.9673
X4.7787Y-2.8748
T2
X4.4965Y-3.4425
X4.6409Y-2.7079
X4.6621Y-2.3114
T3
X3.2642Y-2.227
X3.27Y-2.805
X3.27Y-2.905
X3.27Y-3.005
X3.27Y-3.105
X3.27Y-3.205
X3.27Y-3.305
X3.27Y-3.405
X3.27Y-3.505
X3.27Y-3.605
X3.3642Y-2.227
X4.1254Y-2.225
X4.2254Y-2.225
X4.402Y-2.852
X4.402Y-2.952
X4.868Y-2.6882
X4.868Y-2.7882
M30
