%TF.GenerationSoftware,KiCad,Pcbnew,8.0.5*%
%TF.CreationDate,2024-10-20T11:29:55-04:00*%
%TF.ProjectId,power_glitcher_panel,706f7765-725f-4676-9c69-74636865725f,rev?*%
%TF.SameCoordinates,Original*%
%TF.FileFunction,Profile,NP*%
%FSLAX46Y46*%
G04 Gerber Fmt 4.6, Leading zero omitted, Abs format (unit mm)*
G04 Created by KiCad (PCBNEW 8.0.5) date 2024-10-20 11:29:55*
%MOMM*%
%LPD*%
G01*
G04 APERTURE LIST*
%TA.AperFunction,Profile*%
%ADD10C,0.050000*%
%TD*%
G04 APERTURE END LIST*
D10*
X203809200Y-102169000D02*
X243849200Y-102169000D01*
X243849200Y-103966200D01*
X203809200Y-103966200D01*
X203809200Y-102169000D01*
X203809200Y-60169000D02*
X243849200Y-60169000D01*
X243849200Y-61966200D01*
X203809200Y-61966200D01*
X203809200Y-60169000D01*
X56000000Y-19983400D02*
X246942600Y-19983400D01*
X246942600Y-144208200D01*
X56000000Y-144208200D01*
X56000000Y-19983400D01*
X102278800Y-106879100D02*
X104236000Y-106879100D01*
X104236000Y-141209100D01*
X102278800Y-141209100D01*
X102278800Y-106879100D01*
X198764800Y-106873700D02*
X200722000Y-106873700D01*
X200722000Y-141203700D01*
X198764800Y-141203700D01*
X198764800Y-106873700D01*
X155605400Y-102197400D02*
X195645400Y-102197400D01*
X195645400Y-103994600D01*
X155605400Y-103994600D01*
X155605400Y-102197400D01*
X150528800Y-106873700D02*
X152486000Y-106873700D01*
X152486000Y-141203700D01*
X150528800Y-141203700D01*
X150528800Y-106873700D01*
X107369400Y-102197400D02*
X147409400Y-102197400D01*
X147409400Y-103994600D01*
X107369400Y-103994600D01*
X107369400Y-102197400D01*
X59119400Y-102202800D02*
X99159400Y-102202800D01*
X99159400Y-104000000D01*
X59119400Y-104000000D01*
X59119400Y-102202800D01*
X102278800Y-64879100D02*
X104236000Y-64879100D01*
X104236000Y-99209100D01*
X102278800Y-99209100D01*
X102278800Y-64879100D01*
X198764800Y-64873700D02*
X200722000Y-64873700D01*
X200722000Y-99203700D01*
X198764800Y-99203700D01*
X198764800Y-64873700D01*
X155605400Y-60197400D02*
X195645400Y-60197400D01*
X195645400Y-61994600D01*
X155605400Y-61994600D01*
X155605400Y-60197400D01*
X150528800Y-64873700D02*
X152486000Y-64873700D01*
X152486000Y-99203700D01*
X150528800Y-99203700D01*
X150528800Y-64873700D01*
X107369400Y-60197400D02*
X147409400Y-60197400D01*
X147409400Y-61994600D01*
X107369400Y-61994600D01*
X107369400Y-60197400D01*
X59119400Y-60202800D02*
X99159400Y-60202800D01*
X99159400Y-62000000D01*
X59119400Y-62000000D01*
X59119400Y-60202800D01*
X150502800Y-22890900D02*
X152460000Y-22890900D01*
X152460000Y-57220900D01*
X150502800Y-57220900D01*
X150502800Y-22890900D01*
X102252800Y-22896300D02*
X104210000Y-22896300D01*
X104210000Y-57226300D01*
X102252800Y-57226300D01*
X102252800Y-22896300D01*
X198706600Y-22862500D02*
X200663800Y-22862500D01*
X200663800Y-57192500D01*
X198706600Y-57192500D01*
X198706600Y-22862500D01*
M02*
